<?xml version="1.0" encoding="utf-8" standalone="no"?>
<!DOCTYPE svg PUBLIC "-//W3C//DTD SVG 1.1//EN"
  "http://www.w3.org/Graphics/SVG/1.1/DTD/svg11.dtd">
<svg xmlns:xlink="http://www.w3.org/1999/xlink" width="653.520937pt" height="250.921812pt" viewBox="0 0 653.520937 250.921812" xmlns="http://www.w3.org/2000/svg" version="1.1"><style>:root{--c-paper:#f6f2e9;--c-ink:#211e1a;--c-soft:#5a554c;--c-faint:#8a8478;--c-grid:#d8d0bf;--c-accent:#b4451f;--c-slate:#3f6b86;--c-olive:#5c6e3a;--c-gold:#9a6b1f}@media (prefers-color-scheme:dark){:root{--c-paper:#1a1815;--c-ink:#ece4d4;--c-soft:#b3aa98;--c-faint:#7c7568;--c-grid:#38332c;--c-accent:#e07a4e;--c-slate:#8fb4c8;--c-olive:#8aa05a;--c-gold:#c89a4e}}</style>
 <metadata>
  <rdf:RDF xmlns:dc="http://purl.org/dc/elements/1.1/" xmlns:cc="http://creativecommons.org/ns#" xmlns:rdf="http://www.w3.org/1999/02/22-rdf-syntax-ns#">
   <cc:Work>
    <dc:type rdf:resource="http://purl.org/dc/dcmitype/StillImage"/>
    <dc:date>2026-06-19T23:58:42.267710</dc:date>
    <dc:format>image/svg+xml</dc:format>
    <dc:creator>
     <cc:Agent>
      <dc:title>Matplotlib v3.6.3, https://matplotlib.org/</dc:title>
     </cc:Agent>
    </dc:creator>
   </cc:Work>
  </rdf:RDF>
 </metadata>
 <defs>
  <style type="text/css">*{stroke-linejoin: round; stroke-linecap: butt}</style>
 </defs>
 <g id="figure_1">
  <g id="patch_1">
   <path d="M 0 250.921812 
L 653.520937 250.921812 
L 653.520937 0 
L 0 0 
z
" style="fill: var(--c-paper)"/>
  </g>
  <g id="axes_1">
   <g id="patch_2">
    <path d="M 56.340938 211.929937 
L 324.570938 211.929937 
L 324.570938 23.229938 
L 56.340938 23.229938 
z
" style="fill: var(--c-paper)"/>
   </g>
   <g id="PolyCollection_1">
    <defs>
     <path id="m934a28bbdf" d="M 68.53321 -86.74296 
L 68.53321 -47.569148 
L 68.543872 -47.569148 
L 68.86729 -47.569148 
L 69.267574 -47.569148 
L 69.519087 -47.569148 
L 69.519173 -47.569148 
L 69.519356 -47.569148 
L 69.864814 -47.569148 
L 70.266752 -47.569148 
L 70.461846 -47.569148 
L 70.709754 -47.569148 
L 70.883594 -47.569148 
L 71.133735 -47.569148 
L 71.455814 -47.569148 
L 71.704177 -47.569148 
L 71.854529 -47.569148 
L 71.854689 -47.569148 
L 72.453236 -47.569148 
L 72.696624 -47.569148 
L 72.853388 -47.569148 
L 73.097635 -47.569148 
L 73.097659 -47.569148 
L 73.44952 -47.569148 
L 73.662648 -47.569148 
L 73.662774 -47.569148 
L 73.662929 -47.569148 
L 73.847379 -47.569148 
L 74.045188 -47.569148 
L 74.444566 -47.569148 
L 74.847755 -47.569148 
L 75.131903 -47.569148 
L 75.444739 -47.569148 
L 76.045682 -47.569148 
L 76.441065 -47.569148 
L 76.703869 -47.569148 
L 76.846328 -47.569148 
L 77.041938 -47.569148 
L 77.446491 -47.569148 
L 77.446634 -47.569148 
L 77.710514 -47.569148 
L 78.039524 -47.569148 
L 78.438873 -47.569148 
L 78.699548 -47.569148 
L 79.04108 -47.569148 
L 79.433919 -47.569148 
L 79.641104 -47.569148 
L 80.031557 -47.569148 
L 80.284405 -47.569148 
L 80.428938 -47.569148 
L 80.637827 -47.569148 
L 80.637998 -47.569148 
L 80.638283 -47.569148 
L 80.853308 -47.569148 
L 81.021314 -47.569148 
L 81.281938 -47.569148 
L 81.619291 -47.569148 
L 82.021026 -47.569148 
L 82.268028 -47.569148 
L 82.287898 -47.569148 
L 82.615379 -47.569148 
L 82.854762 -47.569148 
L 83.013505 -47.569148 
L 83.225018 -47.569148 
L 83.226149 -47.569148 
L 83.226595 -47.569148 
L 83.245218 -47.569148 
L 83.603854 -47.569148 
L 84.004613 -47.569148 
L 84.202119 -47.569148 
L 84.440488 -47.569148 
L 84.617756 -47.569148 
L 84.878731 -47.569148 
L 84.994897 -47.569148 
L 85.19655 -47.569148 
L 85.589599 -47.569148 
L 85.863787 -47.569148 
L 86.184371 -47.569148 
L 86.429071 -47.569148 
L 86.58111 -47.569148 
L 86.776314 -47.569148 
L 87.176867 -47.569148 
L 87.439284 -47.569148 
L 87.574975 -47.569148 
L 87.77637 -47.569148 
L 88.171823 -47.569148 
L 88.572471 -47.569148 
L 88.771506 -47.569148 
L 89.017315 -47.569148 
L 89.173361 -47.569148 
L 89.421789 -47.569148 
L 89.423705 -47.569148 
L 89.433654 -47.569148 
L 89.580404 -47.569148 
L 89.762613 -47.569148 
L 90.007366 -47.569148 
L 90.161291 -47.569148 
L 90.43701 -47.569148 
L 90.757609 -47.569148 
L 91.153649 -47.569148 
L 91.35069 -47.569148 
L 91.579338 -47.569148 
L 91.748695 -47.569148 
L 92.008548 -47.569148 
L 92.148755 -47.569148 
L 92.341825 -47.569148 
L 92.740059 -47.569148 
L 93.007942 -47.569148 
L 93.348153 -47.569148 
L 93.580204 -47.569148 
L 93.738828 -47.569148 
L 94.031229 -47.569148 
L 94.165067 -47.569148 
L 94.325217 -47.569148 
L 94.58377 -47.569148 
L 94.92104 -47.569148 
L 95.121872 -47.569148 
L 95.156548 -47.569148 
L 95.308613 -47.569148 
L 95.737689 -47.569148 
L 95.901808 -47.569148 
L 96.165627 -47.569148 
L 96.503978 -47.569148 
L 96.901259 -47.569148 
L 97.134985 -47.569148 
L 97.306377 -47.569148 
L 97.600712 -47.569148 
L 97.889194 -47.569148 
L 98.15665 -47.569148 
L 98.482279 -47.569148 
L 98.737718 -47.569148 
L 99.076745 -47.569148 
L 99.306609 -47.569148 
L 99.479915 -47.569148 
L 99.716514 -47.569148 
L 99.716643 -47.569148 
L 99.716788 -47.569148 
L 100.065396 -47.569148 
L 100.311812 -47.569148 
L 100.463886 -47.569148 
L 100.689455 -47.569148 
L 101.311364 -47.569148 
L 101.645643 -47.569148 
L 101.88591 -47.569148 
L 102.146877 -47.569148 
L 102.304407 -47.569148 
L 102.636698 -47.569148 
L 102.879171 -47.569148 
L 103.035998 -47.569148 
L 103.316356 -47.569148 
L 103.63173 -47.569148 
L 103.893309 -47.569148 
L 104.03889 -47.569148 
L 104.220985 -47.569148 
L 104.879486 -47.569148 
L 105.026729 -47.569148 
L 105.215967 -47.569148 
L 105.611332 -47.569148 
L 105.841538 -47.569148 
L 106.032219 -47.569148 
L 106.209671 -47.569148 
L 106.456745 -47.569148 
L 106.801558 -47.569148 
L 107.46295 -47.569148 
L 107.796679 -47.569148 
L 108.195739 -47.569148 
L 108.468813 -47.569148 
L 108.629325 -47.569148 
L 108.791454 -47.569148 
L 109.189467 -47.569148 
L 109.78346 -47.569148 
L 110.055419 -47.569148 
L 110.189168 -47.569148 
L 110.37313 -47.569148 
L 110.787831 -47.569148 
L 111.03616 -47.569148 
L 111.362892 -47.569148 
L 111.759561 -47.569148 
L 111.981321 -47.569148 
L 112.051712 -47.569148 
L 112.184375 -47.569148 
L 112.362817 -47.569148 
L 112.762045 -47.569148 
L 112.960162 -47.569148 
L 113.198213 -47.569148 
L 113.35815 -47.569148 
L 113.615895 -47.569148 
L 113.75834 -47.569148 
L 113.956737 -47.569148 
L 114.191704 -47.569148 
L 114.350628 -47.569148 
L 114.620651 -47.569148 
L 114.944936 -47.569148 
L 115.342977 -47.569148 
L 115.619171 -47.569148 
L 115.945169 -47.569148 
L 116.343243 -47.569148 
L 116.537062 -47.569148 
L 116.933762 -47.569148 
L 117.191977 -47.569148 
L 117.328937 -47.569148 
L 117.525621 -47.569148 
L 117.924908 -47.569148 
L 117.926009 -47.569148 
L 118.14295 -47.569148 
L 118.513077 -47.569148 
L 118.780124 -47.569148 
L 119.107377 -47.569148 
L 119.508816 -47.569148 
L 119.917766 -47.569148 
L 120.10704 -47.569148 
L 120.49516 -47.569148 
L 120.805209 -47.569148 
L 120.908612 -47.569148 
L 121.085623 -47.569148 
L 121.334824 -47.569148 
L 121.766711 -47.569148 
L 122.078346 -47.569148 
L 122.315394 -47.569148 
L 122.315577 -47.569148 
L 122.488976 -47.569148 
L 122.680116 -47.569148 
L 123.093658 -47.569148 
L 123.349048 -47.569148 
L 123.680626 -47.569148 
L 124.069217 -47.569148 
L 124.662568 -47.569148 
L 124.914365 -47.569148 
L 125.060411 -47.569148 
L 125.254197 -47.569148 
L 125.503783 -47.569148 
L 125.656064 -47.569148 
L 125.925308 -47.569148 
L 126.350622 -47.569148 
L 126.486344 -47.569148 
L 126.64235 -47.569148 
L 126.837342 -47.569148 
L 127.06741 -47.569148 
L 127.232378 -47.569148 
L 127.484117 -47.569148 
L 127.831488 -47.569148 
L 128.057231 -47.569148 
L 128.232691 -47.569148 
L 128.500186 -47.569148 
L 128.805009 -47.569148 
L 129.072726 -47.569148 
L 129.398148 -47.569148 
L 129.800308 -47.569148 
L 129.80043 -47.569148 
L 130.065288 -47.569148 
L 130.385284 -47.569148 
L 130.64259 -47.569148 
L 130.976274 -47.569148 
L 131.186713 -47.569148 
L 131.374609 -47.569148 
L 131.630459 -47.569148 
L 131.630484 -47.569148 
L 131.636342 -47.569148 
L 131.787758 -47.569148 
L 131.962986 -47.569148 
L 132.361179 -47.569148 
L 132.559497 -47.569148 
L 132.959579 -47.569148 
L 133.227035 -47.569148 
L 133.543924 -47.569148 
L 133.794199 -47.569148 
L 133.938005 -47.569148 
L 134.135132 -47.569148 
L 134.53083 -47.569148 
L 135.386622 -47.569148 
L 135.710714 -47.569148 
L 135.935369 -47.569148 
L 136.106977 -47.569148 
L 136.368213 -47.569148 
L 136.512353 -47.569148 
L 137.090583 -47.569148 
L 137.365897 -47.569148 
L 137.691293 -47.569148 
L 137.955835 -47.569148 
L 138.362669 -47.569148 
L 138.513469 -47.569148 
L 138.704462 -47.569148 
L 138.934565 -47.569148 
L 139.26502 -47.569148 
L 139.512636 -47.569148 
L 139.65389 -47.569148 
L 139.851686 -47.569148 
L 140.247019 -47.569148 
L 140.518226 -47.569148 
L 140.838268 -47.569148 
L 141.832593 -47.569148 
L 142.060478 -47.569148 
L 142.230735 -47.569148 
L 142.430919 -47.569148 
L 142.823689 -47.569148 
L 143.095299 -47.569148 
L 143.427553 -47.569148 
L 143.662243 -47.569148 
L 144.081789 -47.569148 
L 144.413109 -47.569148 
L 144.813359 -47.569148 
L 145.09547 -47.569148 
L 145.235134 -47.569148 
L 145.413483 -47.569148 
L 145.680611 -47.569148 
L 146.044648 -47.569148 
L 146.243943 -47.569148 
L 146.409913 -47.569148 
L 146.661766 -47.569148 
L 146.999971 -47.569148 
L 147.395532 -47.569148 
L 147.678251 -47.569148 
L 147.841132 -47.569148 
L 147.992625 -47.569148 
L 148.247464 -47.569148 
L 148.386669 -47.569148 
L 148.583099 -47.569148 
L 148.977803 -47.569148 
L 149.246975 -47.569148 
L 149.569029 -47.569148 
L 149.967087 -47.569148 
L 150.238274 -47.569148 
L 150.378148 -47.569148 
L 150.564006 -47.569148 
L 150.8069 -47.569148 
L 151.153305 -47.569148 
L 151.387459 -47.569148 
L 151.546728 -47.569148 
L 152.143214 -47.569148 
L 152.389835 -47.569148 
L 152.541011 -47.569148 
L 152.816858 -47.569148 
L 153.137561 -47.569148 
L 153.346202 -47.569148 
L 153.813021 -47.569148 
L 153.970086 -47.569148 
L 154.135829 -47.569148 
L 154.719655 -47.569148 
L 154.949742 -47.569148 
L 154.949933 -47.569148 
L 154.953142 -47.569148 
L 155.119925 -47.569148 
L 155.334499 -47.569148 
L 155.709554 -47.569148 
L 155.968487 -47.569148 
L 156.53622 -47.569148 
L 156.695471 -47.569148 
L 157.28597 -47.569148 
L 157.531794 -47.569148 
L 157.687988 -47.569148 
L 157.881677 -47.569148 
L 158.10839 -47.569148 
L 158.508614 -47.569148 
L 158.874825 -47.569148 
L 159.266922 -47.569148 
L 159.500989 -47.569148 
L 159.501125 -47.569148 
L 159.542969 -47.569148 
L 159.679227 -47.569148 
L 159.96043 -47.569148 
L 159.971315 -47.569148 
L 160.130749 -47.569148 
L 160.273705 -47.569148 
L 160.480018 -47.569148 
L 160.480142 -47.569148 
L 160.480226 -47.569148 
L 160.861701 -47.569148 
L 161.1075 -47.569148 
L 161.442843 -47.569148 
L 161.840868 -47.569148 
L 162.125933 -47.569148 
L 162.260097 -47.569148 
L 162.431404 -47.569148 
L 162.878885 -47.569148 
L 163.027121 -47.569148 
L 163.261248 -47.569148 
L 163.41604 -47.569148 
L 163.683477 -47.569148 
L 164.007827 -47.569148 
L 164.599675 -47.569148 
L 164.836693 -47.569148 
L 165.015367 -47.569148 
L 165.282322 -47.569148 
L 165.594698 -47.569148 
L 165.879791 -47.569148 
L 166.294935 -47.569148 
L 166.400796 -47.569148 
L 166.588393 -47.569148 
L 166.800315 -47.569148 
L 167.260124 -47.569148 
L 167.586186 -47.569148 
L 167.818164 -47.569148 
L 168.172722 -47.569148 
L 168.413333 -47.569148 
L 168.570592 -47.569148 
L 168.85798 -47.569148 
L 168.99167 -47.569148 
L 169.165213 -47.569148 
L 169.56499 -47.569148 
L 169.565325 -47.569148 
L 169.759644 -47.569148 
L 169.987074 -47.569148 
L 170.161336 -47.569148 
L 170.560572 -47.569148 
L 170.78434 -47.569148 
L 170.812998 -47.569148 
L 171.152475 -47.569148 
L 171.745633 -47.569148 
L 172.002234 -47.569148 
L 172.735419 -47.569148 
L 172.983253 -47.569148 
L 173.136825 -47.569148 
L 173.420543 -47.569148 
L 173.563317 -47.569148 
L 173.729142 -47.569148 
L 174.13649 -47.569148 
L 174.327528 -47.569148 
L 174.557439 -47.569148 
L 174.722834 -47.569148 
L 174.992482 -47.569148 
L 175.330247 -47.569148 
L 175.33046 -47.569148 
L 175.556816 -47.569148 
L 175.728413 -47.569148 
L 176.316096 -47.569148 
L 176.578346 -47.569148 
L 176.912636 -47.569148 
L 177.140235 -47.569148 
L 177.314118 -47.569148 
L 177.59195 -47.569148 
L 178.310915 -47.569148 
L 178.548762 -47.569148 
L 178.548842 -47.569148 
L 178.711209 -47.569148 
L 178.894018 -47.569148 
L 179.142057 -47.569148 
L 179.292041 -47.569148 
L 179.488422 -47.569148 
L 180.145951 -47.569148 
L 180.284552 -47.569148 
L 180.722788 -47.569148 
L 180.878953 -47.569148 
L 181.121571 -47.569148 
L 181.121625 -47.569148 
L 181.475942 -47.569148 
L 181.872203 -47.569148 
L 182.132407 -47.569148 
L 182.538955 -47.569148 
L 182.53906 -47.569148 
L 182.718621 -47.569148 
L 183.458821 -47.569148 
L 183.728064 -47.569148 
L 184.055172 -47.569148 
L 184.287404 -47.569148 
L 184.470144 -47.569148 
L 184.719255 -47.569148 
L 184.86781 -47.569148 
L 185.451159 -47.569148 
L 185.659125 -47.569148 
L 185.659223 -47.569148 
L 186.043897 -47.569148 
L 186.451061 -47.569148 
L 186.728006 -47.569148 
L 186.867955 -47.569148 
L 187.064964 -47.569148 
L 187.299782 -47.569148 
L 187.44215 -47.569148 
L 187.64108 -47.569148 
L 187.865135 -47.569148 
L 188.039125 -47.569148 
L 188.269028 -47.569148 
L 188.438501 -47.569148 
L 188.637497 -47.569148 
L 188.880567 -47.569148 
L 189.044517 -47.569148 
L 189.302626 -47.569148 
L 189.727006 -47.569148 
L 190.034676 -47.569148 
L 190.297289 -47.569148 
L 190.445125 -47.569148 
L 190.628287 -47.569148 
L 190.882172 -47.569148 
L 191.214145 -47.569148 
L 191.447961 -47.569148 
L 191.662094 -47.569148 
L 191.743226 -47.569148 
L 191.746233 -47.569148 
L 191.880578 -47.569148 
L 192.031604 -47.569148 
L 192.207756 -47.569148 
L 192.608758 -47.569148 
L 192.856352 -47.569148 
L 192.856374 -47.569148 
L 193.20798 -47.569148 
L 193.449697 -47.569148 
L 193.626963 -47.569148 
L 193.873674 -47.569148 
L 194.456741 -47.569148 
L 194.801463 -47.569148 
L 194.801599 -47.569148 
L 194.801982 -47.569148 
L 194.897746 -47.569148 
L 195.195403 -47.569148 
L 195.454936 -47.569148 
L 195.599922 -47.569148 
L 195.789903 -47.569148 
L 196.20482 -47.569148 
L 196.463578 -47.569148 
L 196.783622 -47.569148 
L 197.185549 -47.569148 
L 197.432111 -47.569148 
L 197.779886 -47.569148 
L 197.999302 -47.569148 
L 198.201384 -47.569148 
L 198.456173 -47.569148 
L 198.596669 -47.569148 
L 198.78141 -47.569148 
L 199.042476 -47.569148 
L 199.375181 -47.569148 
L 199.771204 -47.569148 
L 200.034147 -47.569148 
L 200.370852 -47.569148 
L 200.802702 -47.569148 
L 201.364502 -47.569148 
L 201.621724 -47.569148 
L 202.049106 -47.569148 
L 202.353127 -47.569148 
L 202.575188 -47.569148 
L 202.575268 -47.569148 
L 202.768005 -47.569148 
L 202.949109 -47.569148 
L 203.348353 -47.569148 
L 203.614182 -47.569148 
L 203.94876 -47.569148 
L 204.176047 -47.569148 
L 204.334219 -47.569148 
L 204.529242 -47.569148 
L 204.529315 -47.569148 
L 204.529612 -47.569148 
L 204.92589 -47.569148 
L 205.183561 -47.569148 
L 205.570721 -47.569148 
L 205.723245 -47.569148 
L 205.725582 -47.569148 
L 205.72679 -47.569148 
L 205.750537 -47.569148 
L 205.924788 -47.569148 
L 206.182448 -47.569148 
L 206.319666 -47.569148 
L 206.511332 -47.569148 
L 206.905582 -47.569148 
L 207.115146 -47.569148 
L 207.115698 -47.569148 
L 207.181986 -47.569148 
L 207.503759 -47.569148 
L 207.904723 -47.569148 
L 207.909679 -47.569148 
L 208.099527 -47.569148 
L 208.498319 -47.569148 
L 208.759971 -47.569148 
L 209.097973 -47.569148 
L 209.493794 -47.569148 
L 209.754014 -47.569148 
L 210.090812 -47.569148 
L 210.491361 -47.569148 
L 210.75366 -47.569148 
L 210.902934 -47.569148 
L 211.091096 -47.569148 
L 211.485787 -47.569148 
L 211.768802 -47.569148 
L 211.918348 -47.569148 
L 212.083045 -47.569148 
L 212.34612 -47.569148 
L 212.679168 -47.569148 
L 212.90973 -47.569148 
L 213.083532 -47.569148 
L 213.34209 -47.569148 
L 213.675468 -47.569148 
L 214.073517 -47.569148 
L 214.309903 -47.569148 
L 214.310104 -47.569148 
L 214.497613 -47.569148 
L 214.673326 -47.569148 
L 214.912885 -47.569148 
L 215.068577 -47.569148 
L 215.320001 -47.569148 
L 215.67023 -47.569148 
L 216.335578 -47.569148 
L 216.492736 -47.569148 
L 216.666697 -47.569148 
L 216.917749 -47.569148 
L 217.329426 -47.569148 
L 217.329447 -47.569148 
L 217.329462 -47.569148 
L 217.338526 -47.569148 
L 217.665066 -47.569148 
L 218.348664 -47.569148 
L 218.664721 -47.569148 
L 218.908943 -47.569148 
L 219.247912 -47.569148 
L 219.491238 -47.569148 
L 219.644338 -47.569148 
L 219.935671 -47.569148 
L 220.240889 -47.569148 
L 220.829343 -47.569148 
L 221.074545 -47.569148 
L 221.22853 -47.569148 
L 221.498721 -47.569148 
L 221.824264 -47.569148 
L 222.220043 -47.569148 
L 222.444132 -47.569148 
L 222.82514 -47.569148 
L 223.219848 -47.569148 
L 223.494911 -47.569148 
L 223.639444 -47.569148 
L 223.814225 -47.569148 
L 224.089693 -47.569148 
L 224.213894 -47.569148 
L 224.408762 -47.569148 
L 224.658447 -47.569148 
L 224.804436 -47.569148 
L 225.398536 -47.569148 
L 226.062975 -47.569148 
L 226.389781 -47.569148 
L 226.640099 -47.569148 
L 227.0765 -47.569148 
L 227.216322 -47.569148 
L 227.387422 -47.569148 
L 227.803132 -47.569148 
L 227.97128 -47.569148 
L 228.218274 -47.569148 
L 228.369199 -47.569148 
L 228.588053 -47.569148 
L 228.969889 -47.569148 
L 229.365288 -47.569148 
L 229.627962 -47.569148 
L 229.960053 -47.569148 
L 230.218393 -47.569148 
L 230.558779 -47.569148 
L 230.797635 -47.569148 
L 230.79868 -47.569148 
L 230.949846 -47.569148 
L 231.551961 -47.569148 
L 231.801446 -47.569148 
L 231.939594 -47.569148 
L 232.537957 -47.569148 
L 232.804622 -47.569148 
L 233.131197 -47.569148 
L 233.363502 -47.569148 
L 233.530297 -47.569148 
L 233.813175 -47.569148 
L 234.226818 -47.569148 
L 234.392224 -47.569148 
L 234.795261 -47.569148 
L 235.125805 -47.569148 
L 235.380947 -47.569148 
L 235.529499 -47.569148 
L 236.117394 -47.569148 
L 236.383284 -47.569148 
L 236.513867 -47.569148 
L 237.110291 -47.569148 
L 237.383346 -47.569148 
L 237.515197 -47.569148 
L 237.708626 -47.569148 
L 238.094429 -47.569148 
L 238.29216 -47.569148 
L 238.949801 -47.569148 
L 239.286164 -47.569148 
L 239.513332 -47.569148 
L 239.682585 -47.569148 
L 239.942672 -47.569148 
L 240.274324 -47.569148 
L 240.516868 -47.569148 
L 240.691823 -47.569148 
L 240.951698 -47.569148 
L 241.270804 -47.569148 
L 241.523896 -47.569148 
L 241.865144 -47.569148 
L 242.120366 -47.569148 
L 242.263119 -47.569148 
L 242.487927 -47.569148 
L 242.860225 -47.569148 
L 243.086603 -47.569148 
L 243.353632 -47.569148 
L 243.526415 -47.569148 
L 243.852519 -47.569148 
L 243.852849 -47.569148 
L 244.249183 -47.569148 
L 244.847486 -47.569148 
L 245.076747 -47.569148 
L 245.076785 -47.569148 
L 245.0769 -47.569148 
L 245.27243 -47.569148 
L 245.476927 -47.569148 
L 245.480438 -47.569148 
L 245.847357 -47.569148 
L 246.085541 -47.569148 
L 246.085876 -47.569148 
L 246.446059 -47.569148 
L 246.83753 -47.569148 
L 247.105831 -47.569148 
L 247.437201 -47.569148 
L 247.437331 -47.569148 
L 247.874184 -47.569148 
L 247.874231 -47.569148 
L 248.104396 -47.569148 
L 248.432429 -47.569148 
L 248.676447 -47.569148 
L 248.677459 -47.569148 
L 249.101162 -47.569148 
L 249.434284 -47.569148 
L 249.679335 -47.569148 
L 249.847305 -47.569148 
L 250.015122 -47.569148 
L 250.242387 -47.569148 
L 250.416985 -47.569148 
L 250.680354 -47.569148 
L 251.013573 -47.569148 
L 251.412176 -47.569148 
L 252.012896 -47.569148 
L 252.24593 -47.569148 
L 252.249183 -47.569148 
L 252.446092 -47.569148 
L 252.697742 -47.569148 
L 253.002832 -47.569148 
L 253.278866 -47.569148 
L 253.669625 -47.569148 
L 253.66971 -47.569148 
L 253.670002 -47.569148 
L 253.69256 -47.569148 
L 253.988737 -47.569148 
L 254.254681 -47.569148 
L 254.424346 -47.569148 
L 254.58043 -47.569148 
L 254.826653 -47.569148 
L 254.981116 -47.569148 
L 255.250691 -47.569148 
L 255.583627 -47.569148 
L 255.583727 -47.569148 
L 255.83698 -47.569148 
L 256.008147 -47.569148 
L 256.263512 -47.569148 
L 256.580995 -47.569148 
L 256.823485 -47.569148 
L 257.0284 -47.569148 
L 257.18803 -47.569148 
L 257.188668 -47.569148 
L 257.400984 -47.569148 
L 257.576642 -47.569148 
L 257.841146 -47.569148 
L 257.978367 -47.569148 
L 258.166954 -47.569148 
L 258.560622 -47.569148 
L 258.793834 -47.569148 
L 258.983265 -47.569148 
L 259.155344 -47.569148 
L 259.424694 -47.569148 
L 259.753076 -47.569148 
L 260.151196 -47.569148 
L 260.42391 -47.569148 
L 260.750189 -47.569148 
L 261.137586 -47.569148 
L 261.417848 -47.569148 
L 261.553024 -47.569148 
L 261.734321 -47.569148 
L 261.984169 -47.569148 
L 262.129845 -47.569148 
L 262.431782 -47.569148 
L 262.574395 -47.569148 
L 262.726746 -47.569148 
L 262.983828 -47.569148 
L 263.127367 -47.569148 
L 263.319774 -47.569148 
L 263.564271 -47.569148 
L 263.716442 -47.569148 
L 263.976186 -47.569148 
L 264.123217 -47.569148 
L 264.316088 -47.569148 
L 264.720609 -47.569148 
L 264.991683 -47.569148 
L 265.320206 -47.569148 
L 265.716951 -47.569148 
L 265.717171 -47.569148 
L 265.996271 -47.569148 
L 266.146513 -47.569148 
L 266.323031 -47.569148 
L 266.721029 -47.569148 
L 266.981037 -47.569148 
L 267.323733 -47.569148 
L 267.713525 -47.569148 
L 267.713748 -47.569148 
L 267.714109 -47.569148 
L 267.99495 -47.569148 
L 268.307872 -47.569148 
L 268.565721 -47.569148 
L 268.903587 -47.569148 
L 269.302938 -47.569148 
L 269.567708 -47.569148 
L 269.899862 -47.569148 
L 270.299622 -47.569148 
L 270.56708 -47.569148 
L 270.567103 -47.569148 
L 270.857641 -47.569148 
L 270.892771 -47.569148 
L 271.290359 -47.569148 
L 271.560085 -47.569148 
L 271.886477 -47.569148 
L 272.484503 -47.569148 
L 272.887783 -47.569148 
L 273.138943 -47.569148 
L 273.287461 -47.569148 
L 273.471965 -47.569148 
L 273.47211 -47.569148 
L 273.70682 -47.569148 
L 273.871197 -47.569148 
L 274.469952 -47.569148 
L 275.120826 -47.569148 
L 275.121028 -47.569148 
L 275.149015 -47.569148 
L 275.452482 -47.569148 
L 275.714535 -47.569148 
L 276.048215 -47.569148 
L 276.29925 -47.569148 
L 277.04452 -47.569148 
L 277.443135 -47.569148 
L 277.63861 -47.569148 
L 277.867975 -47.569148 
L 278.036878 -47.569148 
L 278.284572 -47.569148 
L 278.437881 -47.569148 
L 278.631452 -47.569148 
L 278.875976 -47.569148 
L 279.026674 -47.569148 
L 279.437771 -47.569148 
L 279.616018 -47.569148 
L 280.015537 -47.569148 
L 280.299954 -47.569148 
L 280.612355 -47.569148 
L 280.882134 -47.569148 
L 281.010324 -47.569148 
L 281.300941 -47.569148 
L 281.440805 -47.569148 
L 281.865877 -47.569148 
L 282.202249 -47.569148 
L 282.442623 -47.569148 
L 282.875403 -47.569148 
L 283.199264 -47.569148 
L 283.445885 -47.569148 
L 283.446014 -47.569148 
L 283.593122 -47.569148 
L 284.193438 -47.569148 
L 284.480862 -47.569148 
L 284.790489 -47.569148 
L 285.020996 -47.569148 
L 285.176353 -47.569148 
L 285.458985 -47.569148 
L 286.011275 -47.569148 
L 286.170062 -47.569148 
L 286.424 -47.569148 
L 286.763424 -47.569148 
L 287.013847 -47.569148 
L 287.162979 -47.569148 
L 287.164024 -47.569148 
L 287.362655 -47.569148 
L 287.362983 -47.569148 
L 287.591833 -47.569148 
L 287.766117 -47.569148 
L 288.024716 -47.569148 
L 288.758789 -47.569148 
L 289.014373 -47.569148 
L 289.355484 -47.569148 
L 289.560058 -47.569148 
L 289.746954 -47.569148 
L 290.01462 -47.569148 
L 290.361241 -47.569148 
L 290.601507 -47.569148 
L 290.742177 -47.569148 
L 290.948905 -47.569148 
L 290.949109 -47.569148 
L 290.949553 -47.569148 
L 291.037803 -47.569148 
L 291.340087 -47.569148 
L 291.599872 -47.569148 
L 291.933349 -47.569148 
L 291.933548 -47.569148 
L 292.18779 -47.569148 
L 292.341808 -47.569148 
L 292.602419 -47.569148 
L 293.196014 -47.569148 
L 293.328473 -47.569148 
L 293.596174 -47.569148 
L 293.927717 -47.569148 
L 294.182321 -47.569148 
L 294.323736 -47.569148 
L 294.516563 -47.569148 
L 294.939194 -47.569148 
L 295.199175 -47.569148 
L 295.512081 -47.569148 
L 295.754187 -47.569148 
L 296.181299 -47.569148 
L 296.501429 -47.569148 
L 296.744598 -47.569148 
L 296.920157 -47.569148 
L 297.115742 -47.569148 
L 297.198067 -47.569148 
L 297.512055 -47.569148 
L 297.748192 -47.569148 
L 297.893628 -47.569148 
L 298.086862 -47.569148 
L 298.581937 -47.569148 
L 298.585025 -47.569148 
L 298.75459 -47.569148 
L 299.083449 -47.569148 
L 299.343409 -47.569148 
L 299.516369 -47.569148 
L 299.738943 -47.569148 
L 299.739032 -47.569148 
L 299.739155 -47.569148 
L 299.740042 -47.569148 
L 299.887364 -47.569148 
L 300.071648 -47.569148 
L 300.329012 -47.569148 
L 300.671279 -47.569148 
L 301.06414 -47.569148 
L 301.32289 -47.569148 
L 301.479015 -47.569148 
L 301.667176 -47.569148 
L 301.668331 -47.569148 
L 302.289221 -47.569148 
L 302.28933 -47.569148 
L 302.289491 -47.569148 
L 302.329359 -47.569148 
L 302.654837 -47.569148 
L 302.905703 -47.569148 
L 303.053947 -47.569148 
L 303.337168 -47.569148 
L 303.647245 -47.569148 
L 303.904393 -47.569148 
L 304.076504 -47.569148 
L 304.239071 -47.569148 
L 304.639616 -47.569148 
L 304.908734 -47.569148 
L 304.908833 -47.569148 
L 305.236303 -47.569148 
L 305.634999 -47.569148 
L 305.923237 -47.569148 
L 306.052122 -47.569148 
L 306.23393 -47.569148 
L 306.460455 -47.569148 
L 306.635445 -47.569148 
L 306.884328 -47.569148 
L 306.884398 -47.569148 
L 306.899017 -47.569148 
L 307.049097 -47.569148 
L 307.216436 -47.569148 
L 307.456346 -47.569148 
L 307.456371 -47.569148 
L 307.814741 -47.569148 
L 308.211421 -47.569148 
L 308.472989 -47.569148 
L 308.80317 -47.569148 
L 309.053041 -47.569148 
L 309.395773 -47.569148 
L 310.390001 -47.569148 
L 310.789214 -47.569148 
L 311.011482 -47.569148 
L 311.014508 -47.569148 
L 311.384318 -47.569148 
L 311.780342 -47.569148 
L 312.378665 -47.569148 
L 312.378665 -219.114602 
L 312.378665 -219.114602 
L 311.780342 -219.114602 
L 311.384318 -219.114602 
L 311.014508 -218.538517 
L 311.011482 -218.538517 
L 310.789214 -218.538517 
L 310.390001 -218.218469 
L 309.395773 -218.09045 
L 309.053041 -217.514365 
L 308.80317 -217.514365 
L 308.472989 -216.87427 
L 308.211421 -216.87427 
L 307.814741 -216.81026 
L 307.456371 -216.81026 
L 307.456346 -216.81026 
L 307.216436 -216.682241 
L 307.049097 -216.682241 
L 306.899017 -216.682241 
L 306.884398 -216.682241 
L 306.884328 -216.682241 
L 306.635445 -216.490213 
L 306.460455 -216.490213 
L 306.23393 -216.490213 
L 306.052122 -216.490213 
L 305.923237 -215.850118 
L 305.634999 -215.850118 
L 305.236303 -215.466061 
L 304.908833 -215.466061 
L 304.908734 -215.466061 
L 304.639616 -215.017994 
L 304.239071 -215.017994 
L 304.076504 -215.017994 
L 303.904393 -214.697947 
L 303.647245 -214.697947 
L 303.337168 -214.441909 
L 303.053947 -214.441909 
L 302.905703 -214.441909 
L 302.654837 -213.865823 
L 302.329359 -213.865823 
L 302.289491 -213.865823 
L 302.28933 -213.865823 
L 302.289221 -213.865823 
L 301.668331 -213.737804 
L 301.667176 -213.737804 
L 301.479015 -213.737804 
L 301.32289 -213.097709 
L 301.06414 -213.097709 
L 300.671279 -212.96969 
L 300.329012 -212.96969 
L 300.071648 -212.841671 
L 299.887364 -212.841671 
L 299.740042 -212.841671 
L 299.739155 -212.841671 
L 299.739032 -212.841671 
L 299.738943 -212.841671 
L 299.516369 -212.841671 
L 299.343409 -212.585633 
L 299.083449 -212.585633 
L 298.75459 -212.009548 
L 298.585025 -212.009548 
L 298.581937 -212.009548 
L 298.086862 -211.433463 
L 297.893628 -211.433463 
L 297.748192 -211.433463 
L 297.512055 -210.729358 
L 297.198067 -210.729358 
L 297.115742 -210.729358 
L 296.920157 -210.729358 
L 296.744598 -210.729358 
L 296.501429 -210.729358 
L 296.181299 -210.153273 
L 295.754187 -210.153273 
L 295.512081 -209.449168 
L 295.199175 -209.449168 
L 294.939194 -209.449168 
L 294.516563 -208.873083 
L 294.323736 -208.873083 
L 294.182321 -208.873083 
L 293.927717 -208.873083 
L 293.596174 -208.809073 
L 293.328473 -208.809073 
L 293.196014 -208.809073 
L 292.602419 -208.681054 
L 292.341808 -208.681054 
L 292.18779 -208.361007 
L 291.933548 -208.361007 
L 291.933349 -208.361007 
L 291.599872 -207.720912 
L 291.340087 -207.720912 
L 291.037803 -207.400864 
L 290.949553 -207.400864 
L 290.949109 -207.400864 
L 290.948905 -207.400864 
L 290.742177 -207.400864 
L 290.601507 -207.400864 
L 290.361241 -207.400864 
L 290.01462 -206.824779 
L 289.746954 -206.824779 
L 289.560058 -206.376712 
L 289.355484 -206.376712 
L 289.014373 -205.800627 
L 288.758789 -205.800627 
L 288.024716 -205.544589 
L 287.766117 -205.544589 
L 287.591833 -204.904494 
L 287.362983 -204.904494 
L 287.362655 -204.904494 
L 287.164024 -204.904494 
L 287.162979 -204.904494 
L 287.013847 -204.776475 
L 286.763424 -204.776475 
L 286.424 -204.456427 
L 286.170062 -204.456427 
L 286.011275 -204.456427 
L 285.458985 -204.13638 
L 285.176353 -204.13638 
L 285.020996 -203.560294 
L 284.790489 -203.560294 
L 284.480862 -202.984209 
L 284.193438 -202.984209 
L 283.593122 -202.600152 
L 283.446014 -202.600152 
L 283.445885 -202.600152 
L 283.199264 -202.600152 
L 282.875403 -202.408123 
L 282.442623 -202.088076 
L 282.202249 -202.088076 
L 281.865877 -201.960057 
L 281.440805 -201.960057 
L 281.300941 -201.960057 
L 281.010324 -201.768028 
L 280.882134 -201.768028 
L 280.612355 -201.768028 
L 280.299954 -201.576 
L 280.015537 -201.576 
L 279.616018 -200.999914 
L 279.437771 -200.999914 
L 279.026674 -200.807886 
L 278.875976 -200.807886 
L 278.631452 -200.807886 
L 278.437881 -200.359819 
L 278.284572 -200.359819 
L 278.036878 -200.359819 
L 277.867975 -199.719724 
L 277.63861 -199.719724 
L 277.443135 -199.719724 
L 277.04452 -199.399677 
L 276.29925 -198.823591 
L 276.048215 -198.823591 
L 275.714535 -198.567553 
L 275.452482 -198.567553 
L 275.149015 -198.439534 
L 275.121028 -198.439534 
L 275.120826 -198.439534 
L 274.469952 -198.311515 
L 273.871197 -198.311515 
L 273.70682 -198.311515 
L 273.47211 -198.311515 
L 273.471965 -198.311515 
L 273.287461 -197.543401 
L 273.138943 -197.543401 
L 272.887783 -197.543401 
L 272.484503 -197.159344 
L 271.886477 -196.711278 
L 271.560085 -196.711278 
L 271.290359 -196.071183 
L 270.892771 -196.071183 
L 270.857641 -195.303069 
L 270.567103 -195.303069 
L 270.56708 -195.303069 
L 270.299622 -195.303069 
L 269.899862 -195.23906 
L 269.567708 -195.23906 
L 269.302938 -195.111041 
L 268.903587 -195.111041 
L 268.565721 -194.983022 
L 268.307872 -194.983022 
L 267.99495 -194.662974 
L 267.714109 -194.662974 
L 267.713748 -194.662974 
L 267.713525 -194.662974 
L 267.323733 -194.086889 
L 266.981037 -194.086889 
L 266.721029 -193.510803 
L 266.323031 -193.510803 
L 266.146513 -193.254765 
L 265.996271 -193.254765 
L 265.717171 -193.254765 
L 265.716951 -193.254765 
L 265.320206 -193.190756 
L 264.991683 -193.190756 
L 264.720609 -192.550661 
L 264.316088 -192.550661 
L 264.123217 -192.358632 
L 263.976186 -192.358632 
L 263.716442 -192.358632 
L 263.564271 -192.166604 
L 263.319774 -192.166604 
L 263.127367 -192.166604 
L 262.983828 -192.166604 
L 262.726746 -191.590518 
L 262.574395 -191.590518 
L 262.431782 -191.590518 
L 262.129845 -191.462499 
L 261.984169 -191.462499 
L 261.734321 -191.462499 
L 261.553024 -191.206461 
L 261.417848 -191.206461 
L 261.137586 -191.206461 
L 260.750189 -191.142452 
L 260.42391 -191.142452 
L 260.151196 -190.694385 
L 259.753076 -190.694385 
L 259.424694 -190.1183 
L 259.155344 -190.1183 
L 258.983265 -190.1183 
L 258.793834 -189.478205 
L 258.560622 -189.478205 
L 258.166954 -189.350186 
L 257.978367 -189.350186 
L 257.841146 -189.350186 
L 257.576642 -188.966129 
L 257.400984 -188.966129 
L 257.188668 -188.966129 
L 257.18803 -188.966129 
L 257.0284 -188.83811 
L 256.823485 -188.83811 
L 256.580995 -188.83811 
L 256.263512 -188.582072 
L 256.008147 -188.582072 
L 255.83698 -188.582072 
L 255.583727 -187.813958 
L 255.583627 -187.813958 
L 255.250691 -187.813958 
L 254.981116 -187.237872 
L 254.826653 -187.237872 
L 254.58043 -187.237872 
L 254.424346 -187.237872 
L 254.254681 -186.661787 
L 253.988737 -186.661787 
L 253.69256 -186.469758 
L 253.670002 -186.469758 
L 253.66971 -186.469758 
L 253.669625 -186.469758 
L 253.278866 -186.469758 
L 253.002832 -185.829663 
L 252.697742 -185.829663 
L 252.446092 -185.829663 
L 252.249183 -185.445606 
L 252.24593 -185.445606 
L 252.012896 -185.445606 
L 251.412176 -184.869521 
L 251.013573 -184.229426 
L 250.680354 -184.229426 
L 250.416985 -184.229426 
L 250.242387 -184.229426 
L 250.015122 -184.229426 
L 249.847305 -184.229426 
L 249.679335 -184.229426 
L 249.434284 -184.229426 
L 249.101162 -183.845369 
L 248.677459 -183.845369 
L 248.676447 -183.845369 
L 248.432429 -183.525321 
L 248.104396 -183.525321 
L 247.874231 -183.525321 
L 247.874184 -183.525321 
L 247.437331 -183.525321 
L 247.437201 -183.525321 
L 247.105831 -183.397302 
L 246.83753 -183.397302 
L 246.446059 -183.397302 
L 246.085876 -183.397302 
L 246.085541 -183.397302 
L 245.847357 -183.333293 
L 245.480438 -183.333293 
L 245.476927 -183.333293 
L 245.27243 -183.333293 
L 245.0769 -183.269283 
L 245.076785 -183.269283 
L 245.076747 -183.269283 
L 244.847486 -183.269283 
L 244.249183 -183.141264 
L 243.852849 -182.949236 
L 243.852519 -182.949236 
L 243.526415 -182.949236 
L 243.353632 -182.949236 
L 243.086603 -182.629188 
L 242.860225 -182.629188 
L 242.487927 -181.989093 
L 242.263119 -181.989093 
L 242.120366 -181.989093 
L 241.865144 -181.861074 
L 241.523896 -181.861074 
L 241.270804 -181.348998 
L 240.951698 -181.348998 
L 240.691823 -181.348998 
L 240.516868 -181.220979 
L 240.274324 -181.220979 
L 239.942672 -180.964941 
L 239.682585 -180.964941 
L 239.513332 -180.964941 
L 239.286164 -180.452866 
L 238.949801 -180.452866 
L 238.29216 -180.132818 
L 238.094429 -180.132818 
L 237.708626 -179.364704 
L 237.515197 -179.364704 
L 237.383346 -178.916638 
L 237.110291 -178.916638 
L 236.513867 -178.020505 
L 236.383284 -178.020505 
L 236.117394 -178.020505 
L 235.529499 -177.3164 
L 235.380947 -176.996353 
L 235.125805 -176.996353 
L 234.795261 -176.292248 
L 234.392224 -176.292248 
L 234.226818 -176.292248 
L 233.813175 -176.164229 
L 233.530297 -176.164229 
L 233.363502 -176.10022 
L 233.131197 -176.10022 
L 232.804622 -175.524134 
L 232.537957 -175.524134 
L 231.939594 -175.140077 
L 231.801446 -175.140077 
L 231.551961 -175.140077 
L 230.949846 -174.563992 
L 230.79868 -174.499982 
L 230.797635 -174.499982 
L 230.558779 -174.499982 
L 230.218393 -173.859887 
L 229.960053 -173.859887 
L 229.627962 -173.859887 
L 229.365288 -173.283802 
L 228.969889 -173.283802 
L 228.588053 -172.707716 
L 228.369199 -172.707716 
L 228.218274 -172.707716 
L 227.97128 -172.707716 
L 227.803132 -172.707716 
L 227.387422 -172.451678 
L 227.216322 -172.451678 
L 227.0765 -172.451678 
L 226.640099 -172.067621 
L 226.389781 -172.067621 
L 226.062975 -171.491536 
L 225.398536 -170.97946 
L 224.804436 -170.275355 
L 224.658447 -170.275355 
L 224.408762 -170.275355 
L 224.213894 -169.63526 
L 224.089693 -169.63526 
L 223.814225 -169.63526 
L 223.639444 -168.995165 
L 223.494911 -168.995165 
L 223.219848 -168.995165 
L 222.82514 -168.611108 
L 222.444132 -168.611108 
L 222.220043 -168.547099 
L 221.824264 -168.547099 
L 221.498721 -167.907004 
L 221.22853 -167.907004 
L 221.074545 -167.907004 
L 220.829343 -167.714975 
L 220.240889 -167.650966 
L 219.935671 -167.650966 
L 219.644338 -167.07488 
L 219.491238 -167.07488 
L 219.247912 -167.07488 
L 218.908943 -166.818842 
L 218.664721 -166.818842 
L 218.348664 -166.178747 
L 217.665066 -165.8587 
L 217.338526 -165.8587 
L 217.329462 -165.8587 
L 217.329447 -165.8587 
L 217.329426 -165.8587 
L 216.917749 -165.282614 
L 216.666697 -165.282614 
L 216.492736 -165.282614 
L 216.335578 -165.218605 
L 215.67023 -165.026576 
L 215.320001 -165.026576 
L 215.068577 -164.64252 
L 214.912885 -164.64252 
L 214.673326 -164.64252 
L 214.497613 -163.874406 
L 214.310104 -163.874406 
L 214.309903 -163.874406 
L 214.073517 -163.874406 
L 213.675468 -163.682377 
L 213.34209 -163.682377 
L 213.083532 -163.426339 
L 212.90973 -163.426339 
L 212.679168 -163.426339 
L 212.34612 -163.234311 
L 212.083045 -163.234311 
L 211.918348 -163.234311 
L 211.768802 -162.914263 
L 211.485787 -162.914263 
L 211.091096 -162.722235 
L 210.902934 -162.722235 
L 210.75366 -162.722235 
L 210.491361 -162.08214 
L 210.090812 -162.08214 
L 209.754014 -161.762092 
L 209.493794 -161.762092 
L 209.097973 -161.762092 
L 208.759971 -161.762092 
L 208.498319 -161.186007 
L 208.099527 -161.186007 
L 207.909679 -160.80195 
L 207.904723 -160.80195 
L 207.503759 -160.80195 
L 207.181986 -160.225864 
L 207.115698 -160.225864 
L 207.115146 -160.225864 
L 206.905582 -160.225864 
L 206.511332 -159.969826 
L 206.319666 -159.969826 
L 206.182448 -159.969826 
L 205.924788 -159.393741 
L 205.750537 -159.393741 
L 205.72679 -159.393741 
L 205.725582 -159.393741 
L 205.723245 -159.393741 
L 205.570721 -159.393741 
L 205.183561 -159.009684 
L 204.92589 -159.009684 
L 204.529612 -158.689636 
L 204.529315 -158.689636 
L 204.529242 -158.689636 
L 204.334219 -158.689636 
L 204.176047 -158.689636 
L 203.94876 -158.369589 
L 203.614182 -158.369589 
L 203.348353 -157.793503 
L 202.949109 -157.793503 
L 202.768005 -157.793503 
L 202.575268 -157.473456 
L 202.575188 -157.473456 
L 202.353127 -157.473456 
L 202.049106 -157.473456 
L 201.621724 -157.473456 
L 201.364502 -156.833361 
L 200.802702 -156.833361 
L 200.370852 -156.705342 
L 200.034147 -156.257275 
L 199.771204 -156.257275 
L 199.375181 -156.065247 
L 199.042476 -156.065247 
L 198.78141 -155.425152 
L 198.596669 -155.425152 
L 198.456173 -155.425152 
L 198.201384 -155.425152 
L 197.999302 -155.041095 
L 197.779886 -155.041095 
L 197.432111 -154.465009 
L 197.185549 -154.465009 
L 196.783622 -154.144962 
L 196.463578 -154.144962 
L 196.20482 -154.144962 
L 195.789903 -153.504867 
L 195.599922 -153.504867 
L 195.454936 -153.440857 
L 195.195403 -153.440857 
L 194.897746 -153.248829 
L 194.801982 -153.248829 
L 194.801599 -153.248829 
L 194.801463 -153.248829 
L 194.456741 -153.248829 
L 193.873674 -152.672743 
L 193.626963 -152.672743 
L 193.449697 -152.352696 
L 193.20798 -152.352696 
L 192.856374 -152.160667 
L 192.856352 -152.160667 
L 192.608758 -152.160667 
L 192.207756 -151.712601 
L 192.031604 -151.712601 
L 191.880578 -151.712601 
L 191.746233 -151.712601 
L 191.743226 -151.712601 
L 191.662094 -151.712601 
L 191.447961 -151.584582 
L 191.214145 -151.584582 
L 190.882172 -151.264534 
L 190.628287 -151.264534 
L 190.445125 -151.264534 
L 190.297289 -150.624439 
L 190.034676 -150.624439 
L 189.727006 -150.368401 
L 189.302626 -150.368401 
L 189.044517 -150.368401 
L 188.880567 -150.176373 
L 188.637497 -150.176373 
L 188.438501 -150.176373 
L 188.269028 -150.048354 
L 188.039125 -150.048354 
L 187.865135 -150.048354 
L 187.64108 -149.408259 
L 187.44215 -149.408259 
L 187.299782 -149.408259 
L 187.064964 -149.408259 
L 186.867955 -148.832174 
L 186.728006 -148.832174 
L 186.451061 -148.832174 
L 186.043897 -148.768164 
L 185.659223 -148.512126 
L 185.659125 -148.512126 
L 185.451159 -148.512126 
L 184.86781 -148.320098 
L 184.719255 -148.320098 
L 184.470144 -148.320098 
L 184.287404 -147.936041 
L 184.055172 -147.936041 
L 183.728064 -147.551984 
L 183.458821 -147.551984 
L 182.718621 -147.551984 
L 182.53906 -147.551984 
L 182.538955 -147.551984 
L 182.132407 -147.487974 
L 181.872203 -147.487974 
L 181.475942 -146.911889 
L 181.121625 -146.591841 
L 181.121571 -146.591841 
L 180.878953 -146.591841 
L 180.722788 -146.591841 
L 180.284552 -146.143775 
L 180.145951 -146.143775 
L 179.488422 -145.759718 
L 179.292041 -145.759718 
L 179.142057 -145.695708 
L 178.894018 -145.695708 
L 178.711209 -145.695708 
L 178.548842 -145.055613 
L 178.548762 -145.055613 
L 178.310915 -145.055613 
L 177.59195 -144.991604 
L 177.314118 -144.991604 
L 177.140235 -144.351509 
L 176.912636 -144.351509 
L 176.578346 -144.287499 
L 176.316096 -144.287499 
L 175.728413 -144.22349 
L 175.556816 -144.22349 
L 175.33046 -144.22349 
L 175.330247 -144.22349 
L 174.992482 -144.22349 
L 174.722834 -144.22349 
L 174.557439 -144.031461 
L 174.327528 -144.031461 
L 174.13649 -144.031461 
L 173.729142 -143.391366 
L 173.563317 -143.391366 
L 173.420543 -143.391366 
L 173.136825 -143.199338 
L 172.983253 -143.199338 
L 172.735419 -143.199338 
L 172.002234 -142.367214 
L 171.745633 -142.367214 
L 171.152475 -141.791129 
L 170.812998 -141.791129 
L 170.78434 -141.791129 
L 170.560572 -141.791129 
L 170.161336 -141.791129 
L 169.987074 -141.471081 
L 169.759644 -141.471081 
L 169.565325 -141.471081 
L 169.56499 -141.471081 
L 169.165213 -140.702967 
L 168.99167 -140.702967 
L 168.85798 -140.702967 
L 168.570592 -140.574948 
L 168.413333 -140.574948 
L 168.172722 -140.574948 
L 167.818164 -140.38292 
L 167.586186 -140.38292 
L 167.260124 -140.062872 
L 166.800315 -140.062872 
L 166.588393 -139.422777 
L 166.400796 -139.422777 
L 166.294935 -139.422777 
L 165.879791 -138.718673 
L 165.594698 -138.718673 
L 165.282322 -138.078578 
L 165.015367 -138.078578 
L 164.836693 -138.078578 
L 164.599675 -137.438483 
L 164.007827 -136.862397 
L 163.683477 -136.862397 
L 163.41604 -136.47834 
L 163.261248 -136.47834 
L 163.027121 -136.47834 
L 162.878885 -136.222302 
L 162.431404 -136.222302 
L 162.260097 -136.222302 
L 162.125933 -135.518198 
L 161.840868 -135.518198 
L 161.442843 -135.390179 
L 161.1075 -135.390179 
L 160.861701 -135.134141 
L 160.480226 -135.134141 
L 160.480142 -135.134141 
L 160.480018 -135.134141 
L 160.273705 -135.134141 
L 160.130749 -134.558055 
L 159.971315 -134.558055 
L 159.96043 -134.558055 
L 159.679227 -134.558055 
L 159.542969 -134.109989 
L 159.501125 -134.109989 
L 159.500989 -134.109989 
L 159.266922 -134.109989 
L 158.874825 -133.789941 
L 158.508614 -133.789941 
L 158.10839 -133.469894 
L 157.881677 -133.469894 
L 157.687988 -133.469894 
L 157.531794 -133.149847 
L 157.28597 -133.149847 
L 156.695471 -132.573761 
L 156.53622 -132.573761 
L 155.968487 -132.317723 
L 155.709554 -132.317723 
L 155.334499 -132.189704 
L 155.119925 -132.189704 
L 154.953142 -131.805647 
L 154.949933 -131.805647 
L 154.949742 -131.805647 
L 154.719655 -131.805647 
L 154.135829 -131.805647 
L 153.970086 -131.805647 
L 153.813021 -131.805647 
L 153.346202 -131.805647 
L 153.137561 -131.805647 
L 152.816858 -131.165552 
L 152.541011 -131.165552 
L 152.389835 -130.845505 
L 152.143214 -130.845505 
L 151.546728 -130.525457 
L 151.387459 -130.525457 
L 151.153305 -130.525457 
L 150.8069 -129.949372 
L 150.564006 -129.949372 
L 150.378148 -129.885362 
L 150.238274 -129.885362 
L 149.967087 -129.885362 
L 149.569029 -129.565315 
L 149.246975 -129.565315 
L 148.977803 -128.989229 
L 148.583099 -128.989229 
L 148.386669 -128.92522 
L 148.247464 -128.92522 
L 147.992625 -128.92522 
L 147.841132 -128.669182 
L 147.678251 -128.669182 
L 147.395532 -128.669182 
L 146.999971 -128.669182 
L 146.661766 -128.669182 
L 146.409913 -128.413144 
L 146.243943 -128.413144 
L 146.044648 -128.413144 
L 145.680611 -127.837058 
L 145.413483 -127.837058 
L 145.235134 -127.837058 
L 145.09547 -127.64503 
L 144.813359 -127.64503 
L 144.413109 -127.068944 
L 144.081789 -127.068944 
L 143.662243 -126.876916 
L 143.427553 -126.876916 
L 143.095299 -126.556868 
L 142.823689 -126.556868 
L 142.430919 -126.492859 
L 142.230735 -126.492859 
L 142.060478 -126.492859 
L 141.832593 -125.852764 
L 140.838268 -125.148659 
L 140.518226 -124.956631 
L 140.247019 -124.956631 
L 139.851686 -124.828612 
L 139.65389 -124.828612 
L 139.512636 -124.828612 
L 139.26502 -124.252526 
L 138.934565 -124.252526 
L 138.704462 -124.252526 
L 138.513469 -123.868469 
L 138.362669 -123.868469 
L 137.955835 -123.548422 
L 137.691293 -123.548422 
L 137.365897 -123.100355 
L 137.090583 -123.100355 
L 136.512353 -122.972336 
L 136.368213 -122.972336 
L 136.106977 -122.972336 
L 135.935369 -122.652289 
L 135.710714 -122.652289 
L 135.386622 -122.012194 
L 134.53083 -121.436108 
L 134.135132 -121.436108 
L 133.938005 -121.308089 
L 133.794199 -121.308089 
L 133.543924 -121.308089 
L 133.227035 -121.24408 
L 132.959579 -121.24408 
L 132.559497 -120.539975 
L 132.361179 -120.539975 
L 131.962986 -120.155918 
L 131.787758 -120.155918 
L 131.636342 -120.155918 
L 131.630484 -120.155918 
L 131.630459 -120.155918 
L 131.374609 -120.091909 
L 131.186713 -120.091909 
L 130.976274 -120.091909 
L 130.64259 -119.515823 
L 130.385284 -119.515823 
L 130.065288 -118.875728 
L 129.80043 -118.875728 
L 129.800308 -118.875728 
L 129.398148 -118.299643 
L 129.072726 -118.299643 
L 128.805009 -117.787567 
L 128.500186 -117.787567 
L 128.232691 -117.787567 
L 128.057231 -116.955444 
L 127.831488 -116.955444 
L 127.484117 -116.891434 
L 127.232378 -116.891434 
L 127.06741 -116.891434 
L 126.837342 -116.699406 
L 126.64235 -116.699406 
L 126.486344 -116.699406 
L 126.350622 -116.699406 
L 125.925308 -116.315349 
L 125.656064 -116.315349 
L 125.503783 -116.251339 
L 125.254197 -116.251339 
L 125.060411 -116.251339 
L 124.914365 -116.059311 
L 124.662568 -116.059311 
L 124.069217 -115.355206 
L 123.680626 -115.355206 
L 123.349048 -115.099168 
L 123.093658 -115.099168 
L 122.680116 -114.459073 
L 122.488976 -114.459073 
L 122.315577 -114.459073 
L 122.315394 -114.459073 
L 122.078346 -114.459073 
L 121.766711 -114.459073 
L 121.334824 -114.011007 
L 121.085623 -114.011007 
L 120.908612 -113.242893 
L 120.805209 -113.242893 
L 120.49516 -113.242893 
L 120.10704 -112.922845 
L 119.917766 -112.922845 
L 119.508816 -112.730817 
L 119.107377 -112.730817 
L 118.780124 -112.154731 
L 118.513077 -112.154731 
L 118.14295 -111.642655 
L 117.926009 -111.642655 
L 117.924908 -111.642655 
L 117.525621 -110.938551 
L 117.328937 -110.938551 
L 117.191977 -110.938551 
L 116.933762 -110.234446 
L 116.537062 -110.234446 
L 116.343243 -110.042418 
L 115.945169 -110.042418 
L 115.619171 -109.274304 
L 115.342977 -109.274304 
L 114.944936 -108.698218 
L 114.620651 -108.698218 
L 114.350628 -108.122133 
L 114.191704 -108.122133 
L 113.956737 -108.122133 
L 113.75834 -107.354019 
L 113.615895 -107.354019 
L 113.35815 -107.354019 
L 113.198213 -107.354019 
L 112.960162 -106.841943 
L 112.762045 -106.841943 
L 112.362817 -106.777933 
L 112.184375 -106.777933 
L 112.051712 -106.777933 
L 111.981321 -106.777933 
L 111.759561 -106.329867 
L 111.362892 -106.329867 
L 111.03616 -105.753781 
L 110.787831 -105.753781 
L 110.37313 -105.625762 
L 110.189168 -105.625762 
L 110.055419 -105.625762 
L 109.78346 -105.497743 
L 109.189467 -105.497743 
L 108.791454 -105.497743 
L 108.629325 -105.497743 
L 108.468813 -105.369724 
L 108.195739 -105.369724 
L 107.796679 -104.793639 
L 107.46295 -104.793639 
L 106.801558 -104.473591 
L 106.456745 -103.833496 
L 106.209671 -103.833496 
L 106.032219 -103.833496 
L 105.841538 -103.769487 
L 105.611332 -103.769487 
L 105.215967 -103.577458 
L 105.026729 -103.577458 
L 104.879486 -103.577458 
L 104.220985 -103.513449 
L 104.03889 -103.513449 
L 103.893309 -103.001373 
L 103.63173 -103.001373 
L 103.316356 -102.425287 
L 103.035998 -102.425287 
L 102.879171 -102.425287 
L 102.636698 -102.04123 
L 102.304407 -102.04123 
L 102.146877 -101.849202 
L 101.88591 -101.849202 
L 101.645643 -101.849202 
L 101.311364 -101.273117 
L 100.689455 -101.209107 
L 100.463886 -101.209107 
L 100.311812 -101.209107 
L 100.065396 -100.761041 
L 99.716788 -100.761041 
L 99.716643 -100.761041 
L 99.716514 -100.761041 
L 99.479915 -100.761041 
L 99.306609 -100.120946 
L 99.076745 -100.120946 
L 98.737718 -100.056936 
L 98.482279 -100.056936 
L 98.15665 -99.480851 
L 97.889194 -99.480851 
L 97.600712 -99.480851 
L 97.306377 -99.160803 
L 97.134985 -99.160803 
L 96.901259 -99.160803 
L 96.503978 -98.776746 
L 96.165627 -98.776746 
L 95.901808 -98.776746 
L 95.737689 -98.776746 
L 95.308613 -98.584718 
L 95.156548 -98.584718 
L 95.121872 -98.584718 
L 94.92104 -98.584718 
L 94.58377 -97.944623 
L 94.325217 -97.944623 
L 94.165067 -97.880613 
L 94.031229 -97.880613 
L 93.738828 -97.880613 
L 93.580204 -97.816604 
L 93.348153 -97.816604 
L 93.007942 -97.816604 
L 92.740059 -97.176509 
L 92.341825 -97.176509 
L 92.148755 -96.920471 
L 92.008548 -96.920471 
L 91.748695 -96.920471 
L 91.579338 -96.344385 
L 91.35069 -96.344385 
L 91.153649 -96.344385 
L 90.757609 -96.344385 
L 90.43701 -96.344385 
L 90.161291 -96.216366 
L 90.007366 -96.216366 
L 89.762613 -96.216366 
L 89.580404 -96.216366 
L 89.433654 -96.216366 
L 89.423705 -96.216366 
L 89.421789 -96.216366 
L 89.173361 -96.216366 
L 89.017315 -96.088347 
L 88.771506 -96.088347 
L 88.572471 -96.088347 
L 88.171823 -95.448252 
L 87.77637 -95.448252 
L 87.574975 -95.384243 
L 87.439284 -95.384243 
L 87.176867 -95.384243 
L 86.776314 -95.128205 
L 86.58111 -95.128205 
L 86.429071 -95.128205 
L 86.184371 -95.000186 
L 85.863787 -95.000186 
L 85.589599 -94.680138 
L 85.19655 -94.680138 
L 84.994897 -94.296081 
L 84.878731 -94.296081 
L 84.617756 -94.296081 
L 84.440488 -94.296081 
L 84.202119 -94.296081 
L 84.004613 -94.296081 
L 83.603854 -94.104053 
L 83.245218 -94.104053 
L 83.226595 -94.104053 
L 83.226149 -94.104053 
L 83.225018 -94.104053 
L 83.013505 -93.912024 
L 82.854762 -93.912024 
L 82.615379 -93.912024 
L 82.287898 -93.271929 
L 82.268028 -93.271929 
L 82.021026 -93.271929 
L 81.619291 -92.951882 
L 81.281938 -92.951882 
L 81.021314 -92.887872 
L 80.853308 -92.887872 
L 80.638283 -92.887872 
L 80.637998 -92.887872 
L 80.637827 -92.887872 
L 80.428938 -92.631834 
L 80.284405 -92.631834 
L 80.031557 -92.631834 
L 79.641104 -92.439806 
L 79.433919 -92.439806 
L 79.04108 -92.247777 
L 78.699548 -92.247777 
L 78.438873 -91.543673 
L 78.039524 -91.543673 
L 77.710514 -91.223625 
L 77.446634 -91.223625 
L 77.446491 -91.223625 
L 77.041938 -91.095606 
L 76.846328 -91.095606 
L 76.703869 -91.095606 
L 76.441065 -91.031597 
L 76.045682 -91.031597 
L 75.444739 -90.711549 
L 75.131903 -90.199473 
L 74.847755 -90.199473 
L 74.444566 -90.199473 
L 74.045188 -90.199473 
L 73.847379 -89.623388 
L 73.662929 -89.623388 
L 73.662774 -89.623388 
L 73.662648 -89.623388 
L 73.44952 -89.623388 
L 73.097659 -89.495369 
L 73.097635 -89.495369 
L 72.853388 -89.495369 
L 72.696624 -89.495369 
L 72.453236 -89.36735 
L 71.854689 -89.047302 
L 71.854529 -89.047302 
L 71.704177 -89.047302 
L 71.455814 -89.047302 
L 71.133735 -88.407207 
L 70.883594 -88.407207 
L 70.709754 -88.08716 
L 70.461846 -88.08716 
L 70.266752 -88.08716 
L 69.864814 -87.639093 
L 69.519356 -87.639093 
L 69.519173 -87.639093 
L 69.519087 -87.639093 
L 69.267574 -87.255036 
L 68.86729 -87.255036 
L 68.543872 -86.74296 
L 68.53321 -86.74296 
z
" style="stroke: var(--c-accent); stroke-opacity: 0.1"/>
    </defs>
    <g clip-path="url(#pb2001d0f6f)">
     <use xlink:href="#m934a28bbdf" x="0" y="250.921812" style="fill: var(--c-accent); fill-opacity: 0.1; stroke: var(--c-accent); stroke-opacity: 0.1"/>
    </g>
   </g>
   <g id="matplotlib.axis_1">
    <g id="xtick_1">
     <g id="line2d_1">
      <path d="M 68.53321 211.929937 
L 68.53321 23.229938 
" clip-path="url(#pb2001d0f6f)" style="fill: none; stroke: var(--c-grid); stroke-width: 0.8; stroke-linecap: square"/>
     </g>
     <g id="line2d_2">
      <defs>
       <path id="mf34a3be828" d="M 0 0 
L 0 3 
" style="stroke: var(--c-soft); stroke-width: 0.8"/>
      </defs>
      <g>
       <use xlink:href="#mf34a3be828" x="68.53321" y="211.929937" style="fill: var(--c-soft); stroke: var(--c-soft); stroke-width: 0.8"/>
      </g>
     </g>
     <g id="text_1">
      <text style="fill: var(--c-soft); font: 11px 'Newsreader', 'Georgia', 'DejaVu Serif', serif; text-anchor: middle" x="68.53321" y="226.788219" transform="rotate(-0 68.53321 226.788219)">0</text>
     </g>
    </g>
    <g id="xtick_2">
     <g id="line2d_3">
      <path d="M 133.565163 211.929937 
L 133.565163 23.229938 
" clip-path="url(#pb2001d0f6f)" style="fill: none; stroke: var(--c-grid); stroke-width: 0.8; stroke-linecap: square"/>
     </g>
     <g id="line2d_4">
      <g>
       <use xlink:href="#mf34a3be828" x="133.565163" y="211.929937" style="fill: var(--c-soft); stroke: var(--c-soft); stroke-width: 0.8"/>
      </g>
     </g>
     <g id="text_2">
      <text style="fill: var(--c-soft); font: 11px 'Newsreader', 'Georgia', 'DejaVu Serif', serif; text-anchor: middle" x="133.565163" y="226.788219" transform="rotate(-0 133.565163 226.788219)">100</text>
     </g>
    </g>
    <g id="xtick_3">
     <g id="line2d_5">
      <path d="M 198.597115 211.929937 
L 198.597115 23.229938 
" clip-path="url(#pb2001d0f6f)" style="fill: none; stroke: var(--c-grid); stroke-width: 0.8; stroke-linecap: square"/>
     </g>
     <g id="line2d_6">
      <g>
       <use xlink:href="#mf34a3be828" x="198.597115" y="211.929937" style="fill: var(--c-soft); stroke: var(--c-soft); stroke-width: 0.8"/>
      </g>
     </g>
     <g id="text_3">
      <text style="fill: var(--c-soft); font: 11px 'Newsreader', 'Georgia', 'DejaVu Serif', serif; text-anchor: middle" x="198.597115" y="226.788219" transform="rotate(-0 198.597115 226.788219)">200</text>
     </g>
    </g>
    <g id="xtick_4">
     <g id="line2d_7">
      <path d="M 263.629067 211.929937 
L 263.629067 23.229938 
" clip-path="url(#pb2001d0f6f)" style="fill: none; stroke: var(--c-grid); stroke-width: 0.8; stroke-linecap: square"/>
     </g>
     <g id="line2d_8">
      <g>
       <use xlink:href="#mf34a3be828" x="263.629067" y="211.929937" style="fill: var(--c-soft); stroke: var(--c-soft); stroke-width: 0.8"/>
      </g>
     </g>
     <g id="text_4">
      <text style="fill: var(--c-soft); font: 11px 'Newsreader', 'Georgia', 'DejaVu Serif', serif; text-anchor: middle" x="263.629067" y="226.788219" transform="rotate(-0 263.629067 226.788219)">300</text>
     </g>
    </g>
    <g id="text_5">
     <text style="fill: var(--c-ink); font: 11px 'Newsreader', 'Georgia', 'DejaVu Serif', serif; text-anchor: middle" x="190.455938" y="241.434156" transform="rotate(-0 190.455938 241.434156)">time  [s]</text>
    </g>
   </g>
   <g id="matplotlib.axis_2">
    <g id="ytick_1">
     <g id="line2d_9">
      <path d="M 56.340938 203.352665 
L 324.570938 203.352665 
" clip-path="url(#pb2001d0f6f)" style="fill: none; stroke: var(--c-grid); stroke-width: 0.8; stroke-linecap: square"/>
     </g>
     <g id="line2d_10">
      <defs>
       <path id="m2594590073" d="M 0 0 
L -3 0 
" style="stroke: var(--c-soft); stroke-width: 0.8"/>
      </defs>
      <g>
       <use xlink:href="#m2594590073" x="56.340938" y="203.352665" style="fill: var(--c-soft); stroke: var(--c-soft); stroke-width: 0.8"/>
      </g>
     </g>
     <g id="text_6">
      <text style="fill: var(--c-soft); font: 11px 'Newsreader', 'Georgia', 'DejaVu Serif', serif; text-anchor: end" x="49.840938" y="207.531805" transform="rotate(-0 49.840938 207.531805)">0</text>
     </g>
    </g>
    <g id="ytick_2">
     <g id="line2d_11">
      <path d="M 56.340938 171.347916 
L 324.570938 171.347916 
" clip-path="url(#pb2001d0f6f)" style="fill: none; stroke: var(--c-grid); stroke-width: 0.8; stroke-linecap: square"/>
     </g>
     <g id="line2d_12">
      <g>
       <use xlink:href="#m2594590073" x="56.340938" y="171.347916" style="fill: var(--c-soft); stroke: var(--c-soft); stroke-width: 0.8"/>
      </g>
     </g>
     <g id="text_7">
      <text style="fill: var(--c-soft); font: 11px 'Newsreader', 'Georgia', 'DejaVu Serif', serif; text-anchor: end" x="49.840938" y="175.527056" transform="rotate(-0 49.840938 175.527056)">500</text>
     </g>
    </g>
    <g id="ytick_3">
     <g id="line2d_13">
      <path d="M 56.340938 139.343167 
L 324.570938 139.343167 
" clip-path="url(#pb2001d0f6f)" style="fill: none; stroke: var(--c-grid); stroke-width: 0.8; stroke-linecap: square"/>
     </g>
     <g id="line2d_14">
      <g>
       <use xlink:href="#m2594590073" x="56.340938" y="139.343167" style="fill: var(--c-soft); stroke: var(--c-soft); stroke-width: 0.8"/>
      </g>
     </g>
     <g id="text_8">
      <text style="fill: var(--c-soft); font: 11px 'Newsreader', 'Georgia', 'DejaVu Serif', serif; text-anchor: end" x="49.840938" y="143.522307" transform="rotate(-0 49.840938 143.522307)">1000</text>
     </g>
    </g>
    <g id="ytick_4">
     <g id="line2d_15">
      <path d="M 56.340938 107.338418 
L 324.570938 107.338418 
" clip-path="url(#pb2001d0f6f)" style="fill: none; stroke: var(--c-grid); stroke-width: 0.8; stroke-linecap: square"/>
     </g>
     <g id="line2d_16">
      <g>
       <use xlink:href="#m2594590073" x="56.340938" y="107.338418" style="fill: var(--c-soft); stroke: var(--c-soft); stroke-width: 0.8"/>
      </g>
     </g>
     <g id="text_9">
      <text style="fill: var(--c-soft); font: 11px 'Newsreader', 'Georgia', 'DejaVu Serif', serif; text-anchor: end" x="49.840938" y="111.517558" transform="rotate(-0 49.840938 111.517558)">1500</text>
     </g>
    </g>
    <g id="ytick_5">
     <g id="line2d_17">
      <path d="M 56.340938 75.333669 
L 324.570938 75.333669 
" clip-path="url(#pb2001d0f6f)" style="fill: none; stroke: var(--c-grid); stroke-width: 0.8; stroke-linecap: square"/>
     </g>
     <g id="line2d_18">
      <g>
       <use xlink:href="#m2594590073" x="56.340938" y="75.333669" style="fill: var(--c-soft); stroke: var(--c-soft); stroke-width: 0.8"/>
      </g>
     </g>
     <g id="text_10">
      <text style="fill: var(--c-soft); font: 11px 'Newsreader', 'Georgia', 'DejaVu Serif', serif; text-anchor: end" x="49.840938" y="79.512809" transform="rotate(-0 49.840938 79.512809)">2000</text>
     </g>
    </g>
    <g id="ytick_6">
     <g id="line2d_19">
      <path d="M 56.340938 43.32892 
L 324.570938 43.32892 
" clip-path="url(#pb2001d0f6f)" style="fill: none; stroke: var(--c-grid); stroke-width: 0.8; stroke-linecap: square"/>
     </g>
     <g id="line2d_20">
      <g>
       <use xlink:href="#m2594590073" x="56.340938" y="43.32892" style="fill: var(--c-soft); stroke: var(--c-soft); stroke-width: 0.8"/>
      </g>
     </g>
     <g id="text_11">
      <text style="fill: var(--c-soft); font: 11px 'Newsreader', 'Georgia', 'DejaVu Serif', serif; text-anchor: end" x="49.840938" y="47.50806" transform="rotate(-0 49.840938 47.50806)">2500</text>
     </g>
    </g>
    <g id="text_12">
     <text style="fill: var(--c-ink); font: 11px 'Newsreader', 'Georgia', 'DejaVu Serif', serif; text-anchor: middle" x="15.558281" y="117.579937" transform="rotate(-90 15.558281 117.579937)">cumulative TX-buffer overflows</text>
    </g>
   </g>
   <g id="line2d_21">
    <path d="M 68.53321 164.178852 
L 68.543872 164.178852 
L 68.86729 163.666776 
L 69.267574 163.666776 
L 69.519356 163.282719 
L 69.864814 163.282719 
L 70.266752 162.834653 
L 70.709754 162.834653 
L 70.883594 162.514605 
L 71.133735 162.514605 
L 71.455814 161.87451 
L 71.854689 161.87451 
L 72.853388 161.426444 
L 73.097659 161.426444 
L 73.662929 161.298425 
L 73.847379 161.298425 
L 74.045188 160.722339 
L 75.131903 160.722339 
L 75.444739 160.210263 
L 76.045682 159.890216 
L 77.041938 159.826206 
L 77.710514 159.698187 
L 78.039524 159.37814 
L 78.438873 159.37814 
L 78.699548 158.674035 
L 79.04108 158.674035 
L 80.031557 158.289978 
L 80.428938 158.289978 
L 80.638283 158.03394 
L 81.619291 157.969931 
L 82.021026 157.649883 
L 82.287898 157.649883 
L 82.615379 157.009788 
L 83.013505 157.009788 
L 83.245218 156.81776 
L 83.603854 156.81776 
L 84.202119 156.625731 
L 84.994897 156.625731 
L 85.19655 156.241674 
L 85.589599 156.241674 
L 85.863787 155.921627 
L 86.184371 155.921627 
L 86.58111 155.793608 
L 86.776314 155.793608 
L 87.176867 155.53757 
L 88.171823 155.47356 
L 88.572471 154.833465 
L 89.017315 154.833465 
L 89.173361 154.705446 
L 90.161291 154.705446 
L 90.43701 154.577427 
L 91.579338 154.577427 
L 91.748695 154.001342 
L 92.148755 154.001342 
L 92.341825 153.745304 
L 92.740059 153.745304 
L 93.007942 153.105209 
L 94.165067 153.041199 
L 94.58377 152.97719 
L 94.92104 152.337095 
L 95.308613 152.337095 
L 95.901808 152.145066 
L 96.503978 152.145066 
L 96.901259 151.761009 
L 97.306377 151.761009 
L 97.600712 151.440962 
L 98.15665 151.440962 
L 98.482279 150.864876 
L 99.306609 150.800867 
L 99.479915 150.160772 
L 100.065396 150.160772 
L 100.311812 149.712705 
L 101.311364 149.648696 
L 101.645643 149.07261 
L 102.146877 149.07261 
L 102.304407 148.880582 
L 102.636698 148.880582 
L 102.879171 148.496525 
L 103.316356 148.496525 
L 103.63173 147.92044 
L 103.893309 147.92044 
L 104.03889 147.408364 
L 105.215967 147.344354 
L 105.841538 147.152326 
L 106.209671 147.088316 
L 106.456745 147.088316 
L 106.801558 146.448221 
L 107.46295 146.128174 
L 107.796679 146.128174 
L 108.195739 145.552088 
L 108.468813 145.552088 
L 108.791454 145.424069 
L 109.78346 145.424069 
L 110.189168 145.29605 
L 110.37313 145.29605 
L 111.03616 145.168031 
L 111.362892 144.591946 
L 111.759561 144.591946 
L 112.051712 144.143879 
L 112.960162 144.07987 
L 113.198213 143.567794 
L 113.75834 143.567794 
L 113.956737 142.79968 
L 114.350628 142.79968 
L 114.620651 142.223594 
L 114.944936 142.223594 
L 115.342977 141.647509 
L 115.619171 141.647509 
L 115.945169 140.879395 
L 116.343243 140.879395 
L 116.537062 140.687366 
L 116.933762 140.687366 
L 117.191977 139.983262 
L 117.525621 139.983262 
L 117.926009 139.279157 
L 118.14295 139.279157 
L 118.513077 138.767081 
L 118.780124 138.767081 
L 119.107377 138.190996 
L 119.508816 138.190996 
L 120.805209 137.67892 
L 120.908612 137.67892 
L 121.085623 136.910806 
L 121.334824 136.910806 
L 121.766711 136.462739 
L 122.680116 136.462739 
L 123.093658 135.822644 
L 123.349048 135.822644 
L 123.680626 135.566606 
L 124.069217 135.566606 
L 124.662568 134.862502 
L 124.914365 134.862502 
L 125.060411 134.670473 
L 125.925308 134.606464 
L 126.486344 134.222407 
L 126.837342 134.222407 
L 127.232378 134.030378 
L 128.057231 133.966369 
L 128.232691 133.134246 
L 128.805009 133.134246 
L 129.072726 132.62217 
L 129.398148 132.62217 
L 129.80043 132.046084 
L 130.065288 132.046084 
L 130.385284 131.405989 
L 130.64259 131.405989 
L 130.976274 130.829904 
L 131.962986 130.765894 
L 132.361179 130.381837 
L 132.559497 130.381837 
L 132.959579 129.677733 
L 133.938005 129.613723 
L 134.135132 129.485704 
L 134.53083 129.485704 
L 135.386622 128.909619 
L 135.710714 128.269524 
L 135.935369 128.269524 
L 136.106977 127.949476 
L 136.512353 127.949476 
L 137.365897 127.821457 
L 137.691293 127.373391 
L 137.955835 127.373391 
L 138.934565 126.669286 
L 139.26502 126.669286 
L 139.512636 126.093201 
L 139.851686 126.093201 
L 140.838268 125.773153 
L 141.832593 125.069049 
L 142.060478 124.428954 
L 143.095299 124.364944 
L 143.427553 124.044897 
L 143.662243 124.044897 
L 144.081789 123.852868 
L 144.413109 123.852868 
L 144.813359 123.276783 
L 145.09547 123.276783 
L 145.235134 123.084754 
L 145.680611 123.084754 
L 146.044648 122.508669 
L 146.409913 122.508669 
L 146.661766 122.252631 
L 147.841132 122.252631 
L 147.992625 121.996593 
L 148.977803 121.932583 
L 149.246975 121.356498 
L 149.569029 121.356498 
L 149.967087 121.03645 
L 150.8069 120.972441 
L 151.153305 120.396355 
L 151.546728 120.396355 
L 152.143214 120.076308 
L 152.389835 120.076308 
L 152.541011 119.75626 
L 152.816858 119.75626 
L 153.137561 119.116165 
L 154.953142 119.116165 
L 155.119925 118.732108 
L 155.334499 118.732108 
L 156.695471 118.348051 
L 157.28597 117.771966 
L 157.531794 117.771966 
L 157.687988 117.451919 
L 158.10839 117.451919 
L 158.508614 117.131871 
L 158.874825 117.131871 
L 159.266922 116.811824 
L 159.542969 116.811824 
L 159.679227 116.363757 
L 160.130749 116.363757 
L 160.273705 115.787672 
L 160.861701 115.787672 
L 161.1075 115.531634 
L 161.442843 115.531634 
L 162.125933 115.403615 
L 162.260097 114.69951 
L 162.878885 114.69951 
L 163.027121 114.443472 
L 163.41604 114.443472 
L 163.683477 114.059415 
L 164.007827 114.059415 
L 164.599675 113.48333 
L 164.836693 112.843235 
L 165.282322 112.843235 
L 165.594698 112.20314 
L 165.879791 112.20314 
L 166.400796 111.499035 
L 166.588393 111.499035 
L 166.800315 110.85894 
L 167.260124 110.85894 
L 167.586186 110.538893 
L 167.818164 110.538893 
L 168.172722 110.346864 
L 168.570592 110.346864 
L 168.99167 110.218845 
L 169.165213 110.218845 
L 169.565325 109.450731 
L 169.987074 109.450731 
L 170.161336 109.130684 
L 171.152475 109.130684 
L 171.745633 108.554598 
L 172.002234 108.554598 
L 172.735419 107.722475 
L 173.136825 107.722475 
L 173.563317 107.530446 
L 173.729142 107.530446 
L 174.13649 106.890351 
L 174.557439 106.890351 
L 174.722834 106.698323 
L 176.578346 106.634313 
L 177.140235 106.570304 
L 177.314118 105.930209 
L 178.548842 105.866199 
L 178.711209 105.226104 
L 179.488422 105.162095 
L 181.475942 104.009924 
L 181.872203 103.433838 
L 183.728064 103.369829 
L 184.055172 102.985772 
L 184.287404 102.985772 
L 184.470144 102.601715 
L 184.86781 102.601715 
L 186.728006 102.089639 
L 186.867955 102.089639 
L 187.064964 101.513554 
L 187.64108 101.513554 
L 187.865135 100.873459 
L 188.269028 100.873459 
L 188.438501 100.74544 
L 188.880567 100.74544 
L 189.044517 100.553411 
L 189.727006 100.553411 
L 190.034676 100.297373 
L 190.297289 100.297373 
L 190.445125 99.657278 
L 190.882172 99.657278 
L 191.214145 99.337231 
L 191.447961 99.337231 
L 191.746233 99.209212 
L 192.207756 99.209212 
L 192.608758 98.761145 
L 192.856374 98.761145 
L 193.20798 98.569117 
L 193.449697 98.569117 
L 193.626963 98.249069 
L 193.873674 98.249069 
L 194.456741 97.672984 
L 194.897746 97.672984 
L 195.195403 97.480955 
L 195.789903 97.416946 
L 196.20482 96.776851 
L 196.783622 96.776851 
L 197.185549 96.456803 
L 197.432111 96.456803 
L 197.779886 95.880718 
L 197.999302 95.880718 
L 198.201384 95.496661 
L 198.78141 95.496661 
L 199.042476 94.856566 
L 199.375181 94.856566 
L 199.771204 94.664537 
L 200.034147 94.664537 
L 200.370852 94.216471 
L 200.802702 94.088452 
L 201.364502 94.088452 
L 201.621724 93.448357 
L 202.575268 93.448357 
L 202.768005 93.128309 
L 203.348353 93.128309 
L 203.614182 92.552224 
L 203.94876 92.552224 
L 204.176047 92.232176 
L 204.529612 92.232176 
L 204.92589 91.912129 
L 205.183561 91.912129 
L 205.72679 91.528072 
L 205.924788 91.528072 
L 206.182448 90.951986 
L 206.511332 90.951986 
L 206.905582 90.695948 
L 207.181986 90.695948 
L 207.503759 90.119863 
L 207.909679 90.119863 
L 208.099527 89.735806 
L 208.498319 89.735806 
L 208.759971 89.15972 
L 209.754014 89.15972 
L 210.090812 88.839673 
L 210.491361 88.839673 
L 210.75366 88.199578 
L 211.091096 88.199578 
L 211.485787 88.007549 
L 211.768802 88.007549 
L 211.918348 87.687502 
L 212.34612 87.687502 
L 212.679168 87.495473 
L 213.083532 87.495473 
L 213.34209 87.239435 
L 213.675468 87.239435 
L 214.310104 87.047407 
L 214.497613 87.047407 
L 214.673326 86.279293 
L 215.068577 86.279293 
L 215.320001 85.895236 
L 215.67023 85.895236 
L 216.917749 85.639198 
L 217.338526 85.063113 
L 217.665066 85.063113 
L 218.348664 84.743065 
L 218.664721 84.10297 
L 218.908943 84.10297 
L 219.247912 83.846932 
L 219.644338 83.846932 
L 219.935671 83.270847 
L 220.829343 83.206837 
L 221.22853 83.014809 
L 221.498721 83.014809 
L 221.824264 82.374714 
L 222.82514 82.310704 
L 223.219848 81.926647 
L 223.639444 81.926647 
L 223.814225 81.286552 
L 224.213894 81.286552 
L 224.408762 80.646457 
L 224.804436 80.646457 
L 225.398536 79.942353 
L 226.062975 79.430277 
L 226.389781 78.854191 
L 226.640099 78.854191 
L 227.216322 78.470134 
L 227.387422 78.470134 
L 227.97128 78.214096 
L 228.588053 78.214096 
L 228.969889 77.638011 
L 229.365288 77.638011 
L 229.627962 77.061925 
L 230.218393 77.061925 
L 230.558779 76.42183 
L 230.949846 76.357821 
L 231.551961 75.781735 
L 231.939594 75.781735 
L 232.537957 75.397678 
L 232.804622 75.397678 
L 233.131197 74.821593 
L 233.813175 74.757583 
L 234.392224 74.629564 
L 234.795261 74.629564 
L 235.125805 73.92546 
L 235.380947 73.92546 
L 235.529499 73.605412 
L 236.117394 72.901308 
L 236.513867 72.901308 
L 237.110291 72.005175 
L 237.383346 72.005175 
L 237.515197 71.557108 
L 237.708626 71.557108 
L 238.094429 70.788994 
L 238.29216 70.788994 
L 238.949801 70.468947 
L 239.286164 70.468947 
L 239.513332 69.956871 
L 239.942672 69.956871 
L 240.274324 69.700833 
L 240.516868 69.700833 
L 240.691823 69.572814 
L 241.270804 69.572814 
L 241.523896 69.060738 
L 241.865144 69.060738 
L 242.263119 68.932719 
L 242.487927 68.932719 
L 242.860225 68.292624 
L 243.086603 68.292624 
L 243.353632 67.972577 
L 243.852849 67.972577 
L 244.249183 67.780548 
L 245.480438 67.58852 
L 247.105831 67.52451 
L 247.437331 67.396491 
L 248.432429 67.396491 
L 248.677459 67.076444 
L 249.101162 67.076444 
L 249.434284 66.692387 
L 251.013573 66.692387 
L 251.412176 66.052292 
L 252.012896 65.476206 
L 252.249183 65.476206 
L 252.446092 65.092149 
L 253.002832 65.092149 
L 253.278866 64.452054 
L 253.69256 64.452054 
L 253.988737 64.260026 
L 254.254681 64.260026 
L 254.424346 63.68394 
L 254.981116 63.68394 
L 255.250691 63.107855 
L 255.583727 63.107855 
L 255.83698 62.339741 
L 256.263512 62.339741 
L 256.580995 62.083703 
L 257.0284 62.083703 
L 257.188668 61.955684 
L 257.576642 61.955684 
L 257.841146 61.571627 
L 258.166954 61.571627 
L 258.793834 61.443608 
L 258.983265 60.803513 
L 259.424694 60.803513 
L 259.753076 60.227427 
L 260.151196 60.227427 
L 260.42391 59.779361 
L 261.553024 59.715351 
L 261.734321 59.459313 
L 262.129845 59.459313 
L 262.574395 59.331294 
L 262.726746 59.331294 
L 262.983828 58.755209 
L 263.564271 58.755209 
L 263.716442 58.56318 
L 264.123217 58.56318 
L 264.316088 58.371152 
L 264.720609 58.371152 
L 264.991683 57.731057 
L 266.146513 57.667047 
L 266.323031 57.411009 
L 266.721029 57.411009 
L 266.981037 56.834924 
L 267.323733 56.834924 
L 267.714109 56.258838 
L 267.99495 56.258838 
L 268.307872 55.938791 
L 268.565721 55.938791 
L 268.903587 55.810772 
L 269.302938 55.810772 
L 269.567708 55.682753 
L 270.857641 55.618743 
L 270.892771 54.850629 
L 271.290359 54.850629 
L 271.560085 54.210535 
L 271.886477 54.210535 
L 273.138943 53.378411 
L 273.287461 53.378411 
L 273.47211 52.610297 
L 274.469952 52.610297 
L 275.714535 52.354259 
L 276.048215 52.098221 
L 276.29925 52.098221 
L 277.63861 51.202088 
L 277.867975 51.202088 
L 278.036878 50.561993 
L 278.437881 50.561993 
L 278.631452 50.113927 
L 279.026674 50.113927 
L 279.616018 49.921898 
L 280.015537 49.345813 
L 280.299954 49.345813 
L 280.612355 49.153784 
L 281.010324 49.153784 
L 281.440805 48.961756 
L 281.865877 48.961756 
L 282.875403 48.513689 
L 283.199264 48.321661 
L 283.593122 48.321661 
L 284.193438 47.937604 
L 284.480862 47.937604 
L 284.790489 47.361518 
L 285.020996 47.361518 
L 285.176353 46.785433 
L 285.458985 46.785433 
L 286.170062 46.465385 
L 286.424 46.465385 
L 286.763424 46.145338 
L 287.013847 46.145338 
L 287.164024 46.017319 
L 287.591833 46.017319 
L 287.766117 45.377224 
L 288.024716 45.377224 
L 289.014373 45.121186 
L 289.355484 44.5451 
L 289.560058 44.5451 
L 289.746954 44.097034 
L 290.01462 44.097034 
L 290.361241 43.520948 
L 291.037803 43.520948 
L 291.340087 43.200901 
L 291.599872 43.200901 
L 291.933548 42.560806 
L 292.18779 42.560806 
L 292.341808 42.240758 
L 292.602419 42.240758 
L 293.927717 42.04873 
L 294.516563 42.04873 
L 294.939194 41.472644 
L 295.512081 41.472644 
L 295.754187 40.76854 
L 296.181299 40.76854 
L 296.501429 40.192454 
L 297.512055 40.192454 
L 297.748192 39.48835 
L 298.086862 39.48835 
L 298.585025 38.912265 
L 298.75459 38.912265 
L 299.083449 38.336179 
L 299.343409 38.336179 
L 299.516369 38.080141 
L 300.071648 38.080141 
L 300.329012 37.952122 
L 300.671279 37.952122 
L 301.32289 37.824103 
L 301.479015 37.184008 
L 301.668331 37.184008 
L 302.654837 37.055989 
L 302.905703 36.479904 
L 303.337168 36.479904 
L 303.647245 36.223866 
L 303.904393 36.223866 
L 304.076504 35.903818 
L 304.639616 35.903818 
L 304.908833 35.455752 
L 305.236303 35.455752 
L 305.634999 35.071695 
L 305.923237 35.071695 
L 306.052122 34.4316 
L 306.635445 34.4316 
L 307.049097 34.239571 
L 307.216436 34.239571 
L 307.456371 34.111552 
L 308.472989 34.047543 
L 308.80317 33.407448 
L 309.053041 33.407448 
L 309.395773 32.831362 
L 310.390001 32.703343 
L 310.789214 32.383296 
L 311.014508 32.383296 
L 311.384318 31.80721 
L 312.378665 31.80721 
L 312.378665 31.80721 
" clip-path="url(#pb2001d0f6f)" style="fill: none; stroke: var(--c-accent); stroke-width: 1.5; stroke-linecap: square"/>
   </g>
   <g id="patch_3">
    <path d="M 56.340938 211.929937 
L 56.340938 23.229938 
" style="fill: none; stroke: var(--c-soft); stroke-width: 0.9; stroke-linejoin: miter; stroke-linecap: square"/>
   </g>
   <g id="patch_4">
    <path d="M 56.340938 211.929937 
L 324.570937 211.929937 
" style="fill: none; stroke: var(--c-soft); stroke-width: 0.9; stroke-linejoin: miter; stroke-linecap: square"/>
   </g>
   <g id="text_13">
    <text style="fill: var(--c-soft); font: 8.8px 'Newsreader', 'Georgia', 'DejaVu Serif', serif" transform="translate(67.070138 48.786562)">612 → 2680</text>
    <text style="fill: var(--c-soft); font: 8.8px 'Newsreader', 'Georgia', 'DejaVu Serif', serif" transform="translate(67.070138 58.640637)">≈ 2068 dropped TX buffers</text>
    <text style="fill: var(--c-soft); font: 8.8px 'Newsreader', 'Georgia', 'DejaVu Serif', serif" transform="translate(67.070138 68.494712)">over the WiFi bridge</text>
   </g>
   <g id="text_14">
    <text style="fill: var(--c-ink); font: 700 13.2px 'Newsreader', 'Georgia', 'DejaVu Serif', serif; text-anchor: start" x="56.340938" y="17.229938" transform="rotate(-0 56.340938 17.229938)">Downlink can't keep up</text>
   </g>
  </g>
  <g id="axes_2">
   <g id="patch_5">
    <path d="M 378.090937 211.929937 
L 646.320938 211.929937 
L 646.320938 23.229938 
L 378.090937 23.229938 
z
" style="fill: var(--c-paper)"/>
   </g>
   <g id="matplotlib.axis_3">
    <g id="xtick_5">
     <g id="line2d_22">
      <path d="M 389.412984 211.929937 
L 389.412984 23.229938 
" clip-path="url(#p82791b716f)" style="fill: none; stroke: var(--c-grid); stroke-width: 0.8; stroke-linecap: square"/>
     </g>
     <g id="line2d_23">
      <g>
       <use xlink:href="#mf34a3be828" x="389.412984" y="211.929937" style="fill: var(--c-soft); stroke: var(--c-soft); stroke-width: 0.8"/>
      </g>
     </g>
     <g id="text_15">
      <text style="fill: var(--c-soft); font: 11px 'Newsreader', 'Georgia', 'DejaVu Serif', serif; text-anchor: middle" x="389.412984" y="226.788219" transform="rotate(-0 389.412984 226.788219)">0</text>
     </g>
    </g>
    <g id="xtick_6">
     <g id="line2d_24">
      <path d="M 454.803341 211.929937 
L 454.803341 23.229938 
" clip-path="url(#p82791b716f)" style="fill: none; stroke: var(--c-grid); stroke-width: 0.8; stroke-linecap: square"/>
     </g>
     <g id="line2d_25">
      <g>
       <use xlink:href="#mf34a3be828" x="454.803341" y="211.929937" style="fill: var(--c-soft); stroke: var(--c-soft); stroke-width: 0.8"/>
      </g>
     </g>
     <g id="text_16">
      <text style="fill: var(--c-soft); font: 11px 'Newsreader', 'Georgia', 'DejaVu Serif', serif; text-anchor: middle" x="454.803341" y="226.788219" transform="rotate(-0 454.803341 226.788219)">100</text>
     </g>
    </g>
    <g id="xtick_7">
     <g id="line2d_26">
      <path d="M 520.193698 211.929937 
L 520.193698 23.229938 
" clip-path="url(#p82791b716f)" style="fill: none; stroke: var(--c-grid); stroke-width: 0.8; stroke-linecap: square"/>
     </g>
     <g id="line2d_27">
      <g>
       <use xlink:href="#mf34a3be828" x="520.193698" y="211.929937" style="fill: var(--c-soft); stroke: var(--c-soft); stroke-width: 0.8"/>
      </g>
     </g>
     <g id="text_17">
      <text style="fill: var(--c-soft); font: 11px 'Newsreader', 'Georgia', 'DejaVu Serif', serif; text-anchor: middle" x="520.193698" y="226.788219" transform="rotate(-0 520.193698 226.788219)">200</text>
     </g>
    </g>
    <g id="xtick_8">
     <g id="line2d_28">
      <path d="M 585.584055 211.929937 
L 585.584055 23.229938 
" clip-path="url(#p82791b716f)" style="fill: none; stroke: var(--c-grid); stroke-width: 0.8; stroke-linecap: square"/>
     </g>
     <g id="line2d_29">
      <g>
       <use xlink:href="#mf34a3be828" x="585.584055" y="211.929937" style="fill: var(--c-soft); stroke: var(--c-soft); stroke-width: 0.8"/>
      </g>
     </g>
     <g id="text_18">
      <text style="fill: var(--c-soft); font: 11px 'Newsreader', 'Georgia', 'DejaVu Serif', serif; text-anchor: middle" x="585.584055" y="226.788219" transform="rotate(-0 585.584055 226.788219)">300</text>
     </g>
    </g>
    <g id="text_19">
     <text style="fill: var(--c-ink); font: 11px 'Newsreader', 'Georgia', 'DejaVu Serif', serif; text-anchor: middle" x="512.205938" y="241.434156" transform="rotate(-0 512.205938 241.434156)">time  [s]</text>
    </g>
   </g>
   <g id="matplotlib.axis_4">
    <g id="ytick_7">
     <g id="line2d_30">
      <path d="M 378.090937 211.929937 
L 646.320938 211.929937 
" clip-path="url(#p82791b716f)" style="fill: none; stroke: var(--c-grid); stroke-width: 0.8; stroke-linecap: square"/>
     </g>
     <g id="line2d_31">
      <g>
       <use xlink:href="#m2594590073" x="378.090937" y="211.929937" style="fill: var(--c-soft); stroke: var(--c-soft); stroke-width: 0.8"/>
      </g>
     </g>
     <g id="text_20">
      <text style="fill: var(--c-soft); font: 11px 'Newsreader', 'Georgia', 'DejaVu Serif', serif; text-anchor: end" x="371.590937" y="216.109078" transform="rotate(-0 371.590937 216.109078)">0</text>
     </g>
    </g>
    <g id="ytick_8">
     <g id="line2d_32">
      <path d="M 378.090937 174.189937 
L 646.320938 174.189937 
" clip-path="url(#p82791b716f)" style="fill: none; stroke: var(--c-grid); stroke-width: 0.8; stroke-linecap: square"/>
     </g>
     <g id="line2d_33">
      <g>
       <use xlink:href="#m2594590073" x="378.090937" y="174.189937" style="fill: var(--c-soft); stroke: var(--c-soft); stroke-width: 0.8"/>
      </g>
     </g>
     <g id="text_21">
      <text style="fill: var(--c-soft); font: 11px 'Newsreader', 'Georgia', 'DejaVu Serif', serif; text-anchor: end" x="371.590937" y="178.369078" transform="rotate(-0 371.590937 178.369078)">20</text>
     </g>
    </g>
    <g id="ytick_9">
     <g id="line2d_34">
      <path d="M 378.090937 136.449937 
L 646.320938 136.449937 
" clip-path="url(#p82791b716f)" style="fill: none; stroke: var(--c-grid); stroke-width: 0.8; stroke-linecap: square"/>
     </g>
     <g id="line2d_35">
      <g>
       <use xlink:href="#m2594590073" x="378.090937" y="136.449937" style="fill: var(--c-soft); stroke: var(--c-soft); stroke-width: 0.8"/>
      </g>
     </g>
     <g id="text_22">
      <text style="fill: var(--c-soft); font: 11px 'Newsreader', 'Georgia', 'DejaVu Serif', serif; text-anchor: end" x="371.590937" y="140.629078" transform="rotate(-0 371.590937 140.629078)">40</text>
     </g>
    </g>
    <g id="ytick_10">
     <g id="line2d_36">
      <path d="M 378.090937 98.709937 
L 646.320938 98.709937 
" clip-path="url(#p82791b716f)" style="fill: none; stroke: var(--c-grid); stroke-width: 0.8; stroke-linecap: square"/>
     </g>
     <g id="line2d_37">
      <g>
       <use xlink:href="#m2594590073" x="378.090937" y="98.709937" style="fill: var(--c-soft); stroke: var(--c-soft); stroke-width: 0.8"/>
      </g>
     </g>
     <g id="text_23">
      <text style="fill: var(--c-soft); font: 11px 'Newsreader', 'Georgia', 'DejaVu Serif', serif; text-anchor: end" x="371.590937" y="102.889078" transform="rotate(-0 371.590937 102.889078)">60</text>
     </g>
    </g>
    <g id="ytick_11">
     <g id="line2d_38">
      <path d="M 378.090937 60.969937 
L 646.320938 60.969937 
" clip-path="url(#p82791b716f)" style="fill: none; stroke: var(--c-grid); stroke-width: 0.8; stroke-linecap: square"/>
     </g>
     <g id="line2d_39">
      <g>
       <use xlink:href="#m2594590073" x="378.090937" y="60.969937" style="fill: var(--c-soft); stroke: var(--c-soft); stroke-width: 0.8"/>
      </g>
     </g>
     <g id="text_24">
      <text style="fill: var(--c-soft); font: 11px 'Newsreader', 'Georgia', 'DejaVu Serif', serif; text-anchor: end" x="371.590937" y="65.149078" transform="rotate(-0 371.590937 65.149078)">80</text>
     </g>
    </g>
    <g id="ytick_12">
     <g id="line2d_40">
      <path d="M 378.090937 23.229938 
L 646.320938 23.229938 
" clip-path="url(#p82791b716f)" style="fill: none; stroke: var(--c-grid); stroke-width: 0.8; stroke-linecap: square"/>
     </g>
     <g id="line2d_41">
      <g>
       <use xlink:href="#m2594590073" x="378.090937" y="23.229938" style="fill: var(--c-soft); stroke: var(--c-soft); stroke-width: 0.8"/>
      </g>
     </g>
     <g id="text_25">
      <text style="fill: var(--c-soft); font: 11px 'Newsreader', 'Georgia', 'DejaVu Serif', serif; text-anchor: end" x="371.590937" y="27.409078" transform="rotate(-0 371.590937 27.409078)">100</text>
     </g>
    </g>
    <g id="text_26">
     <text style="fill: var(--c-ink); font: 11px 'Newsreader', 'Georgia', 'DejaVu Serif', serif; text-anchor: middle" x="344.307031" y="117.579937" transform="rotate(-90 344.307031 117.579937)">CPU load  [%]</text>
    </g>
   </g>
   <g id="line2d_42">
    <path d="M 390.28321 89.031701 
L 390.88961 89.427714 
L 391.594987 89.258585 
L 392.210306 89.337814 
L 393.52975 89.092811 
L 394.177859 87.657949 
L 394.895235 89.133374 
L 395.490282 89.071959 
L 396.807561 88.149923 
L 398.789534 89.024285 
L 399.50151 88.567783 
L 400.092616 89.555875 
L 400.810121 88.569351 
L 401.405714 88.104458 
L 402.1001 88.937854 
L 402.722774 90.309843 
L 404.094294 91.840247 
L 404.693757 91.561192 
L 405.405058 91.432334 
L 406.01067 90.983264 
L 406.690165 91.129843 
L 407.325045 91.781486 
L 408.682401 89.55095 
L 410.004249 88.946332 
L 410.614946 89.264504 
L 412.587029 92.884334 
L 413.313706 94.504916 
L 413.908804 93.428102 
L 415.911028 95.162736 
L 416.529561 94.180193 
L 417.875384 94.124192 
L 418.503878 95.391114 
L 420.515956 95.45426 
L 421.126708 95.044997 
L 422.493028 95.628007 
L 424.423858 95.064412 
L 425.105843 94.939951 
L 427.050487 94.073671 
L 427.715585 95.235999 
L 428.423979 93.034488 
L 429.022659 94.819273 
L 429.709284 95.276578 
L 430.995601 94.462187 
L 431.729067 92.486265 
L 432.310688 93.395505 
L 433.039669 93.625569 
L 433.626339 92.170364 
L 434.312217 90.110943 
L 434.928496 93.028458 
L 436.247147 93.566528 
L 437.598389 93.530279 
L 438.916978 93.607696 
L 439.529624 95.39139 
L 440.845122 93.427287 
L 441.508049 92.681095 
L 442.230962 93.13299 
L 442.816133 94.197966 
L 443.495374 91.40992 
L 444.131881 95.345828 
L 445.448793 93.867066 
L 446.106195 98.781912 
L 446.831444 95.274308 
L 447.421906 95.291907 
L 448.125648 100.24233 
L 448.734039 98.099744 
L 449.414046 96.73537 
L 450.047136 102.76901 
L 451.433733 97.794507 
L 452.019387 101.587139 
L 453.333598 91.409265 
L 454.648137 101.93 
L 455.335244 99.277144 
L 456.030713 99.580307 
L 456.635028 95.469036 
L 457.322758 94.646171 
L 457.942392 98.993197 
L 458.625771 95.251641 
L 459.249191 96.440887 
L 460.637235 98.545547 
L 461.22441 99.709061 
L 461.933976 99.419509 
L 462.53833 95.983147 
L 463.246275 93.598004 
L 465.175799 92.393919 
L 465.826246 91.778575 
L 466.52931 96.092377 
L 467.829162 89.495678 
L 468.461094 87.979343 
L 469.762843 92.234025 
L 470.425985 97.949656 
L 471.140579 94.155383 
L 471.736013 91.83569 
L 472.437929 99.144528 
L 473.732265 93.358201 
L 474.421579 97.992794 
L 475.023124 92.432454 
L 476.337386 92.985975 
L 477.05229 95.010541 
L 477.654363 91.310122 
L 478.335171 94.527983 
L 478.967705 96.017535 
L 480.32994 91.830344 
L 480.938368 98.745501 
L 481.653387 91.93456 
L 482.258042 91.556337 
L 482.932034 97.172039 
L 484.946911 93.229844 
L 486.216967 92.945661 
L 486.856403 93.088637 
L 487.541653 95.05905 
L 488.176039 92.888968 
L 490.143024 92.816363 
L 490.806682 91.585762 
L 491.467305 93.458293 
L 492.144549 91.544071 
L 492.778806 90.906305 
L 494.168854 91.926166 
L 494.741395 92.00042 
L 495.459903 91.645948 
L 496.057085 92.013747 
L 496.746211 91.578529 
L 498.754679 91.202968 
L 499.346935 92.130702 
L 500.043863 91.174419 
L 500.663357 91.849267 
L 501.971147 91.502743 
L 502.65073 91.285688 
L 503.369312 91.767665 
L 504.660644 91.443189 
L 505.257822 91.143591 
L 505.964451 92.054992 
L 506.572208 92.166443 
L 507.25133 91.640587 
L 507.903048 91.34709 
L 508.549587 91.379593 
L 509.860077 92.713711 
L 511.178704 91.758183 
L 512.486328 92.167161 
L 513.145511 91.138427 
L 513.861077 89.427728 
L 514.459685 90.031875 
L 515.144052 89.604511 
L 515.810295 89.34751 
L 516.475216 89.756719 
L 517.089918 88.815827 
L 517.75171 89.287443 
L 518.4814 89.461647 
L 519.068126 89.131214 
L 519.767323 90.045582 
L 520.385651 89.147866 
L 521.053202 89.862923 
L 521.72144 89.756564 
L 522.358742 89.143989 
L 523.080585 88.929472 
L 523.665683 89.98955 
L 524.3743 90.594924 
L 524.991834 95.938484 
L 525.658254 92.462813 
L 526.293182 98.38676 
L 526.960201 93.850165 
L 527.695057 91.471997 
L 528.265381 96.158859 
L 528.979119 96.794241 
L 529.581133 91.354816 
L 530.263869 92.199483 
L 531.572019 90.679066 
L 532.277385 91.460502 
L 532.872349 90.998517 
L 533.57529 93.296602 
L 534.185 90.426162 
L 534.869531 91.874077 
L 535.500352 92.809504 
L 536.833156 93.203805 
L 537.472954 93.10363 
L 538.18009 90.225546 
L 538.797037 92.695606 
L 540.106586 91.267826 
L 541.493339 92.057626 
L 542.073648 91.952176 
L 542.787381 93.138747 
L 543.397809 91.618552 
L 544.069641 92.076466 
L 544.709951 91.299419 
L 546.111074 91.607415 
L 546.681242 92.428369 
L 547.386878 92.147899 
L 548.005838 92.188024 
L 548.687744 91.437173 
L 549.307523 91.612773 
L 550.700519 91.126294 
L 551.287123 92.116594 
L 551.98975 91.691854 
L 552.595253 91.761122 
L 553.300532 91.41264 
L 553.910544 91.85763 
L 555.317741 91.712478 
L 555.881923 90.809783 
L 556.592167 91.335311 
L 557.201469 92.41132 
L 557.893148 91.574654 
L 558.519138 92.623645 
L 559.903816 92.329041 
L 560.486868 92.442757 
L 561.201557 91.596528 
L 561.826464 92.220505 
L 562.457822 91.444624 
L 563.204838 91.474867 
L 565.084037 91.918811 
L 565.768082 90.867686 
L 566.402163 91.596249 
L 567.08985 91.255742 
L 567.713438 91.243073 
L 568.38703 91.73941 
L 570.414928 90.901651 
L 570.999337 91.553341 
L 572.317746 91.300536 
L 573.650651 91.7724 
L 574.292343 92.312961 
L 575.012402 91.77164 
L 576.291179 91.424932 
L 576.931767 91.798001 
L 577.607386 92.671853 
L 578.233409 93.181592 
L 578.893508 92.193401 
L 579.548863 91.451319 
L 580.211546 91.545103 
L 580.912092 91.787589 
L 581.518326 91.872648 
L 582.205026 92.92705 
L 584.203089 91.152167 
L 584.810502 91.877874 
L 585.468201 91.695545 
L 586.121988 91.104611 
L 587.435747 89.184396 
L 588.828703 89.167154 
L 589.41897 90.987753 
L 590.127432 91.447357 
L 590.726871 90.878697 
L 593.42632 91.929869 
L 594.009352 94.420678 
L 594.710546 93.381579 
L 595.326524 93.548038 
L 596.05176 94.11488 
L 596.636896 91.531182 
L 598.604053 93.244065 
L 599.924134 93.034688 
L 600.61515 93.461859 
L 601.908853 92.701983 
L 602.557337 93.035531 
L 603.210448 93.509634 
L 603.922036 91.275908 
L 604.52071 90.153301 
L 605.221135 93.400831 
L 605.83381 92.614319 
L 607.161028 92.585264 
L 607.813296 93.513147 
L 608.51146 90.196716 
L 609.122945 92.003562 
L 610.437321 92.276217 
L 611.835497 91.538908 
L 612.426123 93.384326 
L 613.165006 90.446105 
L 613.729867 91.819043 
L 614.430244 93.899808 
L 615.038397 92.471627 
L 616.3527 91.446227 
L 618.331477 92.496151 
L 619.02774 93.805905 
L 619.653128 93.583724 
L 620.956338 92.915857 
L 621.620128 91.83859 
L 622.270683 91.702921 
L 622.933205 90.713533 
L 623.634035 92.130891 
L 624.241883 91.481591 
L 624.919183 91.751538 
L 625.555712 91.723617 
L 626.219043 91.082791 
L 626.886511 91.727587 
L 627.526479 92.131571 
L 630.164619 91.338885 
L 632.129843 92.277495 
L 632.852254 91.297022 
L 634.128665 91.602125 
L 634.128665 91.602125 
" clip-path="url(#p82791b716f)" style="fill: none; stroke: var(--c-slate); stroke-width: 1.4; stroke-linecap: square"/>
   </g>
   <g id="line2d_43">
    <path d="M 378.090937 91.918811 
L 646.320938 91.918811 
" clip-path="url(#p82791b716f)" style="fill: none; stroke-dasharray: 0.9,1.485; stroke-dashoffset: 0; stroke: var(--c-faint); stroke-width: 0.9"/>
   </g>
   <g id="patch_6">
    <path d="M 378.090937 211.929937 
L 378.090937 23.229938 
" style="fill: none; stroke: var(--c-soft); stroke-width: 0.9; stroke-linejoin: miter; stroke-linecap: square"/>
   </g>
   <g id="patch_7">
    <path d="M 378.090937 211.929937 
L 646.320937 211.929937 
" style="fill: none; stroke: var(--c-soft); stroke-width: 0.9; stroke-linejoin: miter; stroke-linecap: square"/>
   </g>
   <g id="text_27">
    <text style="fill: var(--c-soft); font: 8.8px 'Newsreader', 'Georgia', 'DejaVu Serif', serif; text-anchor: start" x="388.820137" y="189.285937" transform="rotate(-0 388.820137 189.285937)">median 64% — ~36% idle headroom</text>
   </g>
   <g id="text_28">
    <text style="fill: var(--c-ink); font: 700 13.2px 'Newsreader', 'Georgia', 'DejaVu Serif', serif; text-anchor: start" x="378.090937" y="17.229938" transform="rotate(-0 378.090937 17.229938)">…but the CPU is fine</text>
   </g>
  </g>
 </g>
 <defs>
  <clipPath id="pb2001d0f6f">
   <rect x="56.340938" y="23.229938" width="268.23" height="188.7"/>
  </clipPath>
  <clipPath id="p82791b716f">
   <rect x="378.090937" y="23.229938" width="268.23" height="188.7"/>
  </clipPath>
 </defs>
</svg>
