<?xml version="1.0" encoding="utf-8" standalone="no"?>
<!DOCTYPE svg PUBLIC "-//W3C//DTD SVG 1.1//EN"
  "http://www.w3.org/Graphics/SVG/1.1/DTD/svg11.dtd">
<svg xmlns:xlink="http://www.w3.org/1999/xlink" width="668.1575pt" height="258.121813pt" viewBox="0 0 668.1575 258.121813" xmlns="http://www.w3.org/2000/svg" version="1.1"><style>:root{--c-paper:#f6f2e9;--c-ink:#211e1a;--c-soft:#5a554c;--c-faint:#8a8478;--c-grid:#d8d0bf;--c-accent:#b4451f;--c-slate:#3f6b86;--c-olive:#5c6e3a;--c-gold:#9a6b1f}@media (prefers-color-scheme:dark){:root{--c-paper:#1a1815;--c-ink:#ece4d4;--c-soft:#b3aa98;--c-faint:#7c7568;--c-grid:#38332c;--c-accent:#e07a4e;--c-slate:#8fb4c8;--c-olive:#8aa05a;--c-gold:#c89a4e}}</style>
 <metadata>
  <rdf:RDF xmlns:dc="http://purl.org/dc/elements/1.1/" xmlns:cc="http://creativecommons.org/ns#" xmlns:rdf="http://www.w3.org/1999/02/22-rdf-syntax-ns#">
   <cc:Work>
    <dc:type rdf:resource="http://purl.org/dc/dcmitype/StillImage"/>
    <dc:date>2026-06-19T23:58:40.356052</dc:date>
    <dc:format>image/svg+xml</dc:format>
    <dc:creator>
     <cc:Agent>
      <dc:title>Matplotlib v3.6.3, https://matplotlib.org/</dc:title>
     </cc:Agent>
    </dc:creator>
   </cc:Work>
  </rdf:RDF>
 </metadata>
 <defs>
  <style type="text/css">*{stroke-linejoin: round; stroke-linecap: butt}</style>
 </defs>
 <g id="figure_1">
  <g id="patch_1">
   <path d="M 0 258.121813 
L 668.1575 258.121813 
L 668.1575 0 
L 0 0 
z
" style="fill: var(--c-paper)"/>
  </g>
  <g id="axes_1">
   <g id="patch_2">
    <path d="M 51.7175 219.129938 
L 364.8875 219.129938 
L 364.8875 23.229938 
L 51.7175 23.229938 
z
" style="fill: var(--c-paper)"/>
   </g>
   <g id="matplotlib.axis_1">
    <g id="xtick_1">
     <g id="line2d_1">
      <path d="M 98.58188 219.129938 
L 98.58188 23.229938 
" clip-path="url(#p57e82538f3)" style="fill: none; stroke: var(--c-grid); stroke-width: 0.8; stroke-linecap: square"/>
     </g>
     <g id="line2d_2">
      <defs>
       <path id="m82d197ef0b" d="M 0 0 
L 0 3 
" style="stroke: var(--c-soft); stroke-width: 0.8"/>
      </defs>
      <g>
       <use xlink:href="#m82d197ef0b" x="98.58188" y="219.129938" style="fill: var(--c-soft); stroke: var(--c-soft); stroke-width: 0.8"/>
      </g>
     </g>
     <g id="text_1">
      <text style="fill: var(--c-soft); font: 11px 'Newsreader', 'Georgia', 'DejaVu Serif', serif; text-anchor: middle" x="98.58188" y="233.988219" transform="rotate(-0 98.58188 233.988219)">40</text>
     </g>
    </g>
    <g id="xtick_2">
     <g id="line2d_3">
      <path d="M 156.34758 219.129938 
L 156.34758 23.229938 
" clip-path="url(#p57e82538f3)" style="fill: none; stroke: var(--c-grid); stroke-width: 0.8; stroke-linecap: square"/>
     </g>
     <g id="line2d_4">
      <g>
       <use xlink:href="#m82d197ef0b" x="156.34758" y="219.129938" style="fill: var(--c-soft); stroke: var(--c-soft); stroke-width: 0.8"/>
      </g>
     </g>
     <g id="text_2">
      <text style="fill: var(--c-soft); font: 11px 'Newsreader', 'Georgia', 'DejaVu Serif', serif; text-anchor: middle" x="156.34758" y="233.988219" transform="rotate(-0 156.34758 233.988219)">60</text>
     </g>
    </g>
    <g id="xtick_3">
     <g id="line2d_5">
      <path d="M 214.11328 219.129938 
L 214.11328 23.229938 
" clip-path="url(#p57e82538f3)" style="fill: none; stroke: var(--c-grid); stroke-width: 0.8; stroke-linecap: square"/>
     </g>
     <g id="line2d_6">
      <g>
       <use xlink:href="#m82d197ef0b" x="214.11328" y="219.129938" style="fill: var(--c-soft); stroke: var(--c-soft); stroke-width: 0.8"/>
      </g>
     </g>
     <g id="text_3">
      <text style="fill: var(--c-soft); font: 11px 'Newsreader', 'Georgia', 'DejaVu Serif', serif; text-anchor: middle" x="214.11328" y="233.988219" transform="rotate(-0 214.11328 233.988219)">80</text>
     </g>
    </g>
    <g id="xtick_4">
     <g id="line2d_7">
      <path d="M 271.87898 219.129938 
L 271.87898 23.229938 
" clip-path="url(#p57e82538f3)" style="fill: none; stroke: var(--c-grid); stroke-width: 0.8; stroke-linecap: square"/>
     </g>
     <g id="line2d_8">
      <g>
       <use xlink:href="#m82d197ef0b" x="271.87898" y="219.129938" style="fill: var(--c-soft); stroke: var(--c-soft); stroke-width: 0.8"/>
      </g>
     </g>
     <g id="text_4">
      <text style="fill: var(--c-soft); font: 11px 'Newsreader', 'Georgia', 'DejaVu Serif', serif; text-anchor: middle" x="271.87898" y="233.988219" transform="rotate(-0 271.87898 233.988219)">100</text>
     </g>
    </g>
    <g id="xtick_5">
     <g id="line2d_9">
      <path d="M 329.64468 219.129938 
L 329.64468 23.229938 
" clip-path="url(#p57e82538f3)" style="fill: none; stroke: var(--c-grid); stroke-width: 0.8; stroke-linecap: square"/>
     </g>
     <g id="line2d_10">
      <g>
       <use xlink:href="#m82d197ef0b" x="329.64468" y="219.129938" style="fill: var(--c-soft); stroke: var(--c-soft); stroke-width: 0.8"/>
      </g>
     </g>
     <g id="text_5">
      <text style="fill: var(--c-soft); font: 11px 'Newsreader', 'Georgia', 'DejaVu Serif', serif; text-anchor: middle" x="329.64468" y="233.988219" transform="rotate(-0 329.64468 233.988219)">120</text>
     </g>
    </g>
    <g id="text_6">
     <text style="fill: var(--c-ink); font: 11px 'Newsreader', 'Georgia', 'DejaVu Serif', serif; text-anchor: middle" x="208.3025" y="248.634156" transform="rotate(-0 208.3025 248.634156)">time  [s]</text>
    </g>
   </g>
   <g id="matplotlib.axis_2">
    <g id="ytick_1">
     <g id="line2d_11">
      <path d="M 51.7175 216.851433 
L 364.8875 216.851433 
" clip-path="url(#p57e82538f3)" style="fill: none; stroke: var(--c-grid); stroke-width: 0.8; stroke-linecap: square"/>
     </g>
     <g id="line2d_12">
      <defs>
       <path id="mab009eb1f2" d="M 0 0 
L -3 0 
" style="stroke: var(--c-accent); stroke-width: 0.8"/>
      </defs>
      <g>
       <use xlink:href="#mab009eb1f2" x="51.7175" y="216.851433" style="fill: var(--c-accent); stroke: var(--c-accent); stroke-width: 0.8"/>
      </g>
     </g>
     <g id="text_7">
      <text style="fill: var(--c-accent); font: 11px 'Newsreader', 'Georgia', 'DejaVu Serif', serif; text-anchor: end" x="45.2175" y="221.030573" transform="rotate(-0 45.2175 221.030573)">−80</text>
     </g>
    </g>
    <g id="ytick_2">
     <g id="line2d_13">
      <path d="M 51.7175 182.551146 
L 364.8875 182.551146 
" clip-path="url(#p57e82538f3)" style="fill: none; stroke: var(--c-grid); stroke-width: 0.8; stroke-linecap: square"/>
     </g>
     <g id="line2d_14">
      <g>
       <use xlink:href="#mab009eb1f2" x="51.7175" y="182.551146" style="fill: var(--c-accent); stroke: var(--c-accent); stroke-width: 0.8"/>
      </g>
     </g>
     <g id="text_8">
      <text style="fill: var(--c-accent); font: 11px 'Newsreader', 'Georgia', 'DejaVu Serif', serif; text-anchor: end" x="45.2175" y="186.730286" transform="rotate(-0 45.2175 186.730286)">−60</text>
     </g>
    </g>
    <g id="ytick_3">
     <g id="line2d_15">
      <path d="M 51.7175 148.250858 
L 364.8875 148.250858 
" clip-path="url(#p57e82538f3)" style="fill: none; stroke: var(--c-grid); stroke-width: 0.8; stroke-linecap: square"/>
     </g>
     <g id="line2d_16">
      <g>
       <use xlink:href="#mab009eb1f2" x="51.7175" y="148.250858" style="fill: var(--c-accent); stroke: var(--c-accent); stroke-width: 0.8"/>
      </g>
     </g>
     <g id="text_9">
      <text style="fill: var(--c-accent); font: 11px 'Newsreader', 'Georgia', 'DejaVu Serif', serif; text-anchor: end" x="45.2175" y="152.429999" transform="rotate(-0 45.2175 152.429999)">−40</text>
     </g>
    </g>
    <g id="ytick_4">
     <g id="line2d_17">
      <path d="M 51.7175 113.950571 
L 364.8875 113.950571 
" clip-path="url(#p57e82538f3)" style="fill: none; stroke: var(--c-grid); stroke-width: 0.8; stroke-linecap: square"/>
     </g>
     <g id="line2d_18">
      <g>
       <use xlink:href="#mab009eb1f2" x="51.7175" y="113.950571" style="fill: var(--c-accent); stroke: var(--c-accent); stroke-width: 0.8"/>
      </g>
     </g>
     <g id="text_10">
      <text style="fill: var(--c-accent); font: 11px 'Newsreader', 'Georgia', 'DejaVu Serif', serif; text-anchor: end" x="45.2175" y="118.129712" transform="rotate(-0 45.2175 118.129712)">−20</text>
     </g>
    </g>
    <g id="ytick_5">
     <g id="line2d_19">
      <path d="M 51.7175 79.650284 
L 364.8875 79.650284 
" clip-path="url(#p57e82538f3)" style="fill: none; stroke: var(--c-grid); stroke-width: 0.8; stroke-linecap: square"/>
     </g>
     <g id="line2d_20">
      <g>
       <use xlink:href="#mab009eb1f2" x="51.7175" y="79.650284" style="fill: var(--c-accent); stroke: var(--c-accent); stroke-width: 0.8"/>
      </g>
     </g>
     <g id="text_11">
      <text style="fill: var(--c-accent); font: 11px 'Newsreader', 'Georgia', 'DejaVu Serif', serif; text-anchor: end" x="45.2175" y="83.829424" transform="rotate(-0 45.2175 83.829424)">0</text>
     </g>
    </g>
    <g id="ytick_6">
     <g id="line2d_21">
      <path d="M 51.7175 45.349997 
L 364.8875 45.349997 
" clip-path="url(#p57e82538f3)" style="fill: none; stroke: var(--c-grid); stroke-width: 0.8; stroke-linecap: square"/>
     </g>
     <g id="line2d_22">
      <g>
       <use xlink:href="#mab009eb1f2" x="51.7175" y="45.349997" style="fill: var(--c-accent); stroke: var(--c-accent); stroke-width: 0.8"/>
      </g>
     </g>
     <g id="text_12">
      <text style="fill: var(--c-accent); font: 11px 'Newsreader', 'Georgia', 'DejaVu Serif', serif; text-anchor: end" x="45.2175" y="49.529137" transform="rotate(-0 45.2175 49.529137)">20</text>
     </g>
    </g>
    <g id="text_13">
     <text style="fill: var(--c-accent); font: 11px 'Newsreader', 'Georgia', 'DejaVu Serif', serif; text-anchor: middle" x="15.558281" y="121.179938" transform="rotate(-90 15.558281 121.179938)">roll angle  [deg]</text>
    </g>
   </g>
   <g id="line2d_23">
    <path d="M 65.9525 84.957717 
L 66.519063 84.931945 
L 66.676732 84.834725 
L 67.01361 84.834725 
L 67.079451 84.569743 
L 67.611748 84.56529 
L 67.777763 84.706316 
L 67.950096 84.679309 
L 68.487606 84.129575 
L 68.96711 84.126872 
L 69.063879 84.31041 
L 69.448466 84.354621 
L 69.758875 84.160189 
L 70.332324 84.241538 
L 70.812334 84.295163 
L 71.046626 84.540942 
L 71.404129 84.6606 
L 71.462542 85.21213 
L 71.762008 85.627216 
L 72.032819 85.627216 
L 72.038475 85.762238 
L 72.311842 85.914304 
L 72.715506 86.061624 
L 72.736775 86.548597 
L 73.032105 87.404651 
L 73.147752 87.404651 
L 73.305921 87.578113 
L 73.307454 87.88734 
L 73.438343 87.853556 
L 73.582927 87.485848 
L 73.99925 87.48158 
L 74.131213 87.915735 
L 74.183306 88.613558 
L 74.592149 89.427044 
L 74.598867 91.006624 
L 74.877283 92.010602 
L 75.258644 92.26203 
L 75.258866 92.194351 
L 75.461892 91.86794 
L 75.883712 91.682486 
L 76.141904 91.945594 
L 76.50928 91.930785 
L 76.551674 92.310982 
L 76.77705 92.390003 
L 77.191796 92.294246 
L 77.412721 92.637711 
L 77.86262 92.54423 
L 77.955742 93.199843 
L 78.510373 93.529367 
L 78.654441 94.12295 
L 79.027833 94.292015 
L 79.076656 97.686205 
L 79.226954 98.909224 
L 79.38674 98.83932 
L 79.707628 98.83932 
L 79.713901 100.55515 
L 79.921768 100.304081 
L 80.324652 102.978736 
L 80.342502 100.703485 
L 80.496967 99.597007 
L 80.632223 96.575181 
L 80.967235 96.575181 
L 80.967585 99.099628 
L 81.085822 98.256612 
L 81.201905 98.426752 
L 81.610716 98.44194 
L 81.786789 96.489878 
L 81.944521 97.23745 
L 82.461585 97.842441 
L 82.902759 97.103622 
L 82.923751 98.465902 
L 83.027703 97.830632 
L 83.505859 97.039719 
L 83.594881 95.703312 
L 83.983826 95.277422 
L 84.150114 94.901396 
L 84.154279 94.331722 
L 84.350823 92.262927 
L 84.469393 93.181181 
L 84.75153 92.369983 
L 84.756997 91.879736 
L 84.858925 92.065786 
L 84.997531 91.949415 
L 85.225442 91.25892 
L 85.3898 91.25892 
L 85.407575 91.499539 
L 85.66341 90.782801 
L 85.747318 90.648642 
L 86.117951 90.678841 
L 86.262911 90.798736 
L 86.737081 90.740802 
L 86.811443 90.458985 
L 87.307936 90.418562 
L 87.527458 91.867396 
L 87.829038 92.414875 
L 87.972851 95.860972 
L 88.087996 95.732992 
L 88.226515 94.301277 
L 88.659792 96.910189 
L 88.815662 99.321169 
L 89.199555 99.195363 
L 89.227118 99.823882 
L 89.843697 98.8775 
L 89.850528 99.132781 
L 90.074962 97.01281 
L 90.474138 100.010586 
L 90.543338 99.894897 
L 90.641107 99.287656 
L 91.176439 99.947292 
L 91.202171 95.922767 
L 91.434478 95.982722 
L 91.918006 92.874262 
L 92.096075 92.491898 
L 92.380088 92.491898 
L 92.466745 91.523313 
L 92.624091 91.231765 
L 93.010997 91.328096 
L 93.027905 92.15805 
L 93.3049 90.500724 
L 93.576116 89.90643 
L 93.676983 89.987309 
L 93.732791 89.887094 
L 93.870464 90.411988 
L 94.389168 90.620497 
L 94.510193 89.987293 
L 94.56916 90.09754 
L 94.823 90.103473 
L 94.992294 89.519268 
L 94.997906 90.399823 
L 95.129866 90.364017 
L 95.269494 90.864969 
L 95.587058 90.513263 
L 95.61411 89.371946 
L 95.689956 90.111736 
L 96.296268 91.085585 
L 96.546194 94.259634 
L 96.684762 94.447541 
L 96.936109 93.243424 
L 96.966968 93.452265 
L 97.528205 96.392948 
L 97.675791 96.02698 
L 97.849634 97.87503 
L 98.393423 97.87503 
L 98.393697 97.551999 
L 98.753066 97.324705 
L 98.787136 96.67671 
L 98.932524 97.314842 
L 99.131749 96.317833 
L 99.829983 94.801796 
L 100.090709 94.926735 
L 100.127121 95.97455 
L 100.213135 95.264853 
L 100.636517 94.658081 
L 100.641551 94.892467 
L 100.901494 94.085705 
L 101.336689 93.958972 
L 101.48917 93.603637 
L 101.667374 93.794463 
L 102.015982 93.744614 
L 102.160769 94.044273 
L 102.457733 93.622474 
L 102.599609 93.622474 
L 102.606495 92.923463 
L 102.731933 92.471149 
L 103.220021 91.644796 
L 103.286715 91.181061 
L 103.425087 91.172301 
L 103.741585 93.622194 
L 103.857275 93.622194 
L 103.872355 92.816759 
L 103.979683 94.108457 
L 104.189139 93.944902 
L 104.479345 95.26664 
L 104.561523 95.352184 
L 104.698292 94.417519 
L 105.42146 97.364683 
L 105.766694 97.364683 
L 105.775804 98.572276 
L 105.984433 99.017886 
L 106.399754 98.385616 
L 106.411648 97.286918 
L 106.533098 97.303863 
L 106.698074 97.721236 
L 107.047819 97.721236 
L 107.059857 96.870796 
L 107.110691 98.376067 
L 107.243448 98.927416 
L 107.517362 99.206893 
L 107.720532 98.873676 
L 107.804128 97.871041 
L 108.121117 96.799289 
L 108.307672 96.799289 
L 108.311981 97.866904 
L 108.376497 97.009862 
L 108.526072 96.645328 
L 108.91623 97.275224 
L 108.947623 96.102923 
L 109.544068 97.392839 
L 109.646643 96.234586 
L 109.785896 97.120254 
L 110.099361 97.101721 
L 110.206378 97.776683 
L 110.213218 98.682623 
L 110.356494 98.288479 
L 110.52971 98.662863 
L 110.768386 98.453755 
L 110.839955 96.906855 
L 110.918297 97.004008 
L 111.052152 96.333685 
L 111.501866 95.574357 
L 111.50723 95.786585 
L 112.09519 96.341099 
L 112.189628 97.716102 
L 112.322035 97.027606 
L 112.627749 97.418561 
L 112.745412 96.855698 
L 112.875876 97.066437 
L 113.354889 97.265286 
L 113.359351 96.510036 
L 113.459532 98.351367 
L 113.613211 98.575042 
L 114.045302 97.486532 
L 114.140979 99.209121 
L 114.621468 97.872709 
L 114.649164 98.236591 
L 114.724684 98.062261 
L 114.846992 97.760231 
L 115.280832 97.338828 
L 115.287377 96.88742 
L 115.411671 96.761113 
L 115.605834 95.588382 
L 115.824017 95.128116 
L 115.928394 95.26869 
L 115.983018 95.221168 
L 116.114481 93.972365 
L 116.579021 94.534844 
L 116.581817 94.389125 
L 116.677003 93.234742 
L 116.886603 92.355648 
L 117.190324 92.355648 
L 117.205331 93.424158 
L 117.25496 92.976922 
L 117.875676 92.984481 
L 117.947704 92.238256 
L 118.092003 91.41456 
L 118.23843 91.363043 
L 118.468647 91.706699 
L 118.650409 93.283917 
L 118.803471 92.463601 
L 119.021973 92.485969 
L 119.097467 92.819967 
L 119.236818 92.902644 
L 119.35721 92.747979 
L 119.722162 92.780997 
L 119.773262 93.86257 
L 119.912379 93.411586 
L 120.05264 93.567049 
L 120.43061 93.585829 
L 120.616592 95.553482 
L 121.025917 95.48122 
L 121.028664 95.05821 
L 121.04478 95.149918 
L 121.182598 93.86291 
L 121.893165 94.156198 
L 122.242621 94.221844 
L 122.303691 93.160908 
L 122.436544 92.824394 
L 122.595905 93.852565 
L 122.926871 93.852565 
L 123.008883 92.575678 
L 123.708004 95.130411 
L 124.190602 94.624928 
L 124.193519 94.229223 
L 124.26469 94.313713 
L 124.400283 94.278425 
L 124.570969 93.228289 
L 124.954767 91.782687 
L 125.20554 91.460894 
L 125.458161 91.65584 
L 125.522685 90.293556 
L 125.671108 90.029217 
L 126.09369 89.971985 
L 126.097523 90.581457 
L 126.692094 90.125166 
L 126.789247 91.051874 
L 126.926319 90.668286 
L 127.524356 90.548052 
L 127.569953 89.845062 
L 127.713198 91.89566 
L 128.201951 95.169278 
L 128.571845 94.241327 
L 128.757772 95.735159 
L 128.894919 96.108686 
L 129.321519 95.286218 
L 129.329497 96.162724 
L 129.469717 96.398733 
L 129.627963 96.394433 
L 129.907078 97.569083 
L 130.025631 96.564585 
L 130.330946 95.792124 
L 130.387449 94.519566 
L 130.503273 95.109065 
L 130.58766 94.998486 
L 130.732553 94.601204 
L 130.928162 94.845041 
L 131.17581 94.845041 
L 131.292314 94.04423 
L 131.485752 94.227296 
L 131.778046 93.536695 
L 131.779701 93.602417 
L 132.128392 93.597868 
L 132.438291 92.973638 
L 132.568679 93.544307 
L 132.707753 92.958971 
L 133.137553 92.153246 
L 133.267757 93.139999 
L 133.485167 93.183777 
L 133.744156 93.897957 
L 133.833849 93.792278 
L 133.967045 93.944152 
L 134.342205 95.029328 
L 134.388585 93.827181 
L 134.544656 94.205983 
L 134.985668 94.947113 
L 135.098996 92.645878 
L 135.231929 93.065186 
L 135.594461 92.918212 
L 135.798412 94.723286 
L 136.259962 93.225614 
L 136.508291 94.681821 
L 136.810319 94.163016 
L 136.850926 93.752421 
L 136.930585 94.377815 
L 137.068743 94.34418 
L 137.646729 93.897325 
L 138.190224 93.071921 
L 138.19557 93.150679 
L 138.345558 94.303346 
L 138.475367 93.996164 
L 138.809281 93.996164 
L 138.809868 94.491662 
L 138.894795 92.781259 
L 139.03728 92.327717 
L 139.421427 91.627105 
L 139.449574 89.681922 
L 139.608019 90.105825 
L 140.088656 90.113896 
L 140.288996 89.308521 
L 140.703713 89.082388 
L 140.858101 88.716466 
L 140.870483 88.349525 
L 141.028079 87.89542 
L 141.242329 87.89542 
L 141.347708 88.752304 
L 141.419632 90.024125 
L 141.589697 89.16481 
L 141.938666 89.357454 
L 141.945791 89.672513 
L 142.01303 89.659279 
L 142.136554 90.214502 
L 142.602893 91.202902 
L 142.701635 93.226974 
L 142.850044 93.555707 
L 143.32718 93.945382 
L 143.336723 94.426482 
L 143.400487 92.567329 
L 143.972042 92.590333 
L 144.122628 92.03 
L 144.478023 92.266373 
L 144.479764 91.777742 
L 144.543853 91.830141 
L 144.69437 92.727991 
L 144.860851 92.322899 
L 145.048814 92.346462 
L 145.130897 92.123743 
L 145.265303 92.130839 
L 145.381204 92.530876 
L 145.85953 92.71966 
L 145.860717 92.933269 
L 145.939715 92.477744 
L 146.469007 92.491994 
L 146.46936 92.387674 
L 146.515985 93.967213 
L 146.62388 94.813836 
L 146.864344 94.181996 
L 147.072009 94.454291 
L 147.249572 95.528226 
L 147.678514 95.279988 
L 147.767817 96.001099 
L 147.918447 94.597761 
L 148.339371 94.722236 
L 148.51519 95.019016 
L 148.749845 93.999882 
L 148.977445 93.706373 
L 149.040112 92.784419 
L 149.19076 92.440619 
L 149.633294 93.070287 
L 149.760696 93.530014 
L 150.00785 93.234382 
L 150.298859 93.874957 
L 150.300017 93.520807 
L 150.32797 94.49071 
L 150.778123 94.265619 
L 150.887249 94.308179 
L 150.891364 93.505842 
L 151.025496 94.029813 
L 151.484012 96.854977 
L 151.585795 93.995436 
L 151.768288 93.596133 
L 152.162643 93.927888 
L 152.165771 93.848038 
L 152.175415 94.906096 
L 152.409522 96.14497 
L 152.98979 100.846682 
L 153.276652 102.463323 
L 153.371815 101.776927 
L 153.416846 102.197876 
L 153.556518 102.565091 
L 154.013268 102.992911 
L 154.015267 102.352317 
L 154.791745 99.234706 
L 154.832216 96.083631 
L 154.985835 94.169521 
L 155.356685 94.169521 
L 155.404506 88.90358 
L 155.556748 87.426304 
L 155.957584 86.397694 
L 155.979902 87.272113 
L 156.115056 86.861119 
L 156.586069 86.263409 
L 156.669448 83.270761 
L 156.818053 83.034226 
L 157.129705 83.680438 
L 157.186324 82.738291 
L 157.230572 83.003829 
L 157.385246 83.330778 
L 157.547905 84.517642 
L 157.824675 85.036037 
L 157.825669 86.256317 
L 157.990318 87.846463 
L 158.459405 89.649336 
L 158.512099 95.131945 
L 158.652778 96.760804 
L 159.093834 99.091699 
L 159.094198 102.018754 
L 159.355452 106.178804 
L 159.787222 107.755067 
L 159.787476 110.971304 
L 159.916966 113.166874 
L 160.26084 113.913552 
L 160.421342 117.087307 
L 160.482911 118.232867 
L 160.655238 119.276599 
L 161.464908 117.441701 
L 161.700055 117.441701 
L 161.759045 110.355504 
L 161.914724 108.291234 
L 162.305361 105.527119 
L 162.345052 101.848143 
L 162.621712 94.961714 
L 162.920676 94.961714 
L 163.168543 83.127486 
L 163.540929 81.410304 
L 163.734762 74.098942 
L 164.294962 68.909124 
L 164.450436 68.538698 
L 164.856156 67.872814 
L 164.856627 67.904856 
L 164.863203 68.512861 
L 164.996896 69.355127 
L 165.513423 71.308268 
L 165.692826 76.871493 
L 166.088431 78.54478 
L 166.120049 81.294738 
L 166.958007 95.463265 
L 167.076941 99.079888 
L 167.461161 102.223557 
L 167.465297 104.359277 
L 167.523929 103.3539 
L 168.04865 102.936072 
L 168.243641 100.264571 
L 168.443594 100.117782 
L 168.644979 100.117782 
L 168.649875 99.211836 
L 168.789027 98.599415 
L 169.328428 98.287158 
L 169.350275 97.32636 
L 169.518056 98.390365 
L 170.068907 97.139132 
L 170.551877 95.038783 
L 170.619992 88.943743 
L 170.903823 81.585411 
L 171.195866 77.942887 
L 171.199067 73.632888 
L 171.463908 67.563123 
L 171.822526 64.902072 
L 171.891729 60.42635 
L 172.024383 59.242184 
L 172.446482 57.747307 
L 172.463151 55.742209 
L 172.834073 55.423411 
L 173.086012 55.356469 
L 173.145141 58.238893 
L 173.77371 66.154312 
L 173.855243 73.230771 
L 174.352924 79.872189 
L 174.421653 89.09352 
L 174.734576 98.819695 
L 175.005705 104.745146 
L 175.007464 108.512647 
L 175.269648 116.32426 
L 175.830692 128.706473 
L 176.332621 131.004799 
L 176.416572 134.990468 
L 176.541363 135.7436 
L 176.916843 135.744614 
L 176.920456 136.640322 
L 176.974626 136.22462 
L 177.117645 135.735318 
L 177.419653 135.236568 
L 177.505989 133.440103 
L 177.818412 122.263037 
L 178.172834 117.514716 
L 178.252019 108.416335 
L 178.804981 95.27298 
L 178.975263 86.343276 
L 180.244364 53.878101 
L 180.400389 52.334557 
L 180.748384 51.28158 
L 180.750091 50.312566 
L 180.806259 50.468272 
L 180.955003 50.407383 
L 181.359034 50.68434 
L 181.549487 56.197176 
L 181.690121 59.524843 
L 182.009707 59.524843 
L 182.076452 69.257078 
L 182.234317 73.373616 
L 182.654689 78.157944 
L 182.657026 83.279659 
L 183.001237 98.142368 
L 183.277202 98.142368 
L 183.344317 111.549869 
L 183.626179 120.762085 
L 183.874845 120.762085 
L 183.933533 126.277793 
L 184.057096 129.284302 
L 184.618865 131.513845 
L 184.620061 136.523745 
L 185.201467 137.99436 
L 185.201675 138.62682 
L 185.316261 139.564182 
L 185.824683 139.017733 
L 185.878501 132.877567 
L 186.078925 130.493436 
L 186.196784 127.207556 
L 186.473447 127.207556 
L 186.581307 114.351667 
L 186.773575 108.430192 
L 187.064884 102.912404 
L 187.309331 87.383662 
L 187.740809 82.400176 
L 187.874606 69.342116 
L 188.045497 65.573333 
L 188.365092 61.603352 
L 188.444834 55.527397 
L 188.771826 52.159626 
L 188.997753 52.159626 
L 189.031304 51.35029 
L 189.128546 51.883769 
L 189.261959 51.773613 
L 189.646338 51.945655 
L 189.684177 56.146056 
L 189.834068 58.592747 
L 190.232562 61.300304 
L 190.260425 69.490387 
L 190.389095 73.0741 
L 190.902586 82.263693 
L 190.977355 94.504433 
L 191.112036 101.078428 
L 191.551884 106.025095 
L 191.552927 111.845262 
L 191.798982 127.92621 
L 192.176562 131.159863 
L 192.231538 136.008149 
L 192.519878 140.486019 
L 192.802748 140.486019 
L 192.804227 142.240621 
L 193.177668 146.144263 
L 193.415769 146.220363 
L 193.527907 145.307803 
L 193.686757 144.231339 
L 194.075335 142.420435 
L 194.244722 138.495262 
L 194.700562 135.654894 
L 194.944839 118.260616 
L 195.166636 114.032951 
L 195.350698 102.189899 
L 195.53662 97.113237 
L 196.188407 70.333017 
L 196.603569 65.477788 
L 196.621356 55.841359 
L 196.9806 49.376696 
L 197.317077 47.732377 
L 197.326455 44.903805 
L 197.459235 44.114203 
L 197.926245 43.927673 
L 198.042753 48.758563 
L 198.203795 51.471757 
L 198.714022 51.471757 
L 198.714559 54.719758 
L 198.956707 66.739258 
L 199.156877 70.858068 
L 199.163442 81.820218 
L 199.480677 94.673017 
L 199.758934 100.496818 
L 199.845043 112.215446 
L 200.129285 126.062461 
L 200.452215 130.595646 
L 200.455415 135.480869 
L 200.682345 141.973638 
L 201.075371 145.017523 
L 201.113667 148.813584 
L 201.254696 150.500886 
L 201.754352 152.904545 
L 201.835432 152.833568 
L 202.360384 151.766499 
L 202.375319 149.467137 
L 202.942076 142.243964 
L 202.950749 138.624118 
L 203.767738 109.085471 
L 204.240871 104.081808 
L 204.328094 86.784189 
L 205.205783 56.290151 
L 205.622606 56.290151 
L 205.743204 43.216785 
L 206.207747 42.531725 
L 206.306569 41.031257 
L 206.800749 42.995489 
L 206.863743 48.206403 
L 207.002305 51.418499 
L 207.436432 54.92479 
L 207.518734 63.950204 
L 207.741998 73.810386 
L 208.045903 73.810386 
L 208.129984 92.055388 
L 208.268004 99.78867 
L 208.658714 107.63042 
L 208.689376 121.96134 
L 209.190591 139.754366 
L 209.192226 139.754366 
L 209.538217 149.986343 
L 209.926341 152.788008 
L 209.965668 157.027307 
L 210.110215 158.256134 
L 210.693513 160.029407 
L 210.820271 158.679346 
L 211.034435 157.726459 
L 211.267205 153.925524 
L 211.865909 139.544647 
L 212.107961 128.478511 
L 212.441275 122.289686 
L 212.50236 110.597054 
L 212.89376 98.183941 
L 213.151513 91.217017 
L 213.397274 73.910566 
L 213.778996 67.333952 
L 213.782381 56.690407 
L 213.905552 52.168007 
L 214.425175 46.948186 
L 214.482487 38.089922 
L 214.610447 36.040507 
L 215.214716 34.061408 
L 215.667995 42.279737 
L 215.863887 48.839095 
L 216.344781 53.727837 
L 216.430228 71.433658 
L 216.920171 82.076126 
L 217.140965 104.452715 
L 217.554074 113.492685 
L 217.563617 128.503699 
L 217.845424 139.506564 
L 218.230129 144.598399 
L 218.279204 152.829198 
L 218.571576 158.700314 
L 218.91675 160.915798 
L 218.919103 162.914832 
L 219.682471 165.128294 
L 220.106272 164.056724 
L 220.109311 162.545096 
L 220.390803 151.911822 
L 220.751044 146.435087 
L 220.810812 134.494797 
L 220.973532 128.298727 
L 221.388674 121.505875 
L 221.390517 114.97592 
L 221.646268 94.630373 
L 221.929667 88.137886 
L 222.119849 80.883039 
L 222.24765 66.43209 
L 222.679599 54.725978 
L 222.778355 44.06597 
L 222.93453 39.658678 
L 223.23711 36.768752 
L 223.356615 32.925753 
L 223.494985 32.134483 
L 223.684306 32.182291 
L 224.168397 32.263199 
L 224.224372 37.513572 
L 224.583123 39.531261 
L 224.615448 46.155385 
L 225.183092 55.375087 
L 225.471519 80.262088 
L 225.865556 86.995376 
L 225.889497 102.428641 
L 226.025631 109.954715 
L 226.506256 117.310123 
L 226.755162 141.274597 
L 227.373036 145.316602 
L 227.955083 163.03761 
L 228.436147 161.712443 
L 228.584356 159.254509 
L 228.870097 156.756478 
L 229.294424 138.359235 
L 229.679964 132.845408 
L 229.85679 113.17988 
L 230.1362 106.589231 
L 230.269691 106.589231 
L 230.291119 93.635059 
L 230.981705 62.518902 
L 231.120054 57.067527 
L 231.474172 52.625406 
L 231.646066 48.039484 
L 231.686285 40.253203 
L 231.824435 36.982053 
L 232.228754 35.289102 
L 232.240827 33.162792 
L 232.385039 33.330389 
L 232.529445 33.695882 
L 232.81587 35.463185 
L 232.820006 37.215304 
L 233.107445 42.777737 
L 233.458739 46.061091 
L 233.462338 50.870598 
L 233.70569 61.075095 
L 234.091371 65.995054 
L 234.205369 83.423462 
L 234.538793 96.646766 
L 234.588798 96.646766 
L 234.761168 103.393116 
L 234.772264 109.074349 
L 235.066275 123.493502 
L 235.408637 123.493502 
L 235.484221 143.12223 
L 235.62893 146.904952 
L 235.873403 149.667022 
L 236.070941 149.667022 
L 236.175015 153.686502 
L 236.404128 153.298749 
L 236.662944 153.298749 
L 236.885504 150.056961 
L 237.258081 148.410228 
L 237.319013 141.193022 
L 237.739894 132.720847 
L 237.945652 132.720847 
L 238.030259 117.6614 
L 238.172813 112.516678 
L 238.526657 107.07483 
L 238.577707 96.320626 
L 238.894835 86.08629 
L 239.150873 80.544631 
L 239.156693 75.346032 
L 239.837565 65.336999 
L 239.843163 53.114129 
L 240.174027 45.043593 
L 240.427888 45.043593 
L 240.555047 39.829081 
L 240.842065 40.973479 
L 241.097331 41.512598 
L 241.102987 42.901922 
L 241.387468 47.710467 
L 241.756268 50.700637 
L 241.801241 57.955449 
L 241.940867 62.331991 
L 242.381388 66.950341 
L 242.505593 82.991341 
L 242.638771 87.75168 
L 243.010084 93.05904 
L 243.06099 106.058657 
L 243.197923 112.60927 
L 243.675007 120.138961 
L 243.76518 135.256607 
L 243.898659 138.284634 
L 244.279447 140.355665 
L 244.458241 146.399758 
L 245.013831 151.100981 
L 245.724731 147.377826 
L 246.048883 147.083902 
L 246.82705 137.696059 
L 246.849651 127.421023 
L 247.693536 93.711933 
L 248.011273 88.392574 
L 248.265093 71.960408 
L 248.446344 67.226449 
L 248.737287 63.219306 
L 248.802831 60.319919 
L 248.93525 60.143795 
L 249.386571 60.475355 
L 249.661818 63.022891 
L 249.979304 63.747561 
L 249.987961 65.932958 
L 250.050995 65.783653 
L 250.189511 65.750216 
L 250.596239 69.050017 
L 250.611163 70.026739 
L 250.760666 70.882672 
L 251.595164 79.710238 
L 251.926011 79.710238 
L 252.035787 79.885965 
L 252.15853 78.819793 
L 252.554739 76.930444 
L 252.580578 77.026234 
L 252.724874 76.969095 
L 252.867335 76.665638 
L 253.22167 77.012223 
L 253.287026 77.93908 
L 253.42385 79.123271 
L 253.859909 80.735803 
L 254.01955 80.073023 
L 254.467902 79.338886 
L 254.56565 78.536693 
L 254.701252 78.974176 
L 255.084464 78.206859 
L 255.0865 77.795177 
L 255.116891 77.872499 
L 255.280211 77.161537 
L 255.956379 77.050662 
L 256.394778 79.997893 
L 256.517527 79.677703 
L 256.993048 79.408694 
L 257.075304 78.812807 
L 257.66854 80.175479 
L 257.950783 73.399227 
L 258.283057 73.399227 
L 258.322875 63.529329 
L 258.467665 61.112736 
L 258.897167 57.327029 
L 258.901812 51.262957 
L 259.039751 47.914412 
L 259.519313 45.4906 
L 259.520321 43.249568 
L 259.669587 44.621944 
L 259.776945 44.399298 
L 260.167285 43.844171 
L 260.168648 46.1621 
L 260.323824 47.133868 
L 260.419548 49.371266 
L 260.834225 52.08056 
L 260.862865 60.466469 
L 260.980138 65.225211 
L 261.310968 70.27737 
L 261.427256 82.492941 
L 261.932224 100.491054 
L 262.145148 106.885733 
L 262.245169 120.241982 
L 262.857385 141.987076 
L 262.983556 146.108818 
L 263.316053 149.442976 
L 263.377894 155.445291 
L 263.652449 159.403764 
L 263.979685 160.576863 
L 264.070791 162.097003 
L 264.215011 162.061348 
L 264.646489 161.468848 
L 264.654164 160.560998 
L 264.931269 158.410112 
L 265.081907 158.410112 
L 265.264285 155.657293 
L 265.348886 148.206626 
L 265.969139 142.59215 
L 266.041043 120.877108 
L 266.530012 97.421854 
L 266.756569 83.493531 
L 266.942812 76.478804 
L 267.144654 76.478804 
L 267.312212 58.593194 
L 267.72777 52.759313 
L 267.883009 41.8471 
L 268.022253 41.835098 
L 268.210148 42.226057 
L 268.446308 42.226057 
L 268.745711 46.915965 
L 269.025722 48.542227 
L 269.288145 54.350332 
L 269.421229 56.908859 
L 269.667805 56.908859 
L 269.691367 61.671653 
L 269.835756 63.144731 
L 270.533603 68.418696 
L 270.72321 67.333265 
L 270.972899 67.177722 
L 271.089647 68.52652 
L 271.859432 70.515473 
L 272.152475 69.960203 
L 272.238439 69.144135 
L 272.348396 70.698134 
L 272.485246 70.167193 
L 272.891535 70.877368 
L 272.906629 72.043091 
L 273.049784 71.690851 
L 273.202762 71.797307 
L 273.475561 71.797307 
L 273.477562 72.54061 
L 273.747334 70.95414 
L 274.805922 73.727659 
L 274.864476 75.358133 
L 275.415061 75.466848 
L 275.423544 76.10095 
L 275.425768 75.31097 
L 275.569261 75.451986 
L 275.916046 75.535306 
L 276.121172 76.870302 
L 276.308009 76.879677 
L 276.700293 76.539276 
L 276.702436 76.749283 
L 276.905177 77.883318 
L 277.011102 79.14814 
L 277.298385 79.14814 
L 277.391853 82.288113 
L 277.527596 83.971271 
L 278.116411 86.668688 
L 278.118337 89.834914 
L 278.278039 94.079814 
L 278.781837 94.079814 
L 278.862224 102.729217 
L 279.262745 104.461187 
L 279.362888 110.138222 
L 279.492572 110.697367 
L 279.96353 112.020081 
L 280.027032 113.361961 
L 280.209903 114.295394 
L 280.607961 115.395377 
L 280.754409 114.648643 
L 281.152097 113.823246 
L 281.175876 109.006922 
L 281.331089 106.359488 
L 281.757868 103.972384 
L 281.912735 97.975622 
L 282.007234 95.464838 
L 282.324102 92.755709 
L 282.722113 83.723262 
L 283.006933 83.723262 
L 283.139635 78.555956 
L 283.272543 77.118641 
L 283.591415 76.022405 
L 283.715787 75.176799 
L 283.71735 73.727659 
L 284.326914 73.039034 
L 284.387268 74.339654 
L 284.565492 73.733427 
L 284.703376 75.128218 
L 284.96201 75.939739 
L 285.080577 78.775397 
L 285.548352 83.447257 
L 285.635605 85.834899 
L 286.484486 101.053531 
L 286.813655 103.06871 
L 286.93604 105.739797 
L 287.046087 108.455125 
L 287.527853 109.785303 
L 287.625067 116.209771 
L 287.836538 116.107581 
L 288.173954 116.107581 
L 288.191379 117.109619 
L 288.328644 116.555042 
L 288.761965 115.870996 
L 288.763499 113.160472 
L 288.875749 111.599763 
L 289.076158 107.410577 
L 289.366301 105.379341 
L 289.462961 100.740931 
L 289.606884 98.325584 
L 289.926718 96.726037 
L 290.03714 94.76086 
L 290.038509 92.431862 
L 290.308304 88.33011 
L 290.598995 86.853462 
L 290.860347 80.20495 
L 291.37742 78.29724 
L 291.411637 73.751447 
L 291.981031 72.076285 
L 292.116552 72.192642 
L 292.472793 73.059219 
L 292.682494 74.9072 
L 293.191468 76.358611 
L 293.237316 81.035912 
L 293.376185 83.042096 
L 293.85134 85.216555 
L 293.936388 93.139374 
L 294.088 95.829147 
L 294.516668 98.152083 
L 294.522245 101.048348 
L 295.090931 107.104315 
L 295.096607 110.51031 
L 295.34497 112.823519 
L 295.726767 113.55395 
L 295.801521 114.050301 
L 295.900699 113.791797 
L 296.415917 113.968435 
L 296.610836 111.631608 
L 296.802526 110.849173 
L 297.046673 110.849173 
L 297.159729 107.116571 
L 297.335882 104.9806 
L 297.44748 104.9806 
L 297.879452 95.470235 
L 298.143773 92.449625 
L 298.552136 83.021155 
L 298.904293 80.968373 
L 298.990722 77.427432 
L 299.247248 74.613471 
L 299.616828 74.613471 
L 299.700767 73.751229 
L 299.704158 72.193427 
L 299.828519 71.944532 
L 300.161278 71.93198 
L 300.314094 72.738487 
L 300.836911 73.355849 
L 300.926165 78.73019 
L 301.233669 82.406851 
L 301.433374 82.406851 
L 301.492211 86.51979 
L 301.783578 90.878313 
L 302.081254 90.878313 
L 302.191064 97.940961 
L 302.753713 100.398185 
L 302.908418 109.892704 
L 303.064334 111.898339 
L 303.372398 111.898339 
L 303.499797 116.718994 
L 303.592269 117.796236 
L 304.159259 121.456435 
L 304.578326 121.93837 
L 304.706572 121.812893 
L 304.86617 119.887624 
L 305.359073 118.50179 
L 305.431335 113.22296 
L 305.576388 111.228186 
L 305.95659 111.228186 
L 305.990137 104.849976 
L 306.529013 102.732563 
L 306.552824 96.08914 
L 306.759233 93.919456 
L 307.595111 83.223041 
L 307.843778 83.223041 
L 307.987944 79.82726 
L 308.142464 79.274376 
L 308.554718 79.274376 
L 308.693113 78.159458 
L 309.161385 78.094769 
L 309.244487 79.218281 
L 309.775527 81.680221 
L 309.804817 82.821046 
L 310.684845 91.042699 
L 310.994776 92.853988 
L 311.220227 97.316205 
L 311.579737 98.612246 
L 311.6462 100.67005 
L 311.7885 101.387342 
L 312.491381 105.434533 
L 312.964985 106.365206 
L 313.055099 105.105863 
L 313.499889 103.136214 
L 313.502801 102.058159 
L 313.627947 101.434486 
L 313.761984 99.985727 
L 314.206973 98.178883 
L 314.324015 94.068059 
L 314.497133 92.565163 
L 314.791397 91.702996 
L 315.134878 88.262919 
L 315.447931 87.339009 
L 315.466199 85.145593 
L 315.761619 83.176218 
L 316.039659 82.675954 
L 316.047033 82.008403 
L 316.315453 80.345739 
L 316.731554 79.610296 
L 317.024573 78.831507 
L 317.419945 78.831507 
L 317.442179 79.775205 
L 318.588392 85.452833 
L 318.696217 87.712571 
L 318.834344 88.774025 
L 319.293258 89.832204 
L 319.394443 93.134163 
L 319.582759 94.264909 
L 319.905014 94.264909 
L 319.966832 96.532486 
L 320.250678 97.758236 
L 320.533917 97.758236 
L 320.541407 98.341048 
L 321.239254 100.10775 
L 321.383946 99.809131 
L 321.711113 99.787892 
L 322.095786 98.447244 
L 322.43501 98.229727 
L 322.491034 96.673849 
L 322.629146 96.054029 
L 323.091606 95.360816 
L 323.20133 92.69262 
L 324.610735 84.230278 
L 324.99985 83.703322 
L 325.18282 82.727256 
L 325.441873 82.525604 
L 325.690514 82.51107 
L 325.887744 83.267899 
L 326.879656 87.579554 
L 327.51407 90.978377 
L 327.742337 92.862611 
L 327.897658 93.680147 
L 328.1644 93.680147 
L 328.333491 95.784998 
L 328.477418 96.249636 
L 328.759072 96.640839 
L 328.856641 97.233846 
L 329.001116 97.407587 
L 329.412254 97.218821 
L 329.829042 96.067364 
L 330.141029 94.034286 
L 330.283592 92.883264 
L 330.730499 91.867081 
L 330.734303 89.827366 
L 331.0051 87.229952 
L 331.296545 86.352941 
L 331.41026 84.089094 
L 331.588785 83.239015 
L 331.987377 82.256419 
L 332.004164 81.523995 
L 332.182469 80.35155 
L 332.572058 80.004885 
L 332.617349 79.657565 
L 332.681059 79.771063 
L 332.828532 79.726994 
L 333.213055 80.154164 
L 333.241548 80.963877 
L 333.559647 82.210139 
L 333.851872 83.007717 
L 334.101659 85.801384 
L 334.559944 86.589242 
L 334.66774 89.447751 
L 334.853844 90.531519 
L 335.162965 91.529931 
L 335.331971 93.091145 
L 335.770681 94.456869 
L 335.927512 96.437329 
L 336.435362 97.203501 
L 336.488134 97.7394 
L 337.085217 97.979416 
L 337.212963 98.379786 
L 337.694206 97.197873 
L 337.698111 97.558013 
L 337.747065 97.147898 
L 337.891488 97.519569 
L 338.307577 97.056511 
L 338.348146 97.401328 
L 338.451642 97.0066 
L 338.841719 97.116945 
L 339.013119 96.625829 
L 339.153076 96.781 
L 339.285392 96.661179 
L 339.589482 97.006854 
L 339.591674 97.78323 
L 339.71131 97.897151 
L 339.925196 99.469084 
L 340.261389 99.469084 
L 340.275608 102.506896 
L 340.585097 105.414014 
L 340.882763 105.414014 
L 340.883052 105.670246 
L 341.126358 109.204083 
L 341.675658 116.674189 
L 342.111139 123.262916 
L 342.381416 135.914418 
L 342.650475 138.999755 
L 342.934543 149.639545 
L 343.49507 156.765624 
L 343.639395 154.001597 
L 344.04794 148.35382 
L 344.201458 143.155013 
L 344.361639 141.253688 
L 344.676526 140.011797 
L 344.771932 130.6131 
L 344.916767 128.552576 
L 345.312861 126.050806 
L 345.338593 120.839732 
L 345.494294 118.082486 
L 345.930761 114.699954 
L 346.181753 100.646838 
L 346.403706 97.504052 
L 346.609152 92.225361 
L 347.214924 90.346322 
L 347.44631 82.713486 
L 347.871688 82.018284 
L 347.873421 82.348337 
L 348.000532 82.368471 
L 348.205623 82.826009 
L 348.460344 82.585006 
L 348.561156 83.364586 
L 349.122971 86.00993 
L 349.139495 90.825283 
L 349.444963 97.705538 
L 349.77023 97.705538 
L 349.843555 112.108807 
L 350.40041 145.495585 
L 350.407212 162.040491 
L 350.6525 210.225392 
L 350.6525 210.225392 
" clip-path="url(#p57e82538f3)" style="fill: none; stroke: var(--c-accent); stroke-width: 0.9; stroke-linecap: square"/>
   </g>
   <g id="line2d_24">
    <path d="M 51.7175 79.650284 
L 364.8875 79.650284 
" clip-path="url(#p57e82538f3)" style="fill: none; stroke: var(--c-faint); stroke-width: 0.8; stroke-linecap: square"/>
   </g>
   <g id="patch_3">
    <path d="M 51.7175 219.129937 
L 51.7175 23.229938 
" style="fill: none; stroke: var(--c-soft); stroke-width: 0.9; stroke-linejoin: miter; stroke-linecap: square"/>
   </g>
   <g id="patch_4">
    <path d="M 51.7175 219.129938 
L 364.8875 219.129938 
" style="fill: none; stroke: var(--c-soft); stroke-width: 0.9; stroke-linejoin: miter; stroke-linecap: square"/>
   </g>
   <g id="text_14">
    <text style="fill: var(--c-soft); font: 8.8px 'Newsreader', 'Georgia', 'DejaVu Serif', serif" transform="translate(61.1126 201.439863)">operator pulls throttle</text>
    <text style="fill: var(--c-soft); font: 8.8px 'Newsreader', 'Georgia', 'DejaVu Serif', serif" transform="translate(61.1126 211.293938)">to stop the oscillation</text>
   </g>
   <g id="text_15">
    <text style="fill: var(--c-ink); font: 700 13.2px 'Newsreader', 'Georgia', 'DejaVu Serif', serif; text-anchor: start" x="51.7175" y="17.229938" transform="rotate(-0 51.7175 17.229938)">Throttle up → roll diverges into a limit cycle</text>
   </g>
  </g>
  <g id="axes_2">
   <g id="patch_5">
    <path d="M 452.1775 219.129938 
L 660.9575 219.129938 
L 660.9575 23.229938 
L 452.1775 23.229938 
z
" style="fill: var(--c-paper)"/>
   </g>
   <g id="matplotlib.axis_3">
    <g id="xtick_6">
     <g id="line2d_25">
      <path d="M 476.023187 219.129938 
L 476.023187 23.229938 
" clip-path="url(#pb63a5ccf37)" style="fill: none; stroke: var(--c-grid); stroke-width: 0.8; stroke-linecap: square"/>
     </g>
     <g id="line2d_26">
      <g>
       <use xlink:href="#m82d197ef0b" x="476.023187" y="219.129938" style="fill: var(--c-soft); stroke: var(--c-soft); stroke-width: 0.8"/>
      </g>
     </g>
     <g id="text_16">
      <text style="fill: var(--c-soft); font: 11px 'Newsreader', 'Georgia', 'DejaVu Serif', serif; text-anchor: middle" x="476.023187" y="233.988219" transform="rotate(-0 476.023187 233.988219)">40</text>
     </g>
    </g>
    <g id="xtick_7">
     <g id="line2d_27">
      <path d="M 543.827603 219.129938 
L 543.827603 23.229938 
" clip-path="url(#pb63a5ccf37)" style="fill: none; stroke: var(--c-grid); stroke-width: 0.8; stroke-linecap: square"/>
     </g>
     <g id="line2d_28">
      <g>
       <use xlink:href="#m82d197ef0b" x="543.827603" y="219.129938" style="fill: var(--c-soft); stroke: var(--c-soft); stroke-width: 0.8"/>
      </g>
     </g>
     <g id="text_17">
      <text style="fill: var(--c-soft); font: 11px 'Newsreader', 'Georgia', 'DejaVu Serif', serif; text-anchor: middle" x="543.827603" y="233.988219" transform="rotate(-0 543.827603 233.988219)">50</text>
     </g>
    </g>
    <g id="xtick_8">
     <g id="line2d_29">
      <path d="M 611.632019 219.129938 
L 611.632019 23.229938 
" clip-path="url(#pb63a5ccf37)" style="fill: none; stroke: var(--c-grid); stroke-width: 0.8; stroke-linecap: square"/>
     </g>
     <g id="line2d_30">
      <g>
       <use xlink:href="#m82d197ef0b" x="611.632019" y="219.129938" style="fill: var(--c-soft); stroke: var(--c-soft); stroke-width: 0.8"/>
      </g>
     </g>
     <g id="text_18">
      <text style="fill: var(--c-soft); font: 11px 'Newsreader', 'Georgia', 'DejaVu Serif', serif; text-anchor: middle" x="611.632019" y="233.988219" transform="rotate(-0 611.632019 233.988219)">60</text>
     </g>
    </g>
    <g id="text_19">
     <text style="fill: var(--c-ink); font: 11px 'Newsreader', 'Georgia', 'DejaVu Serif', serif; text-anchor: middle" x="556.5675" y="248.634156" transform="rotate(-0 556.5675 248.634156)">time  [s]</text>
    </g>
   </g>
   <g id="matplotlib.axis_4">
    <g id="ytick_7">
     <g id="line2d_31">
      <path d="M 452.1775 200.77659 
L 660.9575 200.77659 
" clip-path="url(#pb63a5ccf37)" style="fill: none; stroke: var(--c-grid); stroke-width: 0.8; stroke-linecap: square"/>
     </g>
     <g id="line2d_32">
      <defs>
       <path id="m0ff7097023" d="M 0 0 
L -3 0 
" style="stroke: var(--c-soft); stroke-width: 0.8"/>
      </defs>
      <g>
       <use xlink:href="#m0ff7097023" x="452.1775" y="200.77659" style="fill: var(--c-soft); stroke: var(--c-soft); stroke-width: 0.8"/>
      </g>
     </g>
     <g id="text_20">
      <text style="fill: var(--c-soft); font: 11px 'Newsreader', 'Georgia', 'DejaVu Serif', serif; text-anchor: end" x="445.6775" y="204.955731" transform="rotate(-0 445.6775 204.955731)">−4</text>
     </g>
    </g>
    <g id="ytick_8">
     <g id="line2d_33">
      <path d="M 452.1775 161.087226 
L 660.9575 161.087226 
" clip-path="url(#pb63a5ccf37)" style="fill: none; stroke: var(--c-grid); stroke-width: 0.8; stroke-linecap: square"/>
     </g>
     <g id="line2d_34">
      <g>
       <use xlink:href="#m0ff7097023" x="452.1775" y="161.087226" style="fill: var(--c-soft); stroke: var(--c-soft); stroke-width: 0.8"/>
      </g>
     </g>
     <g id="text_21">
      <text style="fill: var(--c-soft); font: 11px 'Newsreader', 'Georgia', 'DejaVu Serif', serif; text-anchor: end" x="445.6775" y="165.266367" transform="rotate(-0 445.6775 165.266367)">−2</text>
     </g>
    </g>
    <g id="ytick_9">
     <g id="line2d_35">
      <path d="M 452.1775 121.397862 
L 660.9575 121.397862 
" clip-path="url(#pb63a5ccf37)" style="fill: none; stroke: var(--c-grid); stroke-width: 0.8; stroke-linecap: square"/>
     </g>
     <g id="line2d_36">
      <g>
       <use xlink:href="#m0ff7097023" x="452.1775" y="121.397862" style="fill: var(--c-soft); stroke: var(--c-soft); stroke-width: 0.8"/>
      </g>
     </g>
     <g id="text_22">
      <text style="fill: var(--c-soft); font: 11px 'Newsreader', 'Georgia', 'DejaVu Serif', serif; text-anchor: end" x="445.6775" y="125.577002" transform="rotate(-0 445.6775 125.577002)">0</text>
     </g>
    </g>
    <g id="ytick_10">
     <g id="line2d_37">
      <path d="M 452.1775 81.708498 
L 660.9575 81.708498 
" clip-path="url(#pb63a5ccf37)" style="fill: none; stroke: var(--c-grid); stroke-width: 0.8; stroke-linecap: square"/>
     </g>
     <g id="line2d_38">
      <g>
       <use xlink:href="#m0ff7097023" x="452.1775" y="81.708498" style="fill: var(--c-soft); stroke: var(--c-soft); stroke-width: 0.8"/>
      </g>
     </g>
     <g id="text_23">
      <text style="fill: var(--c-soft); font: 11px 'Newsreader', 'Georgia', 'DejaVu Serif', serif; text-anchor: end" x="445.6775" y="85.887638" transform="rotate(-0 445.6775 85.887638)">2</text>
     </g>
    </g>
    <g id="ytick_11">
     <g id="line2d_39">
      <path d="M 452.1775 42.019134 
L 660.9575 42.019134 
" clip-path="url(#pb63a5ccf37)" style="fill: none; stroke: var(--c-grid); stroke-width: 0.8; stroke-linecap: square"/>
     </g>
     <g id="line2d_40">
      <g>
       <use xlink:href="#m0ff7097023" x="452.1775" y="42.019134" style="fill: var(--c-soft); stroke: var(--c-soft); stroke-width: 0.8"/>
      </g>
     </g>
     <g id="text_24">
      <text style="fill: var(--c-soft); font: 11px 'Newsreader', 'Georgia', 'DejaVu Serif', serif; text-anchor: end" x="445.6775" y="46.198274" transform="rotate(-0 445.6775 46.198274)">4</text>
     </g>
    </g>
    <g id="text_25">
     <text style="fill: var(--c-ink); font: 11px 'Newsreader', 'Georgia', 'DejaVu Serif', serif; text-anchor: middle" x="423.173438" y="121.179938" transform="rotate(-90 423.173438 121.179938)">normalized</text>
    </g>
   </g>
   <g id="line2d_41">
    <path d="M 461.6675 117.188288 
L 462.036878 116.502651 
L 462.945166 116.729193 
L 462.984858 118.681002 
L 463.635123 114.783457 
L 464.27182 113.385854 
L 464.508614 113.576057 
L 464.639625 113.34038 
L 464.962822 114.574778 
L 466.180514 115.065129 
L 466.464629 113.576018 
L 466.594203 113.899271 
L 466.603058 113.835289 
L 467.198964 113.849239 
L 467.362461 112.47536 
L 467.596393 112.47536 
L 467.609567 114.546169 
L 467.919352 114.461962 
L 468.247139 115.640055 
L 468.992642 114.812947 
L 469.056147 112.128903 
L 469.234202 113.868671 
L 470.657559 116.158878 
L 471.052791 122.708626 
L 471.244277 123.623312 
L 471.569576 124.065214 
L 472.15963 121.233484 
L 472.232072 121.724617 
L 473.549614 128.640239 
L 473.896081 127.779591 
L 474.304189 132.125661 
L 475.58077 132.125661 
L 475.581414 131.365988 
L 476.425057 130.831458 
L 476.505039 129.307565 
L 476.846346 130.808264 
L 477.31404 128.463591 
L 478.029641 126.606137 
L 478.143587 127.01059 
L 478.497146 124.953159 
L 478.953192 124.898318 
L 479.565262 125.192138 
L 479.650743 127.656292 
L 479.852665 125.98729 
L 480.622197 125.054388 
L 480.846583 124.560341 
L 480.858401 125.111549 
L 481.159147 123.503582 
L 481.468634 123.214281 
L 482.420716 122.811359 
L 482.490284 122.916241 
L 482.848244 122.080599 
L 483.26659 122.529366 
L 483.822457 122.540482 
L 484.084969 122.412136 
L 484.424866 123.116845 
L 485.12201 122.124897 
L 485.455072 122.124897 
L 485.471237 120.481028 
L 485.765712 119.417319 
L 486.911532 117.473979 
L 487.068099 116.383412 
L 487.392936 116.362811 
L 488.135937 122.124239 
L 488.407528 122.124239 
L 488.442928 120.230093 
L 488.69489 123.267788 
L 489.1866 122.883155 
L 489.616446 125.292144 
L 489.867879 125.991495 
L 490.060796 126.192667 
L 490.38187 123.99461 
L 491.678019 129.973618 
L 492.079557 130.925475 
L 492.890017 130.925475 
L 492.911402 133.76538 
L 493.401174 134.813323 
L 494.376167 133.326409 
L 494.404089 130.742595 
L 494.6892 130.782444 
L 495.076492 131.763983 
L 495.897542 131.763983 
L 495.925803 129.763998 
L 496.045139 133.303954 
L 496.356795 134.600565 
L 496.999825 135.257814 
L 497.476782 134.474185 
L 497.480491 133.21408 
L 497.673028 132.11628 
L 498.417182 129.595835 
L 498.85513 129.595835 
L 498.865247 132.106552 
L 499.016702 130.09104 
L 499.36784 129.233765 
L 500.283763 130.715094 
L 500.357459 127.958185 
L 501.012965 129.143963 
L 501.757654 130.99169 
L 501.762672 129.966913 
L 501.998455 128.267818 
L 502.32536 130.35065 
L 503.061242 130.307067 
L 503.312471 131.894379 
L 503.328527 134.024883 
L 503.664877 133.097973 
L 504.071514 133.978415 
L 504.631823 133.486653 
L 504.799835 129.848799 
L 504.983748 130.077273 
L 505.297981 128.50087 
L 506.353716 126.715154 
L 506.366307 127.214251 
L 507.563964 128.518305 
L 507.746581 128.518305 
L 507.945079 129.975387 
L 507.968281 131.75191 
L 508.279117 130.132769 
L 508.9968 131.052182 
L 509.273021 129.728492 
L 509.579294 130.224089 
L 510.70381 130.691723 
L 510.714286 128.915597 
L 510.949465 133.245866 
L 511.310239 133.771884 
L 512.3246 131.212029 
L 512.325596 132.854183 
L 512.549209 135.263052 
L 513.677189 132.120203 
L 513.742207 132.975947 
L 514.20662 131.855688 
L 515.029982 130.864671 
L 515.22509 130.864671 
L 515.240454 129.803093 
L 515.532244 129.506057 
L 515.988052 126.748137 
L 516.500253 125.665726 
L 516.745285 125.996314 
L 516.873517 125.884558 
L 517.182135 122.947739 
L 518.272674 124.270525 
L 518.279238 123.927837 
L 518.502694 121.213067 
L 518.994744 119.145696 
L 519.707748 119.145696 
L 519.742979 121.658517 
L 519.859488 120.606749 
L 521.316659 120.624527 
L 521.332505 119.349167 
L 521.485749 118.869624 
L 521.8245 116.932531 
L 522.168248 116.811378 
L 522.708697 117.619556 
L 522.803176 118.961668 
L 523.135397 121.328712 
L 523.49472 119.399568 
L 524.007667 119.45217 
L 524.184894 120.237638 
L 524.51203 120.43207 
L 524.794659 120.068343 
L 525.651409 120.14599 
L 525.771368 122.689533 
L 526.097955 121.62895 
L 526.427227 121.994555 
L 527.314536 122.038719 
L 527.534283 125.695924 
L 527.751142 126.666063 
L 528.712059 126.496123 
L 528.718507 125.501329 
L 528.756342 125.716998 
L 529.079878 122.690333 
L 529.836779 123.038487 
L 530.409197 123.112314 
L 530.747982 123.38006 
L 531.568354 123.534441 
L 531.574741 122.324843 
L 531.71172 121.039431 
L 532.0236 120.248048 
L 532.397711 122.666004 
L 533.174675 122.666004 
L 533.182248 120.029974 
L 533.367205 119.66314 
L 535.008438 125.671123 
L 536.141369 124.482375 
L 536.148217 123.551792 
L 536.315294 123.750488 
L 536.633608 123.667503 
L 537.034305 121.197891 
L 537.935297 117.798259 
L 538.524002 117.041497 
L 539.117047 117.499952 
L 539.268522 114.296259 
L 539.616955 113.674612 
L 540.608995 113.540018 
L 540.617993 114.973318 
L 541.737688 113.900256 
L 542.013787 113.900256 
L 542.241861 116.079601 
L 542.563647 115.177516 
L 543.967578 114.894759 
L 544.074621 113.241534 
L 544.410897 118.063939 
L 545.082812 122.057393 
L 545.218712 124.270629 
L 545.558277 125.762528 
L 546.426627 123.580259 
L 546.565613 125.479443 
L 546.863105 127.093314 
L 547.185067 127.97174 
L 548.186539 126.037536 
L 548.205266 128.09882 
L 548.534443 128.653844 
L 548.905937 128.643732 
L 549.264364 130.566701 
L 549.561178 131.406163 
L 549.839488 129.043881 
L 550.556235 127.227279 
L 550.688881 124.234596 
L 550.960783 125.620924 
L 551.158887 125.360875 
L 551.499035 124.426584 
L 551.958241 125.000016 
L 552.539609 125.000016 
L 552.813112 123.116745 
L 553.267218 123.547261 
L 553.953399 121.92317 
L 553.957284 122.077729 
L 554.77586 122.067032 
L 555.503367 120.599027 
L 555.809464 121.941071 
L 556.135949 120.564535 
L 557.144933 118.669706 
L 557.450595 120.990259 
L 557.960979 121.09321 
L 558.568974 122.772753 
L 558.779534 122.524227 
L 559.092221 122.88139 
L 559.972933 125.433406 
L 560.081813 122.606309 
L 560.448201 123.497139 
L 561.483507 125.24006 
L 561.599879 119.954374 
L 561.749551 119.82823 
L 562.061621 120.81432 
L 562.912688 120.468679 
L 563.073683 123.467261 
L 563.391475 124.713684 
L 564.468149 121.823596 
L 564.474997 121.191601 
L 564.771011 123.762993 
L 565.057966 124.616171 
L 565.766996 123.396095 
L 565.862323 122.430495 
L 566.049327 123.901239 
L 566.373663 123.822138 
L 567.46966 123.2017 
L 569.006413 120.830159 
L 569.018964 121.015375 
L 569.371072 123.72611 
L 569.675806 123.003708 
L 570.459693 123.003708 
L 570.461069 124.168973 
L 570.660441 120.146607 
L 570.994934 119.080009 
L 571.881605 117.827785 
L 571.962822 112.857876 
L 572.334783 113.854772 
L 573.46311 113.873752 
L 573.61809 112.486853 
L 573.933421 111.979746 
L 574.906998 111.447947 
L 575.269433 110.587407 
L 575.2985 109.72447 
L 575.668469 108.656548 
L 576.171435 108.656548 
L 576.418819 110.671686 
L 576.587666 113.662637 
L 576.986905 111.641779 
L 577.806132 112.094822 
L 577.822859 112.83575 
L 577.980708 112.804627 
L 578.270687 114.110348 
L 578.848584 115.098042 
L 579.36545 116.434775 
L 579.368969 119.378016 
L 579.597253 121.194797 
L 579.945652 121.967881 
L 581.065761 122.884282 
L 581.088164 124.015688 
L 581.237855 119.643506 
L 582.579617 119.697605 
L 582.933129 118.379866 
L 583.767442 118.935745 
L 583.77153 117.786629 
L 583.921981 117.909857 
L 584.275331 120.021337 
L 584.666155 119.06868 
L 585.107413 119.124092 
L 585.300106 118.600323 
L 585.615634 118.61701 
L 585.88772 119.55778 
L 587.010622 120.001744 
L 587.013408 120.504089 
L 587.19886 119.432829 
L 588.44141 119.466341 
L 588.442237 119.221011 
L 588.551694 122.935623 
L 588.804984 124.926631 
L 589.36949 123.440729 
L 589.856997 124.081087 
L 590.086298 126.448862 
L 590.273838 126.606667 
L 591.280808 126.022885 
L 591.286463 127.201543 
L 591.490453 127.718726 
L 591.844066 124.418487 
L 592.788175 124.605925 
L 592.789016 124.418703 
L 592.832214 124.711215 
L 593.24496 125.409154 
L 593.79583 123.012451 
L 594.330136 122.322204 
L 594.346646 120.621782 
L 594.477251 120.154039 
L 594.830905 119.345522 
L 595.869784 120.826317 
L 596.168869 121.907458 
L 596.749078 121.212219 
L 597.432242 122.718665 
L 597.434961 121.885807 
L 597.500582 124.166735 
L 598.557348 123.637386 
L 598.813526 123.737476 
L 598.823188 121.850613 
L 599.138072 123.082839 
L 600.214467 129.726796 
L 600.45341 123.001996 
L 600.881825 122.062951 
L 601.8076 122.843141 
L 601.814943 122.655358 
L 601.837583 125.143601 
L 602.387165 128.057068 
L 602.856527 132.24006 
L 603.283627 134.531392 
L 603.300104 136.127147 
L 603.749383 139.114114 
L 604.422809 142.915981 
L 604.646211 141.301779 
L 604.751925 142.291727 
L 605.079814 143.15531 
L 606.152066 144.161416 
L 606.156758 142.654928 
L 606.719067 140.627557 
L 607.061005 138.502549 
L 607.979592 135.323221 
L 608.074599 127.912818 
L 608.435231 123.411392 
L 609.305826 123.411392 
L 609.41809 111.027445 
L 609.775487 107.553323 
L 610.700834 105.487971 
L 610.716476 105.134335 
L 610.768869 107.190712 
L 611.086153 106.224176 
L 612.191887 104.818536 
L 612.387625 97.780706 
L 612.736485 97.224445 
L 613.468108 98.744146 
L 613.601025 96.528493 
L 613.704902 97.15296 
L 614.068008 97.921848 
L 614.449862 100.713004 
L 615.099598 101.932117 
L 615.10193 104.801857 
L 615.488456 108.541415 
L 616.589668 112.781243 
L 616.71337 125.674731 
L 617.043625 129.50533 
L 618.079032 134.98691 
L 618.079887 141.870484 
L 618.394459 148.404331 
L 618.693198 151.653701 
L 619.706806 155.360609 
L 619.707403 162.924256 
L 620.01139 168.087591 
L 620.818656 169.843559 
L 621.190706 174.269953 
L 621.195445 177.3073 
L 621.339984 180.00132 
L 621.744532 182.455873 
L 622.853453 180.150075 
L 623.105333 179.227461 
L 623.169279 179.457628 
L 623.645287 178.140731 
L 624.19731 178.140731 
L 624.335793 161.476075 
L 624.701259 156.621518 
L 625.618307 150.121131 
L 625.711484 141.469258 
L 626.360962 125.274397 
L 627.062799 125.274397 
L 627.314258 104.487316 
L 627.644683 97.443765 
L 628.392538 93.405459 
L 628.518885 93.405459 
L 628.651307 87.516528 
L 628.661349 81.949162 
L 628.973921 76.211279 
L 630.289028 64.006351 
L 630.654012 63.135218 
L 631.606468 61.569253 
L 631.607573 61.644607 
L 631.623012 63.074457 
L 631.936865 65.055219 
L 633.149445 69.648432 
L 633.294133 78.439461 
L 633.570606 82.731505 
L 634.499316 86.666586 
L 634.573542 93.13368 
L 635.334551 105.619351 
L 635.976998 111.703873 
L 636.390463 118.320659 
L 636.540704 126.453897 
L 636.819909 134.959135 
L 637.72189 142.352123 
L 637.7316 147.374708 
L 637.869243 145.010356 
L 639.101059 144.027747 
L 639.220612 141.728457 
L 639.558814 137.745161 
L 640.028217 137.399957 
L 640.500983 137.399957 
L 640.512476 135.269437 
L 640.839144 133.829203 
L 642.105426 133.094866 
L 642.156713 130.83535 
L 642.550589 133.337579 
L 643.843748 130.395045 
L 644.153655 128.724075 
L 644.977553 125.455641 
L 644.989066 118.33867 
L 645.137456 111.121896 
L 645.80377 93.817258 
L 646.489361 85.251111 
L 646.496874 75.115256 
L 647.118606 60.840951 
L 647.960486 54.58294 
L 648.122945 44.057355 
L 648.434358 41.272545 
L 649.425265 37.757033 
L 649.464395 33.04163 
L 650.335159 32.291911 
L 650.918725 32.291911 
L 650.926604 32.134483 
L 651.065413 38.913097 
L 651.4675 44.325708 
L 651.4675 44.325708 
" clip-path="url(#pb63a5ccf37)" style="fill: none; stroke: var(--c-accent); stroke-linecap: square"/>
   </g>
   <g id="line2d_42">
    <path d="M 461.6675 129.695293 
L 462.036878 130.825622 
L 462.945166 130.383112 
L 462.951553 126.43488 
L 462.984858 127.642793 
L 463.323094 130.525255 
L 464.27182 131.449866 
L 464.508614 128.451967 
L 464.639625 129.007489 
L 464.962822 131.117011 
L 465.946162 133.881715 
L 466.180514 132.205065 
L 466.464629 135.732096 
L 466.603058 131.87492 
L 467.198964 138.464511 
L 467.362461 137.503444 
L 467.596393 137.503444 
L 467.609567 132.341504 
L 467.919352 128.962318 
L 468.247139 126.964573 
L 468.992642 126.48275 
L 469.056147 130.006395 
L 469.234202 128.562526 
L 470.657559 122.869351 
L 471.052791 119.158536 
L 471.244277 119.602312 
L 471.569576 114.080355 
L 472.15963 115.200267 
L 472.232072 117.493531 
L 473.549614 123.288805 
L 473.896081 121.286048 
L 474.304189 110.454842 
L 475.58077 110.454842 
L 475.581414 111.020481 
L 476.425057 118.198365 
L 476.505039 112.572942 
L 476.846346 116.092573 
L 477.31404 118.699311 
L 478.029641 119.649709 
L 478.0383 123.077016 
L 478.143587 111.887691 
L 478.497146 118.999079 
L 478.953192 116.86523 
L 479.565262 120.910307 
L 479.650743 110.899718 
L 479.852665 117.90703 
L 480.622197 115.976964 
L 480.846583 122.475521 
L 480.858401 121.076267 
L 481.159147 120.391154 
L 481.468634 122.936828 
L 482.420716 123.745311 
L 482.490284 123.368613 
L 482.848244 127.895508 
L 483.26659 130.350333 
L 483.811344 130.350333 
L 483.822457 125.567891 
L 484.084969 119.342162 
L 484.424866 120.934217 
L 485.12201 119.926815 
L 485.455072 119.926815 
L 485.471237 125.890879 
L 485.765712 122.007317 
L 486.911532 123.193802 
L 487.068099 129.263866 
L 487.392936 127.843684 
L 488.135937 122.049592 
L 488.407528 122.049592 
L 488.442928 122.645601 
L 488.69489 121.725044 
L 489.1866 124.199748 
L 490.060796 113.074414 
L 490.38187 119.520698 
L 491.106001 111.210279 
L 491.339431 117.978708 
L 491.353894 116.559737 
L 491.678019 120.446393 
L 492.079557 120.553609 
L 492.890017 120.553609 
L 492.911402 118.432783 
L 493.401174 115.20404 
L 494.376167 112.816688 
L 494.384311 115.814997 
L 494.404089 110.998493 
L 494.6892 104.66297 
L 495.076492 116.280863 
L 495.897542 116.280863 
L 495.925803 112.81022 
L 496.045139 116.947743 
L 496.356795 119.27212 
L 497.476782 113.257801 
L 497.480491 111.248848 
L 497.673028 114.109812 
L 498.417182 109.492592 
L 498.85513 109.492592 
L 498.865247 114.768643 
L 499.016702 119.124119 
L 500.283763 114.27236 
L 500.357459 110.782677 
L 500.723101 106.607015 
L 501.012965 116.631565 
L 501.757654 116.394651 
L 501.762672 110.955057 
L 501.998455 106.951645 
L 502.32536 112.486761 
L 503.061242 113.175664 
L 503.312471 115.344596 
L 503.328527 106.33775 
L 503.664877 102.654104 
L 504.071514 112.649672 
L 504.631823 109.326931 
L 504.799835 114.360059 
L 504.983748 110.343009 
L 505.297981 114.765412 
L 506.353716 111.200491 
L 506.366307 113.050924 
L 507.746581 112.950072 
L 507.945079 115.105558 
L 507.968281 110.154991 
L 508.279117 116.187056 
L 508.9968 111.568091 
L 509.273021 111.203058 
L 509.579294 109.729427 
L 510.527281 118.372261 
L 510.70381 118.372261 
L 510.714286 116.216727 
L 510.949465 102.95208 
L 511.310239 110.354223 
L 512.3246 113.139624 
L 512.325596 110.556453 
L 512.549209 101.697381 
L 512.874643 111.27 
L 513.677189 111.681506 
L 513.742207 114.696291 
L 513.919495 105.21767 
L 514.20662 114.192947 
L 515.029982 109.597162 
L 515.22509 109.597162 
L 515.240454 114.783738 
L 515.532244 117.57252 
L 515.988052 118.519815 
L 516.500253 120.271436 
L 516.745285 110.980569 
L 516.873517 118.205484 
L 517.182135 126.226684 
L 518.272674 122.719842 
L 518.279238 117.58323 
L 518.502694 126.973527 
L 518.994744 124.624163 
L 519.707748 124.624163 
L 519.859488 117.57525 
L 520.904069 124.726249 
L 521.316659 124.726249 
L 521.332505 120.640487 
L 521.485749 120.635998 
L 521.8245 121.618949 
L 522.168248 125.0031 
L 522.803176 126.018852 
L 523.135397 117.339394 
L 523.49472 119.388377 
L 524.007667 126.367845 
L 524.184894 116.458372 
L 524.51203 123.794628 
L 524.794659 120.097629 
L 525.651409 116.844933 
L 525.771368 121.819922 
L 526.097955 112.168836 
L 526.427227 122.068057 
L 527.308562 122.068057 
L 527.314536 121.669354 
L 527.534283 115.193543 
L 527.751142 112.138297 
L 528.712059 113.122628 
L 528.718507 111.397095 
L 528.756342 115.427932 
L 529.079878 118.485641 
L 529.836779 115.449633 
L 530.149269 118.381338 
L 530.409197 124.860409 
L 530.747982 112.802288 
L 531.568354 118.842948 
L 531.574741 115.371984 
L 531.71172 122.975304 
L 532.0236 125.393501 
L 532.397711 121.176283 
L 533.174675 121.176283 
L 533.182248 119.99731 
L 533.367205 120.216229 
L 534.680848 114.336272 
L 535.008438 116.295425 
L 536.141369 115.889176 
L 536.148217 123.443527 
L 536.315294 123.927152 
L 536.633608 114.175402 
L 537.034305 123.176289 
L 537.706898 129.377609 
L 537.711048 120.078051 
L 538.524002 131.64681 
L 539.117047 121.231375 
L 539.616955 126.663612 
L 540.608995 125.793397 
L 540.617993 131.06891 
L 541.737688 128.867497 
L 542.013787 128.867497 
L 542.241861 124.102183 
L 542.563647 124.397175 
L 543.967578 123.338294 
L 544.074621 128.940156 
L 544.410897 115.1205 
L 545.082812 119.366274 
L 545.218712 116.101644 
L 545.558277 111.085405 
L 546.565613 117.086472 
L 546.863105 120.353326 
L 547.185067 108.112824 
L 548.186539 111.597031 
L 548.205266 114.64129 
L 548.534443 116.099134 
L 548.905937 118.541589 
L 549.264364 108.325618 
L 549.561178 115.143304 
L 549.839488 111.777302 
L 550.556235 117.598351 
L 550.688881 123.357798 
L 550.960783 113.863192 
L 551.158887 112.421012 
L 551.499035 122.092823 
L 551.958241 123.146172 
L 552.539609 123.146172 
L 552.813112 118.276706 
L 553.267218 123.56299 
L 553.953399 124.878268 
L 553.957284 113.356302 
L 554.77586 122.173537 
L 555.503367 119.417987 
L 555.809464 120.087808 
L 556.135949 121.498721 
L 557.144933 117.270481 
L 557.450595 118.800204 
L 557.960979 118.293862 
L 558.545609 124.067411 
L 558.568974 112.104062 
L 558.779534 114.988271 
L 559.092221 116.087116 
L 559.972933 116.779537 
L 559.977523 117.218223 
L 560.081813 111.46241 
L 560.448201 121.806445 
L 561.483507 113.44113 
L 561.749551 118.863928 
L 562.061621 111.944765 
L 562.912688 120.24755 
L 563.073683 118.913405 
L 563.391475 112.012999 
L 563.825458 116.88917 
L 564.468149 117.727875 
L 564.474997 114.835993 
L 564.771011 122.911121 
L 565.057966 118.178001 
L 565.766996 121.186267 
L 565.862323 117.479399 
L 566.049327 120.325687 
L 566.373663 113.744167 
L 567.46966 117.199778 
L 567.730524 119.111531 
L 569.006413 119.054842 
L 569.018964 125.470848 
L 569.371072 114.406235 
L 569.675806 117.744036 
L 570.459693 117.744036 
L 570.461069 120.789473 
L 570.660441 119.339993 
L 570.994934 124.082347 
L 571.881605 118.24058 
L 571.962822 128.500313 
L 572.334783 130.879653 
L 573.46311 121.683716 
L 573.61809 134.766359 
L 573.933421 126.90101 
L 574.906998 129.025827 
L 575.269433 127.457005 
L 575.2985 128.77831 
L 575.668469 133.277337 
L 576.171435 133.277337 
L 576.41134 129.378049 
L 576.418819 131.472007 
L 576.587666 122.017797 
L 576.986905 119.817653 
L 577.806132 114.268236 
L 577.822859 126.95907 
L 577.980708 121.504593 
L 578.270687 126.223972 
L 578.848584 119.780867 
L 579.36545 129.951203 
L 579.368969 116.518661 
L 579.597253 117.050307 
L 579.945652 111.612379 
L 581.065761 117.373581 
L 581.088164 115.016392 
L 581.237855 124.464808 
L 582.579617 121.26125 
L 582.933129 126.498052 
L 583.767442 129.065906 
L 583.77153 124.766168 
L 583.921981 127.603404 
L 584.275331 125.94054 
L 584.666155 120.303117 
L 585.107413 127.278451 
L 585.300106 125.230414 
L 585.615634 123.728793 
L 585.88772 123.415693 
L 586.996546 119.116701 
L 587.010622 124.247534 
L 587.013408 121.150444 
L 587.19886 114.727452 
L 587.723822 115.323763 
L 588.44141 115.323763 
L 588.442237 127.474385 
L 588.551694 116.552529 
L 588.804984 114.897485 
L 589.856997 111.786957 
L 590.044381 112.500201 
L 590.086298 111.837314 
L 590.273838 112.203827 
L 590.987825 111.728182 
L 591.280808 109.737859 
L 591.286463 102.713178 
L 591.490453 109.64212 
L 591.844066 117.590715 
L 592.788175 120.754707 
L 592.789016 125.561448 
L 592.832214 115.516616 
L 593.24496 123.900744 
L 593.79583 123.950065 
L 594.330136 124.81051 
L 594.346646 123.209835 
L 594.477251 122.763537 
L 594.830905 118.533622 
L 595.869784 112.571733 
L 596.168869 120.301858 
L 596.749078 128.423682 
L 597.434961 122.9627 
L 597.500582 120.606525 
L 597.823195 117.448197 
L 598.557348 123.244588 
L 598.813526 115.06245 
L 598.823188 116.573247 
L 599.138072 115.55163 
L 600.214467 106.025301 
L 600.45341 109.19268 
L 600.881825 110.933723 
L 601.8076 109.261587 
L 601.814943 111.839103 
L 601.837583 109.905485 
L 603.283627 98.660809 
L 603.300104 94.859219 
L 603.425556 100.838292 
L 603.749383 95.343806 
L 604.422809 101.376187 
L 604.646211 99.217859 
L 604.751925 99.547665 
L 605.079814 101.54694 
L 606.152066 100.875078 
L 606.156758 104.047143 
L 606.447307 107.239778 
L 606.719067 103.289272 
L 607.061005 113.839119 
L 607.979592 115.666445 
L 608.074599 130.179527 
L 608.435231 134.287882 
L 609.305826 134.287882 
L 609.41809 144.585687 
L 609.775487 140.296089 
L 610.700834 137.344325 
L 610.768869 135.333119 
L 611.086153 134.926319 
L 612.191887 141.990245 
L 612.254423 133.948498 
L 612.387625 134.615107 
L 612.736485 146.270416 
L 613.468108 142.937948 
L 613.601025 141.324435 
L 613.704902 134.355787 
L 614.068008 135.959231 
L 615.099598 128.910465 
L 615.10193 123.166498 
L 616.589668 115.928441 
L 616.71337 99.192054 
L 617.043625 91.900018 
L 618.079032 87.449529 
L 618.079887 82.775732 
L 618.394459 84.5287 
L 618.693198 72.503219 
L 619.706806 76.569488 
L 619.707403 71.900232 
L 620.01139 65.749177 
L 620.818656 67.958503 
L 621.190706 70.999534 
L 621.195445 73.910278 
L 621.339984 71.423947 
L 621.744532 67.529797 
L 622.853453 71.94822 
L 623.105333 80.09428 
L 623.169279 73.98329 
L 623.645287 87.897448 
L 624.19731 87.897448 
L 624.216342 88.365383 
L 624.335793 103.567167 
L 624.701259 112.194545 
L 625.63557 122.15146 
L 625.975474 134.764742 
L 626.360962 145.091131 
L 627.062799 145.091131 
L 627.314258 157.054011 
L 627.644683 164.041429 
L 628.518885 164.126218 
L 628.651307 172.337295 
L 628.661349 172.268397 
L 628.973921 180.554655 
L 630.289028 178.682913 
L 630.654012 175.747968 
L 631.606468 170.106374 
L 631.623012 161.521223 
L 631.936865 160.826626 
L 633.139939 152.656719 
L 633.294133 143.458085 
L 633.570606 134.129824 
L 634.495132 126.975854 
L 634.573542 117.769733 
L 634.940343 118.056641 
L 635.334551 108.384015 
L 635.976998 101.15358 
L 636.390463 98.295805 
L 636.540704 89.347041 
L 636.819909 83.377737 
L 637.72189 78.239787 
L 637.7316 86.770009 
L 637.869243 107.773674 
L 639.101059 104.692922 
L 639.220612 100.043625 
L 639.558814 115.798763 
L 640.028217 114.388878 
L 640.500983 114.388878 
L 640.512476 111.399043 
L 640.839144 117.213856 
L 642.105426 111.344878 
L 642.119353 120.391609 
L 642.156713 113.514467 
L 642.550589 110.046485 
L 643.843748 116.677241 
L 644.153655 122.433763 
L 644.977553 134.530802 
L 644.989066 148.360073 
L 645.137456 167.081357 
L 645.463561 175.836875 
L 645.80377 179.945088 
L 646.489361 186.859627 
L 646.496874 193.260067 
L 646.806869 201.695176 
L 647.118606 196.346875 
L 648.122945 210.225392 
L 648.434358 202.691619 
L 649.425265 198.880368 
L 649.430032 198.929881 
L 649.464395 204.296446 
L 650.335159 195.788466 
L 650.918725 195.788466 
L 650.926604 189.998626 
L 651.065413 173.293971 
L 651.4675 156.254883 
L 651.4675 156.254883 
" clip-path="url(#pb63a5ccf37)" style="fill: none; stroke: var(--c-slate); stroke-linecap: square"/>
   </g>
   <g id="line2d_43">
    <path d="M 452.1775 121.397862 
L 660.9575 121.397862 
" clip-path="url(#pb63a5ccf37)" style="fill: none; stroke: var(--c-faint); stroke-width: 0.8; stroke-linecap: square"/>
   </g>
   <g id="patch_6">
    <path d="M 452.1775 219.129938 
L 452.1775 23.229938 
" style="fill: none; stroke: var(--c-soft); stroke-width: 0.9; stroke-linejoin: miter; stroke-linecap: square"/>
   </g>
   <g id="patch_7">
    <path d="M 452.1775 219.129938 
L 660.9575 219.129938 
" style="fill: none; stroke: var(--c-soft); stroke-width: 0.9; stroke-linejoin: miter; stroke-linecap: square"/>
   </g>
   <g id="text_26">
    <text style="fill: var(--c-soft); font: 8.8px 'Newsreader', 'Georgia', 'DejaVu Serif', serif" transform="translate(460.5287 199.355738)">corr(out, angle) = -0.81</text>
    <text style="fill: var(--c-soft); font: 8.8px 'Newsreader', 'Georgia', 'DejaVu Serif', serif" transform="translate(460.5287 209.334938)">→ closed-loop, not rig swing</text>
   </g>
   <g id="text_27">
    <text style="fill: var(--c-ink); font: 700 13.2px 'Newsreader', 'Georgia', 'DejaVu Serif', serif; text-anchor: start" x="452.1775" y="17.229938" transform="rotate(-0 452.1775 17.229938)">Output fights the angle</text>
   </g>
   <g id="legend_1">
    <g id="line2d_44">
     <path d="M 496.3865 34.756563 
L 505.1865 34.756563 
L 513.9865 34.756563 
" style="fill: none; stroke: var(--c-accent); stroke-linecap: square"/>
    </g>
    <g id="text_28">
     <text style="fill: var(--c-ink); font: 8.8px 'Newsreader', 'Georgia', 'DejaVu Serif', serif; text-anchor: start" x="521.0265" y="37.836563" transform="rotate(-0 521.0265 37.836563)">roll angle</text>
    </g>
    <g id="line2d_45">
     <path d="M 581.12775 34.756563 
L 589.92775 34.756563 
L 598.72775 34.756563 
" style="fill: none; stroke: var(--c-slate); stroke-linecap: square"/>
    </g>
    <g id="text_29">
     <text style="fill: var(--c-ink); font: 8.8px 'Newsreader', 'Georgia', 'DejaVu Serif', serif; text-anchor: start" x="605.76775" y="37.836563" transform="rotate(-0 605.76775 37.836563)">roll output</text>
    </g>
   </g>
  </g>
  <g id="axes_3">
   <g id="matplotlib.axis_5">
    <g id="ytick_12">
     <g id="line2d_46">
      <defs>
       <path id="m91f4e5b4b6" d="M 0 0 
L 3.5 0 
" style="stroke: var(--c-slate); stroke-width: 0.8"/>
      </defs>
      <g>
       <use xlink:href="#m91f4e5b4b6" x="364.8875" y="219.129938" style="fill: var(--c-slate); stroke: var(--c-slate); stroke-width: 0.8"/>
      </g>
     </g>
     <g id="text_30">
      <text style="fill: var(--c-slate); font: 11px 'Newsreader', 'Georgia', 'DejaVu Serif', serif; text-anchor: start" x="371.8875" y="223.309078" transform="rotate(-0 371.8875 223.309078)">0.0</text>
     </g>
    </g>
    <g id="ytick_13">
     <g id="line2d_47">
      <g>
       <use xlink:href="#m91f4e5b4b6" x="364.8875" y="179.949938" style="fill: var(--c-slate); stroke: var(--c-slate); stroke-width: 0.8"/>
      </g>
     </g>
     <g id="text_31">
      <text style="fill: var(--c-slate); font: 11px 'Newsreader', 'Georgia', 'DejaVu Serif', serif; text-anchor: start" x="371.8875" y="184.129078" transform="rotate(-0 371.8875 184.129078)">0.1</text>
     </g>
    </g>
    <g id="ytick_14">
     <g id="line2d_48">
      <g>
       <use xlink:href="#m91f4e5b4b6" x="364.8875" y="140.769938" style="fill: var(--c-slate); stroke: var(--c-slate); stroke-width: 0.8"/>
      </g>
     </g>
     <g id="text_32">
      <text style="fill: var(--c-slate); font: 11px 'Newsreader', 'Georgia', 'DejaVu Serif', serif; text-anchor: start" x="371.8875" y="144.949078" transform="rotate(-0 371.8875 144.949078)">0.2</text>
     </g>
    </g>
    <g id="ytick_15">
     <g id="line2d_49">
      <g>
       <use xlink:href="#m91f4e5b4b6" x="364.8875" y="101.589938" style="fill: var(--c-slate); stroke: var(--c-slate); stroke-width: 0.8"/>
      </g>
     </g>
     <g id="text_33">
      <text style="fill: var(--c-slate); font: 11px 'Newsreader', 'Georgia', 'DejaVu Serif', serif; text-anchor: start" x="371.8875" y="105.769078" transform="rotate(-0 371.8875 105.769078)">0.3</text>
     </g>
    </g>
    <g id="ytick_16">
     <g id="line2d_50">
      <g>
       <use xlink:href="#m91f4e5b4b6" x="364.8875" y="62.409938" style="fill: var(--c-slate); stroke: var(--c-slate); stroke-width: 0.8"/>
      </g>
     </g>
     <g id="text_34">
      <text style="fill: var(--c-slate); font: 11px 'Newsreader', 'Georgia', 'DejaVu Serif', serif; text-anchor: start" x="371.8875" y="66.589078" transform="rotate(-0 371.8875 66.589078)">0.4</text>
     </g>
    </g>
    <g id="ytick_17">
     <g id="line2d_51">
      <g>
       <use xlink:href="#m91f4e5b4b6" x="364.8875" y="23.229938" style="fill: var(--c-slate); stroke: var(--c-slate); stroke-width: 0.8"/>
      </g>
     </g>
     <g id="text_35">
      <text style="fill: var(--c-slate); font: 11px 'Newsreader', 'Georgia', 'DejaVu Serif', serif; text-anchor: start" x="371.8875" y="27.409078" transform="rotate(-0 371.8875 27.409078)">0.5</text>
     </g>
    </g>
    <g id="text_36">
     <text style="fill: var(--c-slate); font: 11px 'Newsreader', 'Georgia', 'DejaVu Serif', serif; text-anchor: middle" x="401.739219" y="121.179938" transform="rotate(-90 401.739219 121.179938)">throttle out</text>
    </g>
   </g>
   <g id="line2d_52">
    <path d="M 65.9525 219.129938 
L 68.365723 219.129938 
L 68.96711 212.469337 
L 69.063879 206.200538 
L 69.264248 201.107137 
L 69.60543 199.148138 
L 69.620079 196.405538 
L 69.758875 193.271138 
L 70.144932 188.569537 
L 70.332324 174.072937 
L 70.558564 173.681139 
L 72.736775 173.681139 
L 72.883596 174.072937 
L 74.592149 174.072937 
L 74.749818 167.020537 
L 74.877283 162.71074 
L 75.258644 161.143537 
L 75.298511 156.441939 
L 75.461892 156.441939 
L 75.883712 154.482935 
L 77.412721 154.482935 
L 77.86262 154.09114 
L 77.955742 144.687938 
L 78.510373 138.419137 
L 81.201905 138.419137 
L 81.679934 138.810938 
L 89.850528 138.810938 
L 89.956627 138.419137 
L 90.074962 138.419137 
L 90.543338 138.810938 
L 90.641107 138.810938 
L 91.176439 138.419137 
L 91.202171 136.068338 
L 91.434478 134.10934 
L 91.768144 133.71754 
L 92.380088 133.71754 
L 92.466745 130.191338 
L 92.624091 130.191338 
L 93.010997 129.799537 
L 93.027905 129.407737 
L 93.3049 129.407737 
L 93.576116 128.624135 
L 93.870464 126.273336 
L 94.510193 125.09794 
L 94.56916 123.530736 
L 94.892645 123.138936 
L 95.587058 123.138936 
L 95.689956 122.35534 
L 96.296268 121.963539 
L 96.544279 118.437338 
L 96.546194 118.437338 
L 96.684762 118.045543 
L 96.966968 118.045543 
L 97.528205 115.302943 
L 97.675791 112.952138 
L 97.849634 112.560332 
L 98.393423 112.560332 
L 98.393697 112.168537 
L 98.753066 112.168537 
L 98.787136 111.776742 
L 99.131749 111.776742 
L 99.485113 112.168537 
L 100.540935 112.168537 
L 100.636517 112.560332 
L 100.641551 112.168537 
L 100.769661 112.168537 
L 100.901494 112.560332 
L 101.336689 112.168537 
L 102.599609 112.168537 
L 102.606495 112.560332 
L 102.731933 112.168537 
L 104.561523 112.168537 
L 104.698292 112.560332 
L 105.112348 112.168537 
L 106.533098 112.168537 
L 106.698074 111.776742 
L 107.243448 111.776742 
L 107.720532 110.209539 
L 107.804128 108.642335 
L 108.121117 108.25054 
L 108.307672 108.25054 
L 108.376497 107.075132 
L 108.947623 107.075132 
L 109.103377 106.683337 
L 109.226851 106.683337 
L 109.544068 106.291542 
L 109.646643 105.899736 
L 114.279605 105.899736 
L 114.621468 105.507941 
L 114.724684 104.724339 
L 114.846992 103.940738 
L 115.280832 103.548943 
L 115.287377 103.157136 
L 125.522685 103.157136 
L 125.671108 102.765341 
L 128.757772 102.765341 
L 128.894919 103.548943 
L 163.540929 103.548943 
L 163.597337 103.940738 
L 163.601615 103.548943 
L 185.878501 103.548943 
L 186.078925 103.940738 
L 186.196784 103.548943 
L 316.731554 103.548943 
L 316.870362 103.940738 
L 317.024573 109.425937 
L 317.419945 109.425937 
L 317.442179 117.653736 
L 317.569171 121.963539 
L 318.129677 125.09794 
L 318.696217 125.09794 
L 318.834344 125.48974 
L 319.293258 125.881535 
L 319.394443 130.97494 
L 325.441873 130.97494 
L 325.690514 131.366735 
L 325.754617 134.501135 
L 325.887744 135.284737 
L 326.879656 136.068338 
L 328.477418 136.068338 
L 328.760368 135.676538 
L 328.856641 135.284737 
L 329.001116 132.542137 
L 329.412254 129.407737 
L 329.601723 126.273336 
L 329.829042 126.273336 
L 330.047483 126.665137 
L 330.141029 127.448739 
L 330.283592 130.191338 
L 330.730736 132.150336 
L 330.734303 132.542137 
L 331.0051 131.758536 
L 331.300141 126.665137 
L 350.6525 126.665137 
L 350.6525 126.665137 
" clip-path="url(#p57e82538f3)" style="fill: none; stroke: var(--c-slate); stroke-width: 1.3; stroke-linecap: square"/>
   </g>
   <g id="patch_8">
    <path d="M 51.7175 219.129938 
L 51.7175 23.229938 
" style="fill: none; stroke: var(--c-soft); stroke-width: 0.9; stroke-linejoin: miter; stroke-linecap: square"/>
   </g>
   <g id="patch_9">
    <path d="M 364.8875 219.129938 
L 364.8875 23.229938 
" style="fill: none; stroke: var(--c-soft); stroke-width: 0.9; stroke-linejoin: miter; stroke-linecap: square"/>
   </g>
   <g id="patch_10">
    <path d="M 51.7175 219.129938 
L 364.8875 219.129938 
" style="fill: none; stroke: var(--c-soft); stroke-width: 0.9; stroke-linejoin: miter; stroke-linecap: square"/>
   </g>
  </g>
 </g>
 <defs>
  <clipPath id="p57e82538f3">
   <rect x="51.7175" y="23.229938" width="313.17" height="195.9"/>
  </clipPath>
  <clipPath id="pb63a5ccf37">
   <rect x="452.1775" y="23.229938" width="208.78" height="195.9"/>
  </clipPath>
 </defs>
</svg>
